<svg id="의사" xmlns="http://www.w3.org/2000/svg" width="24" height="24" viewBox="0 0 24 24">
  <rect id="사각형_1615" data-name="사각형 1615" width="24" height="24" fill="none"/>
  <g id="그룹_492" data-name="그룹 492" transform="translate(-679.745 -164.377)">
    <path id="패스_862" data-name="패스 862" d="M701.912,200.228v.074c0-4.585-5.091-8.3-9.675-8.3h.186c-4.587,0-9.678,3.719-9.678,8.3v-.074" transform="translate(0 -14.239)" fill="none" stroke="#222" stroke-linecap="round" stroke-linejoin="round" stroke-width="1"/>
    <line id="선_16" data-name="선 16" y1="3.575" transform="translate(689.033 178.424)" fill="none" stroke="#222" stroke-linecap="round" stroke-linejoin="round" stroke-width="1"/>
    <path id="패스_863" data-name="패스 863" d="M702.377,170.354a5.408,5.408,0,1,1-5.407-5.407A5.409,5.409,0,0,1,702.377,170.354Z" transform="translate(-4.64 0)" fill="none" stroke="#222" stroke-linecap="round" stroke-linejoin="round" stroke-width="1"/>
    <path id="패스_864" data-name="패스 864" d="M691.269,203.795V203.2a2.251,2.251,0,0,1,4.5,0v.594" transform="translate(-4.487 -18.95)" fill="none" stroke="#222" stroke-linecap="round" stroke-linejoin="round" stroke-width="1"/>
    <path id="패스_865" data-name="패스 865" d="M711.552,209.193a1.849,1.849,0,1,1-1.848-1.849A1.85,1.85,0,0,1,711.552,209.193Z" transform="translate(-13.217 -23.316)" fill="none" stroke="#222" stroke-linecap="round" stroke-linejoin="round" stroke-width="1"/>
    <line id="선_17" data-name="선 17" y1="4.561" transform="translate(696.487 179.016)" fill="none" stroke="#222" stroke-linecap="round" stroke-linejoin="round" stroke-width="1"/>
  </g>
</svg>
