<svg id="ico_feedback_normal" xmlns="http://www.w3.org/2000/svg" width="24" height="24" viewBox="0 0 24 24">
  <rect id="사각형_1592" data-name="사각형 1592" width="24" height="24" fill="none"/>
  <g id="그룹_469" data-name="그룹 469" transform="translate(0 2)">
    <g id="그룹_327" data-name="그룹 327" transform="translate(8.109 3.603)">
      <path id="패스_973" data-name="패스 973" d="M1467.618,194.073a.49.49,0,0,1-.347-.143l-4.066-4.066h-5.978a2.029,2.029,0,0,1-2.026-2.027v-7.714a2.029,2.029,0,0,1,2.026-2.027h11.583a2.029,2.029,0,0,1,2.028,2.027v7.714a2.03,2.03,0,0,1-2.028,2.027h-.7v3.719a.49.49,0,0,1-.49.49Zm-10.391-15a1.048,1.048,0,0,0-1.046,1.047v7.714a1.048,1.048,0,0,0,1.046,1.047h6.182a.489.489,0,0,1,.346.143l3.373,3.373v-3.026a.49.49,0,0,1,.49-.49h1.193a1.049,1.049,0,0,0,1.048-1.047v-7.714a1.048,1.048,0,0,0-1.048-1.047Z" transform="translate(-1455.201 -178.097)" fill="#222"/>
    </g>
    <g id="그룹_328" data-name="그룹 328">
      <path id="패스_974" data-name="패스 974" d="M1414.331,170.11a.52.52,0,0,1-.52-.52v-3.183h-.53a1.874,1.874,0,0,1-1.873-1.872v-6.786a1.875,1.875,0,0,1,1.873-1.872h11.07a1.874,1.874,0,0,1,1.872,1.872v1.2a.52.52,0,0,1-1.04,0v-1.2a.833.833,0,0,0-.831-.832h-11.07a.834.834,0,0,0-.833.832v6.786a.833.833,0,0,0,.833.832h1.05a.52.52,0,0,1,.52.52v2.448l2.816-2.815a.52.52,0,0,1,.368-.152h.927a.52.52,0,1,1,0,1.04h-.711l-3.551,3.551A.521.521,0,0,1,1414.331,170.11Z" transform="translate(-1411.409 -155.876)" fill="#222"/>
    </g>
  </g>
</svg>
