<svg id="그룹_432" data-name="그룹 432" xmlns="http://www.w3.org/2000/svg" width="24" height="24" viewBox="0 0 24 24">
  <rect id="사각형_1580" data-name="사각형 1580" width="24" height="24" fill="#ecd7d7" opacity="0"/>
  <g id="패스_965" data-name="패스 965" transform="translate(-2929.417 -591.097)" fill="#0097a7">
    <path d="M 2946.9853515625 612.909423828125 C 2945.7197265625 611.9190063476563 2943.499755859375 610.0770263671875 2941.490478515625 608.3690795898438 L 2941.188720703125 608.1124877929688 L 2940.869873046875 608.3475952148438 L 2935.44580078125 612.3479614257813 L 2937.476318359375 605.9853515625 L 2937.585693359375 605.6429443359375 L 2937.2958984375 605.4302978515625 L 2931.942626953125 601.5 L 2938.333251953125 601.5 L 2938.6923828125 601.5 L 2938.80712890625 601.1595458984375 L 2941.15234375 594.1932983398438 L 2943.356689453125 601.1510009765625 L 2943.467041015625 601.5 L 2943.833251953125 601.5 L 2950.781005859375 601.5 L 2944.970458984375 605.4187622070313 L 2944.65771484375 605.6296997070313 L 2944.774658203125 605.9884033203125 C 2945.46435546875 608.1023559570313 2946.460693359375 611.197509765625 2946.9853515625 612.909423828125 Z" stroke="none"/>
    <path d="M 2941.137939453125 595.8032836914063 L 2939.281005859375 601.3190307617188 L 2939.0517578125 602 L 2938.333251953125 602 L 2933.468505859375 602 L 2937.591796875 605.0272216796875 L 2938.171142578125 605.45263671875 L 2937.95263671875 606.1373291015625 L 2936.391357421875 611.0292358398438 L 2940.5732421875 607.9451904296875 L 2941.2109375 607.4749755859375 L 2941.814453125 607.9880981445313 C 2943.25537109375 609.2129516601563 2944.802490234375 610.5040893554688 2946.020751953125 611.4955444335938 C 2945.53515625 609.9571533203125 2944.90087890625 607.987060546875 2944.29931640625 606.1434936523438 L 2944.065185546875 605.4261474609375 L 2944.69091796875 605.0042114257813 L 2949.1455078125 602 L 2943.833251953125 602 L 2943.10107421875 602 L 2942.8798828125 601.302001953125 L 2941.137939453125 595.8032836914063 M 2941.166748046875 592.5833129882813 L 2943.833251953125 601 L 2952.416748046875 601 L 2945.25 605.8333129882813 C 2945.25 605.8333129882813 2947.833251953125 613.75 2947.833251953125 614.0833129882813 C 2947.833251953125 614.0928344726563 2947.827880859375 614.0974731445313 2947.817138671875 614.0974731445313 C 2947.45703125 614.0974731445313 2941.166748046875 608.75 2941.166748046875 608.75 L 2934.5 613.6666870117188 L 2937 605.8333129882813 L 2930.416748046875 601 L 2938.333251953125 601 L 2941.166748046875 592.5833129882813 Z" stroke="none" fill="#0097a7"/>
  </g>
</svg>
