<svg id="ico_favorite_normal" xmlns="http://www.w3.org/2000/svg" width="24" height="24" viewBox="0 0 24 24">
  <g id="그룹_434" data-name="그룹 434">
    <rect id="사각형_1580" data-name="사각형 1580" width="24" height="24" fill="none"/>
    <g id="패스_965" data-name="패스 965" transform="translate(-2929.917 -592.075)" fill="none">
      <path d="M2930.417,601.383l6.882,5.053-2.614,8.189,6.97-5.14s6.969,5.924,6.969,5.576-2.7-8.625-2.7-8.625l7.493-5.053h-8.974l-2.788-8.8-2.962,8.8Z" stroke="none"/>
      <path d="M 2941.62646484375 595.8032836914063 L 2939.640869140625 601.7015991210938 L 2939.41162109375 602.382568359375 L 2938.693115234375 602.382568359375 L 2933.468505859375 602.382568359375 L 2937.890869140625 605.6294555664063 L 2938.47021484375 606.0548706054688 L 2938.251708984375 606.7395629882813 L 2936.576904296875 611.987548828125 L 2941.061767578125 608.6799926757813 L 2941.699462890625 608.2097778320313 L 2942.302978515625 608.722900390625 C 2943.85693359375 610.0438842773438 2945.52783203125 611.4374389648438 2946.81884765625 612.4859008789063 C 2946.25732421875 610.7056274414063 2945.519287109375 608.4190063476563 2944.973388671875 606.7457275390625 L 2944.7392578125 606.0283813476563 L 2945.364990234375 605.6064453125 L 2950.1455078125 602.382568359375 L 2944.443115234375 602.382568359375 L 2943.7109375 602.382568359375 L 2943.48974609375 601.6845703125 L 2941.62646484375 595.8032836914063 M 2941.6552734375 592.5833129882813 L 2944.443115234375 601.382568359375 L 2953.416748046875 601.382568359375 L 2945.924072265625 606.435546875 C 2945.924072265625 606.435546875 2948.624755859375 614.7120971679688 2948.624755859375 615.060546875 C 2948.624755859375 615.0704956054688 2948.619140625 615.0753173828125 2948.60791015625 615.0753173828125 C 2948.2314453125 615.0753173828125 2941.6552734375 609.4848022460938 2941.6552734375 609.4848022460938 L 2934.685546875 614.625 L 2937.299072265625 606.435546875 L 2930.416748046875 601.382568359375 L 2938.693115234375 601.382568359375 L 2941.6552734375 592.5833129882813 Z" stroke="none" fill="#222"/>
    </g>
  </g>
</svg>
