<?xml version="1.0" encoding="utf-8"?>
<!-- Generator: Adobe Illustrator 24.1.3, SVG Export Plug-In . SVG Version: 6.00 Build 0)  -->
<svg version="1.1" id="구성_요소_37_1" xmlns="http://www.w3.org/2000/svg" xmlns:xlink="http://www.w3.org/1999/xlink" x="0px"
	 y="0px" viewBox="0 0 24 24" style="enable-background:new 0 0 24 24;" xml:space="preserve">
<style type="text/css">
	.st0{fill:none;stroke:#000000;stroke-linecap:round;stroke-linejoin:round;}
</style>
<g id="그룹_504" transform="translate(-189.997 -33)">
	<g id="패스_989">
		<path class="st0" d="M203,37.6l-8.6,4.3c-0.1,0.1-0.3,0.1-0.4,0.1h-3c0,0.2,0,0.5,0,0.7c0,0.1,0,0.2,0,0.3v4c0,0.1,0,0.2,0,0.3
			c0,0.2,0,0.5,0,0.7h3c0.2,0,0.3,0,0.4,0.1l8.6,4.3V37.6"/>
	</g>
	<path id="패스_990" class="st0" d="M207.2,47.8c1.6-0.6,2.4-2.3,1.8-3.8c-0.3-0.9-1-1.5-1.8-1.8"/>
	<path id="패스_991" class="st0" d="M210,50.7c3.2-2.2,4-6.6,1.8-9.7c-0.5-0.7-1.1-1.3-1.8-1.8"/>
</g>
</svg>
