<svg id="ico_spend_normal" xmlns="http://www.w3.org/2000/svg" width="24" height="24" viewBox="0 0 24 24">
  <rect id="사각형_1605" data-name="사각형 1605" width="24" height="24" fill="none"/>
  <g id="그룹_473" data-name="그룹 473" transform="translate(2 3)">
    <g id="그룹_307" data-name="그룹 307">
      <path id="패스_955" data-name="패스 955" d="M635.105,601.9l-3.583.547.544-3.6,6.176-6.207v-2.766c-.038-1.241.279-2.366,2.152-2.366h-16c-2.581,0-2.214,1.783-2.216,2.218l-.061,15.6h16.125V598.85Z" transform="translate(-622.118 -587.511)" fill="none" stroke="#222" stroke-linecap="round" stroke-linejoin="round" stroke-width="1"/>
      <path id="패스_956" data-name="패스 956" d="M657.385,601.78l5.939-5.939-3.129-3.129-2.81,2.81" transform="translate(-642.924 -588.712)" fill="none" stroke="#222" stroke-linecap="round" stroke-linejoin="round" stroke-width="1"/>
    </g>
    <g id="그룹_308" data-name="그룹 308" transform="translate(2.769 5.639)">
      <path id="패스_957" data-name="패스 957" d="M628,603.072h1.082L628.318,600h1.051l.68,3.071H631.5l.786-3.071h.945l.742,3.071h1.412l.669-3.071h1.008l-.764,3.071h1.114v.637h-1.273l-.935,3.824h-.955l-.913-3.824h-1.189l-.955,3.824h-1l-.956-3.824H628Zm2.728,3.082.616-2.444h-1.157Zm1.582-3.082h.88l-.424-1.817Zm2.41,3.082.531-2.444h-1.126Z" transform="translate(-628 -600)" fill="#222"/>
    </g>
  </g>
</svg>
