<svg id="의원" xmlns="http://www.w3.org/2000/svg" width="24" height="24" viewBox="0 0 24 24">
  <rect id="사각형_1651" data-name="사각형 1651" width="24" height="24" fill="#fff" opacity="0"/>
  <g id="그룹_616" data-name="그룹 616" transform="translate(-181.625 -1013)">
    <path id="패스_2035" data-name="패스 2035" d="M182.625,1047.769a2.831,2.831,0,1,1,2.831,2.831A2.835,2.835,0,0,1,182.625,1047.769Z" transform="translate(0 -20.519)" fill="none" stroke="#222" stroke-linecap="round" stroke-linejoin="round" stroke-width="1"/>
    <path id="패스_2036" data-name="패스 2036" d="M192.077,1060.206a5.26,5.26,0,0,0,5.244,5.244h1.049a5.26,5.26,0,0,0,5.244-5.244v-1.893" transform="translate(-6.478 -29.686)" fill="none" stroke="#222" stroke-linecap="round" stroke-linejoin="round" stroke-width="1"/>
    <path id="패스_2037" data-name="패스 2037" d="M221.1,1019.125v6.416a5.923,5.923,0,0,1-5.9,5.913h-1.18a5.923,5.923,0,0,1-5.9-5.913v-6.416" transform="translate(-17.478 -2.827)" fill="none" stroke="#222" stroke-linecap="round" stroke-linejoin="round" stroke-width="1"/>
    <path id="패스_2038" data-name="패스 2038" d="M208.9,1021.229h-.779V1015h.779a3.114,3.114,0,0,1,3.115,3.115h0A3.115,3.115,0,0,1,208.9,1021.229Z" transform="translate(-17.478)" fill="none" stroke="#222" stroke-linecap="round" stroke-linejoin="round" stroke-width="1"/>
    <path id="패스_2039" data-name="패스 2039" d="M240.893,1021.229h-.779a3.115,3.115,0,0,1-3.115-3.115h0a3.114,3.114,0,0,1,3.115-3.115h.779Z" transform="translate(-37.268)" fill="none" stroke="#222" stroke-linecap="round" stroke-linejoin="round" stroke-width="1"/>
  </g>
</svg>
