<svg id="ico_data_active" xmlns="http://www.w3.org/2000/svg" width="24" height="24" viewBox="0 0 24 24">
  <rect id="사각형_1582" data-name="사각형 1582" width="24" height="24" fill="none"/>
  <g id="구성_요소_45" data-name="구성 요소 45" transform="translate(1 1.307)">
    <path id="패스_954" data-name="패스 954" d="M1193.154,737.489c.788-.8-.792-.925-.792-1.49-.2-4.287-.462,1.771.263-5.437,2.987-2.5,1.008-1.165,4.486-2.25.174-.013.349-.021.525-.021s.352.008.526.021v-4.534a.525.525,0,0,0-.526-.525h-12.949a1.339,1.339,0,0,1-1.337-1.337v-.658a1.339,1.339,0,0,1,1.337-1.338h11.635v1.767h1.051v-2.293a.525.525,0,0,0-.526-.526h-12.161a2.391,2.391,0,0,0-2.388,2.389v15.191a2.258,2.258,0,0,0,2.388,2.092h9.228a7.27,7.27,0,0,1-.762-1.052Zm.844-3.435h1.052a2.854,2.854,0,0,1,2.85-2.851v-1.05A3.906,3.906,0,0,0,1194,734.054Zm8.278,3.634a6.07,6.07,0,1,0-.743.743l2.933,2.63.743-.743-1.721-1.543Zm-4.639,1.114a5.011,5.011,0,1,1,5.012-5.011A5.017,5.017,0,0,1,1197.637,738.8Z" transform="translate(-1182.3 -718.869)" fill="#0097a7"/>
  </g>
</svg>
