<svg id="ico_explain_active" xmlns="http://www.w3.org/2000/svg" width="24" height="24" viewBox="0 0 24 24">
  <rect id="사각형_1583" data-name="사각형 1583" width="24" height="24" fill="none"/>
  <g id="그룹_443" data-name="그룹 443" transform="translate(1.333 0.895)">
    <g id="그룹_330" data-name="그룹 330" transform="translate(8.236 4.118)">
      <path id="패스_975" data-name="패스 975" d="M237.972,148.088h11.84a.515.515,0,1,0,0-1.03h-11.84a.515.515,0,0,0,0,1.03Z" transform="translate(-237.457 -147.058)" fill="#0097a7"/>
      <path id="패스_976" data-name="패스 976" d="M237.972,159.9h10.3a.514.514,0,0,0,.515-.515v-10.81c0-.284-5.86,0-6.144,0s-.875,4.8-.875,5.083l-3.791,4.625v.588a.515.515,0,0,0,0,1.03Z" transform="translate(-237.457 -147.543)" fill="#0097a7"/>
      <path id="패스_977" data-name="패스 977" d="M239.971,176.19a.513.513,0,0,0,.429-.229l1.631-2.446,1.631,2.446a.515.515,0,0,0,.857-.571l-2.059-3.089a.534.534,0,0,0-.857,0l-2.059,3.089a.515.515,0,0,0,.428.8Z" transform="translate(-238.428 -159.202)" fill="#0097a7"/>
      <path id="패스_984" data-name="패스 984" d="M5.861,7.487,4.273,5.737.305,5.862v6.125Z" transform="translate(-0.305)" fill="#0097a7"/>
    </g>
    <g id="그룹_331" data-name="그룹 331">
      <path id="패스_978" data-name="패스 978" d="M227.031,144.206a2.574,2.574,0,1,1,2.574-2.574A2.577,2.577,0,0,1,227.031,144.206Zm0-4.118a1.544,1.544,0,1,0,1.544,1.544A1.546,1.546,0,0,0,227.031,140.088Z" transform="translate(-222.913 -139.058)" fill="#0097a7"/>
      <path id="패스_979" data-name="패스 979" d="M228.149,165.5H223a.515.515,0,0,1-.515-.515v-6.421a2.854,2.854,0,0,1-1.03-2.33v-3.6a2.355,2.355,0,0,1,1.206-1.95l1.138-.569a.513.513,0,0,1,.672.2l1.1,1.838,1.1-1.838a.515.515,0,0,1,.644-.208l3.507,1.5H233.3a1.544,1.544,0,1,1,0,3.089h-3.089a.507.507,0,0,1-.125-.015l-1.42-.355v10.665A.514.514,0,0,1,228.149,165.5Zm-2.059-1.03h1.544v-10.81a.515.515,0,0,1,.64-.5l2,.5H233.3a.515.515,0,0,0,0-1.03h-2.574a.507.507,0,0,1-.2-.042l-3.191-1.367-1.313,2.188a.535.535,0,0,1-.883,0l-1.3-2.165-.712.356a1.321,1.321,0,0,0-.637,1.03v3.6a1.748,1.748,0,0,0,.752,1.6.527.527,0,0,1,.277.457v6.177h1.544v-4.633a.515.515,0,1,1,1.03,0Z" transform="translate(-221.457 -144.395)" fill="#0097a7"/>
    </g>
  </g>
  <path id="패스_987" data-name="패스 987" d="M4486.25,1996c-.5.134-6.625,0-6.625,0v2.685H4483l1.5.94s4,.134,4-.94S4486.25,1996,4486.25,1996Z" transform="translate(-4470 -1990.25)" fill="#0097a7"/>
</svg>
