<svg id="ico_segment_normal" xmlns="http://www.w3.org/2000/svg" width="24" height="24" viewBox="0 0 24 24">
  <rect id="사각형_1598" data-name="사각형 1598" width="24" height="24" fill="none"/>
  <g id="구성_요소_44" data-name="구성 요소 44" transform="translate(4 1)">
    <path id="패스_952" data-name="패스 952" d="M1081,325h-12a1.5,1.5,0,0,0-1.5,1.5v21a.5.5,0,0,0,.791.407l6.709-4.792,6.709,4.792a.5.5,0,0,0,.791-.407v-21A1.5,1.5,0,0,0,1081,325Zm.5,21.528-6.209-4.435a.5.5,0,0,0-.581,0l-6.209,4.435V326.5a.5.5,0,0,1,.5-.5h12a.5.5,0,0,1,.5.5Z" transform="translate(-1067.5 -325)" fill="#222"/>
    <path id="패스_953" data-name="패스 953" d="M1091.027,353l-2.445-.132-1.124-2.569a.5.5,0,0,0-.916,0l-1.124,2.569-2.445.132a.5.5,0,0,0-.327.853l1.782,1.781-.9,2.707a.5.5,0,0,0,.752.574L1087,357.1l2.723,1.815a.5.5,0,0,0,.752-.574l-.9-2.707,1.782-1.781a.5.5,0,0,0-.327-.853Zm-2.381,2.146a.5.5,0,0,0-.121.512l.539,1.617-1.787-1.192a.5.5,0,0,0-.555,0l-1.787,1.192.539-1.617a.5.5,0,0,0-.121-.512l-1.208-1.208,1.634-.088a.5.5,0,0,0,.431-.3l.789-1.8.789,1.8a.5.5,0,0,0,.431.3l1.634.088Z" transform="translate(-1079.5 -345)" fill="#222"/>
  </g>
</svg>
