<svg id="그룹_95" data-name="그룹 95" xmlns="http://www.w3.org/2000/svg" width="105.649" height="16.351" viewBox="0 0 105.649 16.351">
  <g id="ubsalesBI">
    <path id="패스_80" data-name="패스 80" d="M165.935,317.212v11.829c0,.5-.134,2.347-2.585,2.347h-1.176c-2.445,0-2.58-1.848-2.577-2.347V317.212h-4.472v11.829c0,.883.206,4.157,6.159,4.157h2.951c5.956,0,6.168-3.274,6.168-4.157V317.212Z" transform="translate(-155.126 -317.042)" fill="#00acc1"/>
    <path id="패스_81" data-name="패스 81" d="M189.5,317.167h-4.748a3.074,3.074,0,0,0-3.305,2.89h0v13.134h8.661c4.121,0,6.191-1.858,6.185-4.591v-.366a3.9,3.9,0,0,0-2.412-3.7,3.732,3.732,0,0,0,1.8-3.084v-.12C195.678,320.443,195.469,317.167,189.5,317.167Zm2.312,11.17v.282a2.7,2.7,0,0,1-2.953,2.757h-2.941v-5.757h2.777A2.865,2.865,0,0,1,191.811,328.337Zm-.615-7v.12a2.261,2.261,0,0,1-2.589,2.353h-2.689v-3.761a1.21,1.21,0,0,1,1.314-1.067h1.375C190.078,318.98,191.2,319.689,191.2,321.334Z" transform="translate(-163.809 -317.027)" fill="#00acc1"/>
    <path id="패스_82" data-name="패스 82" d="M260.4,333.174h4.343v-14.7c-.071-.847-.356-1.423-1.358-1.423H260.4Z" transform="translate(-189.853 -316.99)" fill="#00acc1"/>
    <path id="패스_83" data-name="패스 83" d="M283.558,333.909l.837-1.444H277.9c-2.6,0-2.711-1.963-2.711-2.493v-.464h3.481c6.313,0,6.538-3.471,6.538-4.406s-.261-4.646-6.574-4.646h-1.71c-6.316,0-6.5,3.705-6.5,4.646v4.87c0,2.56,1.692,4.407,6.532,4.407h5.612A1.1,1.1,0,0,0,283.558,333.909Zm-8.5-9a2.454,2.454,0,0,1,2.778-2.525h-.173a2.421,2.421,0,0,1,2.742,2.525c0,.529-.144,2.489-2.742,2.489h-2.6Z" transform="translate(-193.163 -318.112)" fill="#00acc1"/>
    <path id="패스_84" data-name="패스 84" d="M212,331.613c.344-.59.454-.588,1.822-.588l2.867,0c2.721,0,3.647-1.035,3.617-2.059-.038-1.309-1.017-1.857-2.37-2.5-1.141-.537-2.6-.891-4.262-1.76-1.791-.941-2.438-2.015-2.438-3.522a4.149,4.149,0,0,1,2.181-3.225,10.19,10.19,0,0,1,4.661-1l6.315,0s-.267.528-.382.763c-.131.274-.49,1.11-.9,1.251a6.151,6.151,0,0,1-1.3.061c-.915,0-2.083-.017-2.963.021-2.741.12-3.127,1.364-3.127,1.975,0,.858.6,1.64,2.24,2.233,1.516.572,3.089.98,4.592,1.684a3.731,3.731,0,0,1,2.452,3.4c0,1.569-.844,2.67-2.366,3.676-.885.584-2.471,1.08-5.235,1.08-2.53,0-3.994,0-6.139,0Z" transform="translate(-173.635 -316.959)" fill="#00acc1"/>
    <path id="패스_85" data-name="패스 85" d="M236.378,320.936l-.835,1.445h6.493c2.591,0,2.708,1.961,2.708,2.491v.465H241.26c-6.31,0-6.535,3.471-6.535,4.407s.262,4.646,6.574,4.646h1.709c6.311,0,6.5-3.706,6.5-4.646v-4.872c0-2.559-1.689-4.406-6.532-4.406h-5.613A1.092,1.092,0,0,0,236.378,320.936Zm8.506,8.527a2.451,2.451,0,0,1-2.775,2.525h.169a2.418,2.418,0,0,1-2.74-2.525c0-.53.143-2.491,2.737-2.491h2.609Z" transform="translate(-181.384 -318.116)" fill="#00acc1"/>
    <g id="그룹_2" data-name="그룹 2" transform="translate(93.745 2.395)">
      <path id="패스_104" data-name="패스 104" d="M295.678,333.2c.3-.513.389-.511,1.572-.511l2.479,0c2.355,0,3.157-.9,3.129-1.781-.036-1.131-.881-1.608-2.055-2.158-.982-.463-2.246-.767-3.68-1.52-1.549-.814-2.1-1.742-2.1-3.045a3.592,3.592,0,0,1,1.888-2.79,8.9,8.9,0,0,1,4.027-.859l5.455,0s-.23.456-.326.663c-.118.237-.43.96-.779,1.078a5,5,0,0,1-1.126.054c-.789,0-1.8-.013-2.557.02-2.378.105-2.7,1.179-2.7,1.706,0,.74.523,1.415,1.931,1.928,1.314.493,2.674.848,3.975,1.457a3.227,3.227,0,0,1,2.119,2.94,3.723,3.723,0,0,1-2.047,3.176,8.329,8.329,0,0,1-4.525.935h-5.3Z" transform="translate(-295.019 -320.533)" fill="#00acc1"/>
    </g>
  </g>
</svg>
