<svg xmlns="http://www.w3.org/2000/svg" width="120" height="18.572" viewBox="0 0 120 18.572">
  <g id="그룹_323" data-name="그룹 323" transform="translate(-130 -231.218)">
    <g id="ubsalesBI" transform="translate(130 231.218)">
      <path id="패스_80" data-name="패스 80" d="M167.4,317.212v13.436c0,.568-.152,2.666-2.936,2.666h-1.336c-2.777,0-2.93-2.1-2.927-2.666V317.212h-5.079v13.436c0,1,.234,4.722,7,4.722h3.352c6.765,0,7.006-3.719,7.006-4.722V317.212Z" transform="translate(-155.126 -317.019)" fill="#fff"/>
      <path id="패스_81" data-name="패스 81" d="M190.593,317.167H185.2a3.491,3.491,0,0,0-3.754,3.283h0v14.918h9.838c4.681,0,7.031-2.11,7.025-5.215v-.416a4.428,4.428,0,0,0-2.739-4.2,4.239,4.239,0,0,0,2.041-3.5V321.9C197.611,320.888,197.374,317.167,190.593,317.167Zm2.626,12.688v.32a3.072,3.072,0,0,1-3.354,3.131h-3.341v-6.539h3.154A3.254,3.254,0,0,1,193.219,329.855Zm-.7-7.954v.136c0,1.261-.671,2.673-2.941,2.673h-3.054v-4.272a1.375,1.375,0,0,1,1.493-1.212h1.562C191.25,319.226,192.521,320.032,192.521,321.9Z" transform="translate(-161.413 -317.008)" fill="#fff"/>
      <path id="패스_82" data-name="패스 82" d="M260.4,335.364h4.933V318.671c-.081-.962-.4-1.617-1.543-1.617H260.4Z" transform="translate(-180.27 -316.981)" fill="#fff"/>
      <path id="패스_83" data-name="패스 83" d="M285.341,335.737l.951-1.64h-7.374c-2.948,0-3.079-2.229-3.079-2.831v-.527h3.954c7.17,0,7.426-3.942,7.426-5s-.3-5.277-7.467-5.277H277.81c-7.174,0-7.378,4.208-7.378,5.277v5.532c0,2.908,1.922,5.005,7.42,5.005h6.375A1.244,1.244,0,0,0,285.341,335.737Zm-9.66-10.218c0-.6.207-2.868,3.155-2.868h-.2c2.945,0,3.115,2.264,3.115,2.868s-.164,2.827-3.115,2.827h-2.959Z" transform="translate(-182.667 -317.794)" fill="#fff"/>
      <path id="패스_84" data-name="패스 84" d="M212.1,333.6c.391-.67.515-.668,2.07-.668l3.257,0c3.091,0,4.142-1.175,4.108-2.338-.043-1.487-1.155-2.109-2.692-2.835-1.3-.61-2.959-1.012-4.841-2-2.034-1.069-2.769-2.289-2.769-4a4.713,4.713,0,0,1,2.477-3.663,11.574,11.574,0,0,1,5.294-1.134l7.172,0s-.3.6-.434.867c-.149.311-.557,1.26-1.02,1.421a6.985,6.985,0,0,1-1.474.069c-1.04,0-2.366-.019-3.365.024-3.114.136-3.552,1.55-3.552,2.244,0,.975.687,1.863,2.544,2.536,1.722.649,3.508,1.114,5.216,1.913a4.238,4.238,0,0,1,2.785,3.861c0,1.783-.959,3.032-2.687,4.175-1.005.664-2.806,1.227-5.946,1.227-2.874,0-4.536,0-6.973,0Z" transform="translate(-168.528 -316.959)" fill="#fff"/>
      <path id="패스_85" data-name="패스 85" d="M236.6,321l-.948,1.641h7.375c2.943,0,3.076,2.228,3.076,2.829V326h-3.957c-7.167,0-7.423,3.942-7.423,5.005s.3,5.277,7.467,5.277h1.942c7.169,0,7.378-4.21,7.378-5.277v-5.533c0-2.907-1.919-5-7.42-5h-6.375A1.24,1.24,0,0,0,236.6,321Zm9.661,9.685c0,.605-.206,2.868-3.152,2.868h.192c-2.946,0-3.112-2.263-3.112-2.868s.162-2.829,3.109-2.829h2.963Z" transform="translate(-174.139 -317.796)" fill="#fff"/>
      <g id="그룹_2" data-name="그룹 2" transform="translate(106.479 2.721)">
        <path id="패스_104" data-name="패스 104" d="M295.767,334.925c.343-.582.441-.58,1.786-.58l2.815,0c2.675,0,3.586-1.018,3.555-2.023-.04-1.285-1-1.826-2.334-2.452-1.116-.526-2.551-.872-4.18-1.727-1.76-.925-2.389-1.979-2.389-3.459a4.08,4.08,0,0,1,2.144-3.169,10.107,10.107,0,0,1,4.575-.976l6.2,0s-.261.518-.37.753c-.134.269-.488,1.091-.884,1.225a5.679,5.679,0,0,1-1.279.061c-.9,0-2.044-.015-2.9.023-2.7.119-3.071,1.339-3.071,1.938,0,.841.595,1.608,2.194,2.19,1.493.56,3.038.964,4.515,1.655a3.665,3.665,0,0,1,2.407,3.339c0,1.539-.833,2.621-2.325,3.607-.874.573-2.426,1.062-5.14,1.062h-6.023Z" transform="translate(-295.019 -320.533)" fill="#fff"/>
      </g>
    </g>
    <g id="ubsalesBI-2" data-name="ubsalesBI" transform="translate(130 231.218)">
      <path id="패스_80-2" data-name="패스 80" d="M167.4,317.212v13.436c0,.568-.152,2.666-2.936,2.666h-1.336c-2.777,0-2.93-2.1-2.927-2.666V317.212h-5.079v13.436c0,1,.234,4.722,7,4.722h3.352c6.765,0,7.006-3.719,7.006-4.722V317.212Z" transform="translate(-155.126 -317.019)" fill="#fff"/>
      <path id="패스_81-2" data-name="패스 81" d="M190.593,317.167H185.2a3.491,3.491,0,0,0-3.754,3.283h0v14.918h9.838c4.681,0,7.031-2.11,7.025-5.215v-.416a4.428,4.428,0,0,0-2.739-4.2,4.239,4.239,0,0,0,2.041-3.5V321.9C197.611,320.888,197.374,317.167,190.593,317.167Zm2.626,12.688v.32a3.072,3.072,0,0,1-3.354,3.131h-3.341v-6.539h3.154A3.254,3.254,0,0,1,193.219,329.855Zm-.7-7.954v.136c0,1.261-.671,2.673-2.941,2.673h-3.054v-4.272a1.375,1.375,0,0,1,1.493-1.212h1.562C191.25,319.226,192.521,320.032,192.521,321.9Z" transform="translate(-161.413 -317.008)" fill="#fff"/>
      <path id="패스_82-2" data-name="패스 82" d="M260.4,335.364h4.933V318.671c-.081-.962-.4-1.617-1.543-1.617H260.4Z" transform="translate(-180.27 -316.981)" fill="#fff"/>
      <path id="패스_83-2" data-name="패스 83" d="M285.341,335.737l.951-1.64h-7.374c-2.948,0-3.079-2.229-3.079-2.831v-.527h3.954c7.17,0,7.426-3.942,7.426-5s-.3-5.277-7.467-5.277H277.81c-7.174,0-7.378,4.208-7.378,5.277v5.532c0,2.908,1.922,5.005,7.42,5.005h6.375A1.244,1.244,0,0,0,285.341,335.737Zm-9.66-10.218c0-.6.207-2.868,3.155-2.868h-.2c2.945,0,3.115,2.264,3.115,2.868s-.164,2.827-3.115,2.827h-2.959Z" transform="translate(-182.667 -317.794)" fill="#fff"/>
      <path id="패스_84-2" data-name="패스 84" d="M212.1,333.6c.391-.67.515-.668,2.07-.668l3.257,0c3.091,0,4.142-1.175,4.108-2.338-.043-1.487-1.155-2.109-2.692-2.835-1.3-.61-2.959-1.012-4.841-2-2.034-1.069-2.769-2.289-2.769-4a4.713,4.713,0,0,1,2.477-3.663,11.574,11.574,0,0,1,5.294-1.134l7.172,0s-.3.6-.434.867c-.149.311-.557,1.26-1.02,1.421a6.985,6.985,0,0,1-1.474.069c-1.04,0-2.366-.019-3.365.024-3.114.136-3.552,1.55-3.552,2.244,0,.975.687,1.863,2.544,2.536,1.722.649,3.508,1.114,5.216,1.913a4.238,4.238,0,0,1,2.785,3.861c0,1.783-.959,3.032-2.687,4.175-1.005.664-2.806,1.227-5.946,1.227-2.874,0-4.536,0-6.973,0Z" transform="translate(-168.528 -316.959)" fill="#fff"/>
      <path id="패스_85-2" data-name="패스 85" d="M236.6,321l-.948,1.641h7.375c2.943,0,3.076,2.228,3.076,2.829V326h-3.957c-7.167,0-7.423,3.942-7.423,5.005s.3,5.277,7.467,5.277h1.942c7.169,0,7.378-4.21,7.378-5.277v-5.533c0-2.907-1.919-5-7.42-5h-6.375A1.24,1.24,0,0,0,236.6,321Zm9.661,9.685c0,.605-.206,2.868-3.152,2.868h.192c-2.946,0-3.112-2.263-3.112-2.868s.162-2.829,3.109-2.829h2.963Z" transform="translate(-174.139 -317.796)" fill="#fff"/>
      <g id="그룹_2-2" data-name="그룹 2" transform="translate(106.479 2.721)">
        <path id="패스_104-2" data-name="패스 104" d="M295.767,334.925c.343-.582.441-.58,1.786-.58l2.815,0c2.675,0,3.586-1.018,3.555-2.023-.04-1.285-1-1.826-2.334-2.452-1.116-.526-2.551-.872-4.18-1.727-1.76-.925-2.389-1.979-2.389-3.459a4.08,4.08,0,0,1,2.144-3.169,10.107,10.107,0,0,1,4.575-.976l6.2,0s-.261.518-.37.753c-.134.269-.488,1.091-.884,1.225a5.679,5.679,0,0,1-1.279.061c-.9,0-2.044-.015-2.9.023-2.7.119-3.071,1.339-3.071,1.938,0,.841.595,1.608,2.194,2.19,1.493.56,3.038.964,4.515,1.655a3.665,3.665,0,0,1,2.407,3.339c0,1.539-.833,2.621-2.325,3.607-.874.573-2.426,1.062-5.14,1.062h-6.023Z" transform="translate(-295.019 -320.533)" fill="#fff"/>
      </g>
    </g>
  </g>
</svg>
