<svg id="구성_요소_40_1" data-name="구성 요소 40 – 1" xmlns="http://www.w3.org/2000/svg" width="81" height="81" viewBox="0 0 81 81">
  <path id="패스_938" data-name="패스 938" d="M40.5,0A40.5,40.5,0,1,1,0,40.5,40.5,40.5,0,0,1,40.5,0Z" fill="#53b5c1"/>
  <path id="패스_923" data-name="패스 923" d="M40.5,0A40.5,40.5,0,1,1,0,40.5,40.5,40.5,0,0,1,40.5,0Z" fill="#53b5c1"/>
  <path id="교차_1" data-name="교차 1" d="M1286.47-1867.142,1275-1911.6v-1.4l12.25-13.749,4.25-2.75,47.735,31.875A40.515,40.515,0,0,1,1299.5-1865,40.454,40.454,0,0,1,1286.47-1867.142Z" transform="translate(-1259 1946)" opacity="0.1"/>
  <g id="그룹_305" data-name="그룹 305" transform="translate(-483 -135.5)">
    <g id="그룹_171" data-name="그룹 171" transform="translate(498 149)">
      <path id="패스_902" data-name="패스 902" d="M537.405,109.97c2.221,0,4.018-2.223,4.018-4.969s-1.8-4.965-4.018-4.965-4.021,2.224-4.021,4.965S535.186,109.97,537.405,109.97Z" transform="translate(-522.858 -100.037)" fill="#fff"/>
      <g id="그룹_147" data-name="그룹 147" transform="translate(0 10.965)">
        <path id="패스_905" data-name="패스 905" d="M549.818,115.27c-.708-.543-5.3-3.954-5.3-3.954a2.577,2.577,0,0,0-1.319-.5.674.674,0,0,0-.082-.023c-.658-.081-1.311-.13-1.963-.18l-.016.058,1.036.979a1.442,1.442,0,0,1,.311,1.677c-.4.829-.92,1.886-.92,1.886l-2.432,5.369-1.076.057-.39-.194-.1.682-1.152-.544-2.433-5.369-.917-1.95a1.268,1.268,0,0,1,.226-1.41l1.119-1.185-.017-.057c-.654.051-1.306.1-1.969.18a.691.691,0,0,0-.179.05,2.675,2.675,0,0,0-1.752.852l-6.561,7.083a3.13,3.13,0,0,0-.275,3.628c.209.41.279.553.279.553l3.841,6.244a.9.9,0,0,0,1.207.4c.3-.152.875-.266,1.169-.422.6-.321,1.036,1.591,1.036,1.591l.188,1.26L534,150.368a.893.893,0,0,0,.892.864h1.866a.725.725,0,0,0,.725-.7c.139-5.682.044-14.858,0-18.5h.553l.633,18.413s-.065.518.779.779a20.018,20.018,0,0,0,2.777.006,4.609,4.609,0,0,1-1.779-3.617V129.778c-.153-3.358,3.694-5,4.96-4.949,1.728-.985,3.506-2.024,4.626-2.581C553.191,120.232,551.951,116.907,549.818,115.27Zm-18.825,9.554-.639-1.107-1.244-2.144-.363-.622,1.1-1.33a.725.725,0,0,1,1.285.488q-.079,2.36-.14,4.716Zm13.1-4.424a17.817,17.817,0,0,1,.39-2.678c.563-.188,1.51,1.267,1.46,1.314Z" transform="translate(-523.229 -110.617)" fill="#fff"/>
      </g>
      <path id="합치기_13" data-name="합치기 13" d="M537.312,123.6l-.013.028.006-.041-1.347-2.986.421-8.174v-.092h1.866v.092l.422,8.174-1.347,2.986.008.041Zm0-.042v-.011l-.013-.051Zm0-10.322h0l-.933-.808Zm.933-.9h-1.866v.092L536,112.1l.5-1.836h1.625l.5,1.836-.378.326Z" transform="translate(-522.765 -99.664)" fill="#fff"/>
      <path id="합치기_16" data-name="합치기 16" d="M560.559,151.3a6.356,6.356,0,0,1,3.642-11.57h0a6.339,6.339,0,0,1,2.64.578l-.021-8.58h-23l.033,14.742a2.45,2.45,0,0,0,2.446,2.446h12.208a6.4,6.4,0,0,0,2.053,2.39H546.3a4.841,4.841,0,0,1-4.835-4.836l-.033-16.432a4.722,4.722,0,0,1,4.6-4.835q.115,0,.23,0h18.113a4.839,4.839,0,0,1,4.835,4.835l.025,12.173a6.351,6.351,0,0,1-5.035,10.239h0A6.325,6.325,0,0,1,560.559,151.3Zm-.207-5.748a.829.829,0,0,0,0,1.069l2.034,2.291.207.23.012.017a.622.622,0,0,0,.877.073.6.6,0,0,0,.073-.073l.219-.247,3.082-3.472v0l1.2-1.347a.827.827,0,0,0,0-1.073.627.627,0,0,0-.885-.064.78.78,0,0,0-.065.064l-.253.286-3.772,4.249-1.776-2a.629.629,0,0,0-.473-.222.64.64,0,0,0-.478.222Zm-9.811-16.98a.652.652,0,0,0,.65.651h8.26a.65.65,0,0,0,0-1.3h-8.26a.65.65,0,0,0-.65.65Z" transform="translate(-522.565 -99.12)" fill="#fff"/>
      <path id="패스_908" data-name="패스 908" d="M537.264,123.08l-.014-.051.013.061Z" transform="translate(-522.717 -99.199)" fill="#fff"/>
      <rect id="사각형_1524" data-name="사각형 1524" width="3.521" height="2.334" transform="translate(23.983 35.584)" fill="#fff"/>
      <rect id="사각형_1525" data-name="사각형 1525" width="3.521" height="2.334" transform="translate(23.983 40.182)" fill="#fff"/>
      <rect id="사각형_1526" data-name="사각형 1526" width="3.522" height="2.334" transform="translate(31.261 35.584)" fill="#fff"/>
      <rect id="사각형_1527" data-name="사각형 1527" width="3.522" height="2.334" transform="translate(31.261 40.182)" fill="#fff"/>
      <rect id="사각형_1528" data-name="사각형 1528" width="3.521" height="2.334" transform="translate(23.983 44.779)" fill="#fff"/>
      <rect id="사각형_1529" data-name="사각형 1529" width="3.522" height="2.334" transform="translate(31.261 44.779)" fill="#fff"/>
      <rect id="사각형_1530" data-name="사각형 1530" width="3.522" height="2.334" transform="translate(38.539 35.584)" fill="#fff"/>
    </g>
  </g>
</svg>
