<svg id="구성_요소_39" data-name="구성 요소 39" xmlns="http://www.w3.org/2000/svg" width="85.333" height="85.333" viewBox="0 0 85.333 85.333">
  <circle id="타원_57" data-name="타원 57" cx="42.667" cy="42.667" r="42.667" fill="#fff"/>
  <g id="그룹_171" data-name="그룹 171" transform="translate(16.842 13.474)">
    <path id="패스_902" data-name="패스 902" d="M537.74,110.8c2.406,0,4.353-2.408,4.353-5.383s-1.947-5.378-4.353-5.378-4.357,2.41-4.357,5.378S535.336,110.8,537.74,110.8Z" transform="translate(-521.981 -100.037)" fill="#29afce"/>
    <g id="그룹_147" data-name="그룹 147" transform="translate(0 11.879)">
      <path id="패스_903" data-name="패스 903" d="M543.781,117.477a19.306,19.306,0,0,0-.422,2.9l2-1.478C545.416,118.847,544.391,117.272,543.781,117.477Z" transform="translate(-520.756 -109.777)" fill="none"/>
      <path id="패스_904" data-name="패스 904" d="M529.744,119.338l-1.189,1.434.393.674,1.347,2.323.693,1.2q.064-2.552.151-5.105a.786.786,0,0,0-1.395-.524Z" transform="translate(-522.574 -109.582)" fill="none"/>
      <path id="패스_905" data-name="패스 905" d="M552.034,115.657c-.767-.588-5.74-4.284-5.74-4.284a2.793,2.793,0,0,0-1.429-.537.73.73,0,0,0-.089-.025c-.713-.088-1.42-.14-2.127-.2l-.017.063,1.123,1.061a1.563,1.563,0,0,1,.337,1.817c-.431.9-1,2.044-1,2.044l-2.634,5.816-1.165.062-.422-.21-.106.739-1.247-.589-2.635-5.816-.994-2.112a1.373,1.373,0,0,1,.245-1.527l1.213-1.283-.018-.062c-.709.055-1.415.112-2.133.2a.746.746,0,0,0-.194.054,2.9,2.9,0,0,0-1.9.923L524,119.464a3.391,3.391,0,0,0-.3,3.93c.227.445.3.6.3.6l4.161,6.765a.974.974,0,0,0,1.308.429c.321-.165.948-.289,1.266-.457.654-.348,1.123,1.724,1.123,1.724l.2,1.365,2.828,19.862a.967.967,0,0,0,.967.936h2.021a.785.785,0,0,0,.786-.759c.15-6.155.047-16.1,0-20.04h.6l.686,19.948s-.071.561.844.844a21.685,21.685,0,0,0,3.008.007,4.994,4.994,0,0,1-1.927-3.919V131.374c-.166-3.638,4-5.414,5.374-5.361,1.872-1.067,3.8-2.193,5.011-2.8C555.688,121.033,554.344,117.431,552.034,115.657Zm-20.394,10.35-.693-1.2-1.347-2.323-.393-.674,1.192-1.441a.786.786,0,0,1,1.392.529q-.086,2.557-.152,5.109Zm14.192-4.792a19.3,19.3,0,0,1,.422-2.9c.61-.2,1.636,1.372,1.582,1.424Z" transform="translate(-523.228 -110.617)" fill="#29afce"/>
    </g>
    <path id="합치기_13" data-name="합치기 13" d="M537.424,124.708l-.015.03.007-.045-1.46-3.235.456-8.856v-.1h2.021v.1l.457,8.856-1.46,3.235.009.045Zm0-.046v-.012l-.015-.055Zm0-11.182h0l-1.01-.876Zm1.011-.976h-2.021v.1l-.409-.354.542-1.988h1.761l.543,1.988-.41.354Z" transform="translate(-521.665 -98.781)" fill="#29afce"/>
    <path id="합치기_16" data-name="합치기 16" d="M562.153,153.47a6.886,6.886,0,0,1,3.946-12.534h0a6.867,6.867,0,0,1,2.86.627l-.023-9.295h-24.92l.036,15.971a2.654,2.654,0,0,0,2.65,2.65h13.226a6.929,6.929,0,0,0,2.224,2.589H546.7a5.244,5.244,0,0,1-5.238-5.239l-.036-17.8a5.116,5.116,0,0,1,4.989-5.238q.125,0,.249,0h19.622a5.243,5.243,0,0,1,5.238,5.238l.027,13.187a6.881,6.881,0,0,1-5.455,11.092h0A6.853,6.853,0,0,1,562.153,153.47Zm-.225-6.227a.9.9,0,0,0,0,1.158l2.2,2.481.225.249.013.018a.673.673,0,0,0,.95.079.644.644,0,0,0,.079-.079l.237-.267,3.339-3.761v0l1.3-1.46a.9.9,0,0,0,0-1.162.679.679,0,0,0-.959-.07.835.835,0,0,0-.071.07l-.274.31-4.086,4.6-1.924-2.168a.682.682,0,0,0-.512-.24.693.693,0,0,0-.518.24ZM551.3,128.848a.706.706,0,0,0,.7.705h8.949a.7.7,0,0,0,0-1.409H552a.7.7,0,0,0-.7.7Z" transform="translate(-520.993 -96.947)" fill="#29afce"/>
    <path id="패스_908" data-name="패스 908" d="M537.266,123.084l-.015-.055.013.066Z" transform="translate(-521.506 -97.213)" fill="#29afce"/>
    <rect id="사각형_1524" data-name="사각형 1524" width="3.814" height="2.529" transform="translate(25.982 38.549)" fill="#29afce"/>
    <rect id="사각형_1525" data-name="사각형 1525" width="3.814" height="2.529" transform="translate(25.982 43.53)" fill="#29afce"/>
    <rect id="사각형_1526" data-name="사각형 1526" width="3.815" height="2.529" transform="translate(33.866 38.549)" fill="#29afce"/>
    <rect id="사각형_1527" data-name="사각형 1527" width="3.815" height="2.529" transform="translate(33.866 43.53)" fill="#29afce"/>
    <rect id="사각형_1528" data-name="사각형 1528" width="3.814" height="2.529" transform="translate(25.982 48.511)" fill="#29afce"/>
    <rect id="사각형_1529" data-name="사각형 1529" width="3.815" height="2.529" transform="translate(33.866 48.511)" fill="#29afce"/>
    <rect id="사각형_1530" data-name="사각형 1530" width="3.815" height="2.529" transform="translate(41.75 38.549)" fill="#29afce"/>
  </g>
</svg>
