<svg xmlns="http://www.w3.org/2000/svg" width="23.456" height="34.05" viewBox="0 0 23.456 34.05">
  <g id="그룹_266" data-name="그룹 266" transform="translate(-154 -1159)">
    <g id="그룹_68" data-name="그룹 68" transform="translate(154 1159)">
      <g id="그룹_44" data-name="그룹 44" transform="translate(0)">
        <path id="패스_324" data-name="패스 324" d="M262.557,104.179h0L265.269,97h0Z" transform="translate(-248.627 -97)" fill="none"/>
        <path id="패스_325" data-name="패스 325" d="M261.055,97h-3.437l1.738,4.71Z" transform="translate(-247.537 -97)" fill="none"/>
        <path id="패스_326" data-name="패스 326" d="M264.526,109.129c-.006-.011-.016-.019-.023-.03.016.026.03.053.044.081C264.538,109.163,264.534,109.144,264.526,109.129Z" transform="translate(-249.051 -99.639)" fill="none"/>
        <path id="패스_327" data-name="패스 327" d="M264.7,109.54c.009.032.021.063.03.1C264.721,109.6,264.71,109.572,264.7,109.54Z" transform="translate(-249.094 -99.735)" fill="none"/>
        <path id="패스_328" data-name="패스 328" d="M255,108.913a1.678,1.678,0,0,1,.144-.179A1.585,1.585,0,0,0,255,108.913Z" transform="translate(-246.953 -99.56)" fill="none"/>
        <path id="패스_329" data-name="패스 329" d="M254.74,109.381a1.623,1.623,0,0,1,.1-.242A1.589,1.589,0,0,0,254.74,109.381Z" transform="translate(-246.896 -99.648)" fill="none"/>
        <path id="패스_330" data-name="패스 330" d="M263.727,108.363c.028.016.058.029.084.046C263.784,108.392,263.756,108.379,263.727,108.363Z" transform="translate(-248.879 -99.479)" fill="none"/>
        <path id="패스_331" data-name="패스 331" d="M254.6,110.033a1.591,1.591,0,0,1,.058-.417A1.563,1.563,0,0,0,254.6,110.033Z" transform="translate(-246.865 -99.752)" fill="none"/>
        <path id="패스_332" data-name="패스 332" d="M263.258,108.178c.035.009.069.021.1.032C263.327,108.2,263.293,108.187,263.258,108.178Z" transform="translate(-248.776 -99.438)" fill="none"/>
        <path id="패스_333" data-name="패스 333" d="M263.668,107.208a1.566,1.566,0,0,1,.356.041A1.566,1.566,0,0,0,263.668,107.208Z" transform="translate(-248.867 -99.227)" fill="none"/>
        <path id="패스_334" data-name="패스 334" d="M255.461,108.442c-.038.027-.069.063-.1.091a1.627,1.627,0,0,1,.242-.177A1.55,1.55,0,0,0,255.461,108.442Z" transform="translate(-247.032 -99.477)" fill="none"/>
        <path id="패스_335" data-name="패스 335" d="M262.557,104.179h1.918L267.243,97h-1.974Z" transform="translate(-248.632 -97)" fill="#364e9f"/>
        <path id="패스_336" data-name="패스 336" d="M260.708,104.059,263.665,97H261.54l-1.7,4.71Z" transform="translate(-248.029 -97)" fill="#d92634"/>
        <path id="패스_337" data-name="패스 337" d="M262.207,104.179,264.919,97h-1.012l-2.956,7.059.044.12Z" transform="translate(-248.275 -97)" fill="#fff"/>
        <path id="패스_338" data-name="패스 338" d="M262.209,106.9l.272-.721h0Z" transform="translate(-248.545 -99.003)" fill="#c6c6c6" style="mix-blend-mode: multiply;isolation: isolate"/>
        <path id="패스_339" data-name="패스 339" d="M262.2,106.9l-.03.081h1.171a1.565,1.565,0,0,1,.356.041,1.544,1.544,0,0,1,.189.066c.045.016.092.027.136.048l.368-.957h-1.918Z" transform="translate(-248.54 -99.003)" fill="#364e9f"/>
        <path id="패스_340" data-name="패스 340" d="M262.2,106.9l-.03.081h1.171a1.565,1.565,0,0,1,.356.041,1.544,1.544,0,0,1,.189.066c.045.016.092.027.136.048l.368-.957h-1.918Z" transform="translate(-248.54 -99.003)" fill="#c6c6c6" style="mix-blend-mode: multiply;isolation: isolate"/>
        <path id="패스_341" data-name="패스 341" d="M261.007,106.183l.3.8h.613l.031-.081.272-.721Z" transform="translate(-248.281 -99.003)" fill="#fff"/>
        <path id="패스_342" data-name="패스 342" d="M261.007,106.183l.3.8h.613l.031-.081.272-.721Z" transform="translate(-248.281 -99.003)" fill="#c6c6c6" style="mix-blend-mode: multiply;isolation: isolate"/>
        <path id="패스_343" data-name="패스 343" d="M262.17,107.186l.031-.081-.031.081Z" transform="translate(-248.536 -99.204)" fill="#fff"/>
        <path id="패스_344" data-name="패스 344" d="M262.17,107.186l.031-.081-.031.081Z" transform="translate(-248.536 -99.204)" fill="#c6c6c6" style="mix-blend-mode: multiply;isolation: isolate"/>
        <path id="패스_345" data-name="패스 345" d="M254.4,109.532a1.563,1.563,0,0,1,.058-.417c.013-.046.035-.087.052-.131a1.589,1.589,0,0,1,.1-.242,1.687,1.687,0,0,1,.1-.138,1.586,1.586,0,0,1,.144-.179,1.624,1.624,0,0,1,.135-.118c.036-.029.066-.065.1-.091l-.322-.9-.037.012a1.592,1.592,0,0,0-1.043,1.493v2.182c.231-.1.468-.186.706-.272Z" transform="translate(-246.667 -99.251)" fill="#fabf4b"/>
        <path id="패스_346" data-name="패스 346" d="M263.176,107.208H262l-.022.058h-.571l.239.648h.819a1.609,1.609,0,0,1,.385.052c.035.009.069.021.1.032a1.544,1.544,0,0,1,.263.113c.029.016.057.029.084.046a1.587,1.587,0,0,1,.522.529c.006.011.016.019.023.03s.013.034.021.051a1.637,1.637,0,0,1,.11.264c.01.032.021.063.03.1a1.608,1.608,0,0,1,.051.381v1.2c.185.066.37.134.55.21.053.023.1.048.156.07V108.8a1.578,1.578,0,0,0-.229-.819,1.6,1.6,0,0,0-.672-.614,1.6,1.6,0,0,0-.692-.16Z" transform="translate(-248.375 -99.227)" fill="#fabf4b"/>
        <path id="패스_347" data-name="패스 347" d="M261.385,107.208l.021.057h.57l.022-.057h-.613Z" transform="translate(-248.364 -99.227)" fill="#fabf4b"/>
        <path id="패스_348" data-name="패스 348" d="M264.312,107.327a1.544,1.544,0,0,0-.189-.066A1.544,1.544,0,0,1,264.312,107.327Z" transform="translate(-248.967 -99.238)" fill="#fabf4b"/>
        <path id="패스_349" data-name="패스 349" d="M257.725,104.179h1.113l-.364-1.642.3-.828L257.035,97h-2.091Z" transform="translate(-246.946 -97)" fill="#364e9f"/>
        <path id="패스_350" data-name="패스 350" d="M260.625,105.373l-.867-2.349-.3.828.364,1.642h.751Z" transform="translate(-247.939 -98.314)" fill="#364e9f"/>
        <path id="패스_351" data-name="패스 351" d="M260.98,106.149l-.044-.12-.05.12Z" transform="translate(-248.252 -98.97)" fill="#364e9f"/>
        <path id="패스_352" data-name="패스 352" d="M259.44,106.984h.353l-.178-.8H258.5l.311.8Z" transform="translate(-247.728 -99.003)" fill="#364e9f"/>
        <path id="패스_353" data-name="패스 353" d="M260.34,106.984l.336-.8h-.751l.178.8Z" transform="translate(-248.041 -99.003)" fill="#364e9f"/>
        <path id="패스_354" data-name="패스 354" d="M260.456,106.984h.727l-.3-.8h-.095Z" transform="translate(-248.159 -99.003)" fill="#364e9f"/>
        <path id="패스_355" data-name="패스 355" d="M255.545,104.981v-.8h.176L253.094,97h-1.732l2.905,8.07a1.571,1.571,0,0,1,.514-.088Z" transform="translate(-246.154 -97)" fill="#d92634"/>
        <path id="패스_356" data-name="패스 356" d="M256.712,106.183v.8h.469l-.293-.8Z" transform="translate(-247.331 -99.003)" fill="#d92634"/>
        <path id="패스_357" data-name="패스 357" d="M254.646,97h-1.069l2.627,7.179h1.223Z" transform="translate(-246.643 -97)" fill="#fff"/>
        <path id="패스_358" data-name="패스 358" d="M258.471,106.984l-.311-.8h-1.223l.293.8h1.241Z" transform="translate(-247.383 -99.003)" fill="#fff"/>
        <path id="패스_359" data-name="패스 359" d="M259.892,107.266l-.013-.057h-.98l.274.706H261.1l-.239-.649h-.972Z" transform="translate(-247.817 -99.227)" fill="#364e9f"/>
        <path id="패스_360" data-name="패스 360" d="M260.166,107.266h.2l.024-.057h-.237Z" transform="translate(-248.091 -99.227)" fill="#364e9f"/>
        <path id="패스_361" data-name="패스 361" d="M261.138,107.208h-.689l-.024.057h.772l-.021-.057Z" transform="translate(-248.152 -99.227)" fill="#364e9f"/>
        <path id="패스_362" data-name="패스 362" d="M255.538,108.106a1.587,1.587,0,0,1,.76-.192h.785l-.258-.706h-1.233a1.571,1.571,0,0,0-.514.088l.322.9A1.55,1.55,0,0,1,255.538,108.106Z" transform="translate(-246.973 -99.227)" fill="#d92634"/>
        <path id="패스_363" data-name="패스 363" d="M258.826,107.914l-.274-.706h-1.241l.258.706h1.256Z" transform="translate(-247.466 -99.227)" fill="#fff"/>
        <path id="패스_364" data-name="패스 364" d="M258.235,108.111h-2.041a1.587,1.587,0,0,0-.76.192,1.626,1.626,0,0,0-.242.177,1.782,1.782,0,0,0-.135.118,1.678,1.678,0,0,0-.144.179,1.567,1.567,0,0,0-.1.138,1.625,1.625,0,0,0-.1.242c-.016.044-.039.085-.052.131a1.591,1.591,0,0,0-.058.417v1.2a11.729,11.729,0,0,1,3.988-.708c.395,0,.784.02,1.169.059.156.016.309.046.464.067.206.029.415.051.618.09l.062.014c.074.015.146.034.22.05.271.059.538.129.8.206.093.027.186.054.278.084.127.041.252.084.377.13v-1.2a1.568,1.568,0,0,0-.051-.381c-.009-.033-.02-.063-.03-.1a1.637,1.637,0,0,0-.11-.264c-.014-.027-.028-.055-.044-.081a1.6,1.6,0,0,0-.522-.529c-.027-.017-.056-.03-.084-.046a1.571,1.571,0,0,0-.263-.113c-.034-.011-.068-.023-.1-.032a1.565,1.565,0,0,0-.385-.052h-2.749Z" transform="translate(-246.878 -99.424)" fill="none"/>
        <path id="패스_365" data-name="패스 365" d="M264.738,109.662a1.569,1.569,0,0,1,.051.381A1.609,1.609,0,0,0,264.738,109.662Z" transform="translate(-249.102 -99.762)" fill="#fabf4b"/>
        <path id="패스_366" data-name="패스 366" d="M264.559,109.2a1.637,1.637,0,0,1,.11.264A1.637,1.637,0,0,0,264.559,109.2Z" transform="translate(-249.063 -99.662)" fill="#fabf4b"/>
        <path id="패스_367" data-name="패스 367" d="M254.674,109.579c.013-.046.035-.088.052-.131C254.709,109.493,254.687,109.533,254.674,109.579Z" transform="translate(-246.881 -99.715)" fill="#fabf4b"/>
        <path id="패스_368" data-name="패스 368" d="M255.183,108.7a1.779,1.779,0,0,1,.135-.118A1.623,1.623,0,0,0,255.183,108.7Z" transform="translate(-246.994 -99.527)" fill="#fabf4b"/>
        <path id="패스_369" data-name="패스 369" d="M264.357,108.951a1.587,1.587,0,0,0-.522-.529A1.6,1.6,0,0,1,264.357,108.951Z" transform="translate(-248.904 -99.492)" fill="#fabf4b"/>
        <path id="패스_370" data-name="패스 370" d="M263.39,108.219a1.571,1.571,0,0,1,.263.113A1.544,1.544,0,0,0,263.39,108.219Z" transform="translate(-248.805 -99.447)" fill="#fabf4b"/>
        <path id="패스_371" data-name="패스 371" d="M254.874,109.1a1.572,1.572,0,0,1,.1-.138C254.938,109.009,254.9,109.051,254.874,109.1Z" transform="translate(-246.925 -99.61)" fill="#fabf4b"/>
        <path id="패스_372" data-name="패스 372" d="M262.765,108.111a1.565,1.565,0,0,1,.385.052A1.608,1.608,0,0,0,262.765,108.111Z" transform="translate(-248.668 -99.424)" fill="#fabf4b"/>
        <path id="패스_373" data-name="패스 373" d="M265.721,112.044l-.015-.007h0Z" transform="translate(-249.316 -100.28)" fill="#f7d167"/>
        <path id="패스_374" data-name="패스 374" d="M265.663,112.017h0c-.052-.023-.1-.048-.156-.07C265.56,111.97,265.61,111.995,265.663,112.017Z" transform="translate(-249.272 -100.261)" fill="#f7d167"/>
        <path id="패스_375" data-name="패스 375" d="M262.659,111.078c.074.015.146.034.22.05C262.805,111.112,262.733,111.093,262.659,111.078Z" transform="translate(-248.644 -100.071)" fill="#f7d167"/>
        <path id="패스_376" data-name="패스 376" d="M263.965,111.406c.093.027.187.054.278.084C264.151,111.46,264.058,111.433,263.965,111.406Z" transform="translate(-248.932 -100.143)" fill="#f7d167"/>
        <path id="패스_377" data-name="패스 377" d="M261.2,110.859c.156.016.309.046.464.067C261.5,110.905,261.352,110.875,261.2,110.859Z" transform="translate(-248.321 -100.023)" fill="#f7d167"/>
        <path id="패스_378" data-name="패스 378" d="M259.7,110.784c.395,0,.784.021,1.169.059C260.485,110.8,260.1,110.784,259.7,110.784Z" transform="translate(-247.993 -100.007)" fill="#f6f6f6"/>
        <path id="패스_379" data-name="패스 379" d="M262.408,111.035c-.2-.039-.411-.061-.618-.09.206.029.412.055.614.094Z" transform="translate(-248.453 -100.042)" fill="#f6f6f6"/>
        <path id="패스_380" data-name="패스 380" d="M265.353,111.889c-.181-.075-.365-.143-.55-.21v.009C264.987,111.753,265.174,111.813,265.353,111.889Z" transform="translate(-249.118 -100.202)" fill="#fff"/>
        <path id="패스_381" data-name="패스 381" d="M262.94,111.142c.271.059.538.129.8.206C263.478,111.271,263.211,111.2,262.94,111.142Z" transform="translate(-248.707 -100.085)" fill="#fff"/>
        <path id="패스_382" data-name="패스 382" d="M262.641,111.074l-.062-.014,0,0C262.6,111.069,262.619,111.07,262.641,111.074Z" transform="translate(-248.625 -100.067)" fill="#fff"/>
        <path id="패스_383" data-name="패스 383" d="M264.7,111.651v-.009c-.125-.045-.25-.088-.377-.13C264.449,111.554,264.572,111.605,264.7,111.651Z" transform="translate(-249.011 -100.166)" fill="#fff"/>
        <path id="패스_384" data-name="패스 384" d="M264.8,112.628c.187.074.37.154.552.238l.154-.154v-.751c-.052-.023-.1-.048-.156-.07-.179-.075-.367-.135-.55-.2Z" transform="translate(-249.118 -100.204)" fill="#fff"/>
        <path id="패스_385" data-name="패스 385" d="M261.585,111.839a10.813,10.813,0,0,1,2.516.653v-.938c-.126-.046-.249-.1-.377-.138-.091-.03-.185-.056-.278-.084-.263-.077-.531-.147-.8-.206-.073-.016-.145-.035-.22-.05-.022,0-.044-.005-.066-.01Z" transform="translate(-248.412 -100.068)" fill="#fff"/>
        <path id="패스_386" data-name="패스 386" d="M265.355,113.128c-.182-.084-.365-.163-.552-.238v.79Z" transform="translate(-249.118 -100.466)" fill="#fff"/>
        <path id="패스_387" data-name="패스 387" d="M265.663,113.225V113l-.154.154C265.561,113.174,265.611,113.2,265.663,113.225Z" transform="translate(-249.273 -100.49)" fill="#f6f6f6"/>
        <g id="그룹_43" data-name="그룹 43" transform="translate(0 10.516)">
          <g id="그룹_33" data-name="그룹 33">
            <path id="패스_388" data-name="패스 388" d="M245.553,122.217a10.834,10.834,0,0,1,18.509-7.7l.622-.624a11.744,11.744,0,0,0-16.576,16.641l.622-.624A10.874,10.874,0,0,1,245.553,122.217Z" transform="translate(-244.674 -110.45)" fill="#f7d167"/>
            <path id="패스_389" data-name="패스 389" d="M265.658,114.858l-.622.624A10.863,10.863,0,1,1,249.7,130.875l-.622.624a11.744,11.744,0,0,0,16.576-16.641Z" transform="translate(-245.636 -111.412)" fill="#ec9b30"/>
            <path id="패스_390" data-name="패스 390" d="M264.317,114.767a10.893,10.893,0,1,0,3.176,7.7A10.792,10.792,0,0,0,264.317,114.767Zm-7.669,16.521a8.831,8.831,0,1,1,8.794-8.825A8.749,8.749,0,0,1,256.648,131.288Z" transform="translate(-244.92 -110.696)" fill="#fabf4b"/>
            <path id="패스_391" data-name="패스 391" d="M257.982,132.584a8.825,8.825,0,0,0,6.241-15.065l-.624.624a7.943,7.943,0,1,1-11.233,11.232l-.624.624A8.8,8.8,0,0,0,257.982,132.584Z" transform="translate(-246.293 -111.992)" fill="#f7d167"/>
            <path id="패스_392" data-name="패스 392" d="M249.319,123.038a7.942,7.942,0,0,1,13.559-5.616l.624-.624a8.825,8.825,0,1,0-12.481,12.48l.624-.624A7.918,7.918,0,0,1,249.319,123.038Z" transform="translate(-245.495 -111.271)" fill="#ec9b30"/>
            <path id="패스_393" data-name="패스 393" d="M263.058,117.668a7.951,7.951,0,1,0,2.315,5.616A7.859,7.859,0,0,0,263.058,117.668Z" transform="translate(-245.741 -111.517)" fill="#fabf4b"/>
          </g>
          <g id="그룹_41" data-name="그룹 41" transform="translate(4.677 7.584)">
            <g id="그룹_40" data-name="그룹 40">
              <g id="그룹_36" data-name="그룹 36">
                <g id="그룹_34" data-name="그룹 34">
                  <path id="패스_394" data-name="패스 394" d="M251.076,124.1a2.024,2.024,0,0,0,0,.364,1.208,1.208,0,0,0,.161.442.685.685,0,0,0,.218.25c.134.071.193-.052.193-.159a.264.264,0,0,1,0-.034,2.4,2.4,0,0,0-.34-.743c-.074-.143-.187-.371-.187-.371s-.023.069-.026.081A.787.787,0,0,0,251.076,124.1Z" transform="translate(-250.784 -120.958)" fill="#ec9b30"/>
                  <path id="패스_395" data-name="패스 395" d="M251.315,125.454c-.094-.137-.237-.357-.237-.357s-.014.071-.016.084a.7.7,0,0,0,0,.172,2.063,2.063,0,0,0,.045.365,1.27,1.27,0,0,0,.221.429.732.732,0,0,0,.254.232c.145.06.189-.068.175-.175a.188.188,0,0,1-.006-.034A2.579,2.579,0,0,0,251.315,125.454Z" transform="translate(-250.782 -121.229)" fill="#ec9b30"/>
                  <path id="패스_396" data-name="패스 396" d="M251.477,126.687c-.113-.129-.288-.338-.288-.338s0,.073,0,.085a.723.723,0,0,0,.026.173,2.048,2.048,0,0,0,.095.363,1.349,1.349,0,0,0,.282.413.8.8,0,0,0,.289.212c.155.048.182-.086.153-.192a.333.333,0,0,1-.011-.034A2.8,2.8,0,0,0,251.477,126.687Z" transform="translate(-250.81 -121.502)" fill="#ec9b30"/>
                  <path id="패스_397" data-name="패스 397" d="M252.024,125.193a.586.586,0,0,0,.185-.232,1.266,1.266,0,0,0,.143-.393,3.261,3.261,0,0,0,.019-.328.731.731,0,0,0,0-.155c0-.011-.013-.077-.013-.077s-.143.182-.227.3a1.349,1.349,0,0,0-.328.689.245.245,0,0,1,0,.034C251.823,125.141,251.9,125.262,252.024,125.193Z" transform="translate(-250.945 -120.992)" fill="#ec9b30"/>
                  <path id="패스_398" data-name="패스 398" d="M251.807,125.278a.264.264,0,0,0,0,.034A.245.245,0,0,0,251.807,125.278Z" transform="translate(-250.945 -121.269)" fill="#ec9b30"/>
                  <path id="패스_399" data-name="패스 399" d="M252.2,125.461a1.281,1.281,0,0,0-.246.718c0,.011,0,.023.006.034.027.1.124.22.239.14a.558.558,0,0,0,.159-.249,1.216,1.216,0,0,0,.1-.406,2.91,2.91,0,0,0-.021-.329.763.763,0,0,0-.016-.156l-.023-.076S252.266,125.332,252.2,125.461Z" transform="translate(-250.976 -121.238)" fill="#ec9b30"/>
                  <path id="패스_400" data-name="패스 400" d="M251.956,126.5c0-.012,0-.023-.006-.034A.188.188,0,0,0,251.956,126.5Z" transform="translate(-250.977 -121.528)" fill="#ec9b30"/>
                  <path id="패스_401" data-name="패스 401" d="M252.4,126.608a1.232,1.232,0,0,0-.155.743.21.21,0,0,1,.011.034c.042.1.156.21.261.12a.529.529,0,0,0,.127-.264,1.2,1.2,0,0,0,.043-.416,3.153,3.153,0,0,0-.063-.328.8.8,0,0,0-.036-.155l-.033-.074S252.457,126.473,252.4,126.608Z" transform="translate(-251.038 -121.484)" fill="#ec9b30"/>
                  <path id="패스_402" data-name="패스 402" d="M251.854,121.821a3.31,3.31,0,0,1,.109.442,1.831,1.831,0,0,1,.289-.342l.1-.1c.023-.023.048-.049.076-.075a.819.819,0,0,0,.012-.256c0-.127-.032-.241-.045-.365a1,1,0,0,0-.026-.173c0-.005-.009-.024-.016-.042l-.04.023a.906.906,0,0,0-.129.122,2.4,2.4,0,0,0-.256.283.741.741,0,0,0-.13.238l.026.108C251.829,121.73,251.84,121.775,251.854,121.821Z" transform="translate(-250.942 -120.317)" fill="#ec9b30"/>
                  <path id="패스_403" data-name="패스 403" d="M252.934,129.065a.211.211,0,0,1-.169-.031.127.127,0,0,1-.1.1h0a.238.238,0,0,1-.11,0,.454.454,0,0,1-.059-.016l.007.022.1.068a5.074,5.074,0,0,1,.444.319,1.4,1.4,0,0,1,0-.443c0-.032.009-.064.012-.095l-.014-.019a.245.245,0,0,1-.03.039A.175.175,0,0,1,252.934,129.065Z" transform="translate(-251.096 -122.075)" fill="#ec9b30"/>
                  <path id="패스_404" data-name="패스 404" d="M252.211,128.267c-.13-.121-.274-.235-.406-.354s-.338-.315-.338-.315,0,.074.006.086a.749.749,0,0,0,.051.172,2.094,2.094,0,0,0,.146.357,1.469,1.469,0,0,0,.344.391,1.745,1.745,0,0,0,.178.128.492.492,0,0,0,.145.059c.163.034.171-.1.127-.206a.338.338,0,0,1-.016-.034A1.235,1.235,0,0,0,252.211,128.267Z" transform="translate(-250.871 -121.775)" fill="#ec9b30"/>
                  <path id="패스_405" data-name="패스 405" d="M252.71,128.505a.279.279,0,0,1,.016.034c.057.1.188.2.281.1a.286.286,0,0,0,.059-.108,1.191,1.191,0,0,0,.032-.17,1.219,1.219,0,0,0-.015-.422,3.364,3.364,0,0,0-.109-.324.784.784,0,0,0-.058-.152l-.042-.072s-.074.216-.112.357a2.571,2.571,0,0,0-.095.434A.7.7,0,0,0,252.71,128.505Z" transform="translate(-251.133 -121.729)" fill="#ec9b30"/>
                  <path id="패스_406" data-name="패스 406" d="M252.035,123.294l.063-.073V123.2a.344.344,0,0,1-.045.022.19.19,0,0,1-.094.011.151.151,0,0,1-.114-.09.147.147,0,0,1-.135.049h0a.179.179,0,0,1-.086-.041.354.354,0,0,1-.038-.038l-.007.02c.013.032.026.064.039.1a3.3,3.3,0,0,1,.163.432A1.757,1.757,0,0,1,252.035,123.294Z" transform="translate(-250.895 -120.796)" fill="#ec9b30"/>
                  <path id="패스_407" data-name="패스 407" d="M251.946,124.4a.191.191,0,0,1-.095.02.161.161,0,0,1-.127-.081.148.148,0,0,1-.132.06h0a.2.2,0,0,1-.093-.034.361.361,0,0,1-.044-.035l0,.02c.016.03.034.062.052.093a3.422,3.422,0,0,1,.219.418,1.622,1.622,0,0,1,.217-.386c.019-.026.037-.052.055-.078l0-.021A.35.35,0,0,1,251.946,124.4Z" transform="translate(-250.868 -121.062)" fill="#ec9b30"/>
                  <path id="패스_408" data-name="패스 408" d="M251.81,126.063a1.517,1.517,0,0,1,.173-.4l.045-.084-.005-.021a.233.233,0,0,1-.041.029.187.187,0,0,1-.094.027.174.174,0,0,1-.14-.07.146.146,0,0,1-.127.072h0a.2.2,0,0,1-.1-.027.307.307,0,0,1-.049-.031l0,.021c.02.029.041.059.064.089A3.622,3.622,0,0,1,251.81,126.063Z" transform="translate(-250.872 -121.326)" fill="#ec9b30"/>
                  <path id="패스_409" data-name="패스 409" d="M252.217,126.747l-.009-.02a.294.294,0,0,1-.038.033.192.192,0,0,1-.092.035.185.185,0,0,1-.151-.058.141.141,0,0,1-.12.084h0a.236.236,0,0,1-.1-.019.35.35,0,0,1-.054-.027v.021l.077.084a3.9,3.9,0,0,1,.334.378,1.443,1.443,0,0,1,.12-.422C252.193,126.806,252.2,126.776,252.217,126.747Z" transform="translate(-250.911 -121.585)" fill="#ec9b30"/>
                  <path id="패스_410" data-name="패스 410" d="M252.432,127.966a.2.2,0,0,1-.161-.045.134.134,0,0,1-.109.095h0a.232.232,0,0,1-.109-.009.383.383,0,0,1-.058-.023l0,.021c.029.026.059.052.089.077a4.533,4.533,0,0,1,.391.35,1.4,1.4,0,0,1,.063-.435c.009-.03.016-.062.024-.091l-.012-.02a.249.249,0,0,1-.034.036A.193.193,0,0,1,252.432,127.966Z" transform="translate(-250.986 -121.838)" fill="#ec9b30"/>
                  <path id="패스_411" data-name="패스 411" d="M251.812,122.255c-.034-.149-.084-.3-.121-.446s-.091-.392-.091-.392-.036.064-.041.075a.918.918,0,0,0-.054.164,2.341,2.341,0,0,0-.081.356,1.2,1.2,0,0,0,.049.454,1.108,1.108,0,0,0,.066.171.324.324,0,0,0,.081.106c.108.09.192-.02.216-.123,0-.012,0-.023.006-.034A1,1,0,0,0,251.812,122.255Z" transform="translate(-250.861 -120.426)" fill="#ec9b30"/>
                  <path id="패스_412" data-name="패스 412" d="M251.433,123.007c-.055-.149-.138-.383-.138-.383s-.03.066-.034.078a.744.744,0,0,0-.037.168,2.073,2.073,0,0,0-.043.36,1.186,1.186,0,0,0,.1.45.636.636,0,0,0,.182.265c.091.061.155.009.186-.065a.321.321,0,0,0,.02-.076.249.249,0,0,1,0-.034,2.2,2.2,0,0,0-.235-.744Z" transform="translate(-250.809 -120.69)" fill="#ec9b30"/>
                  <path id="패스_413" data-name="패스 413" d="M252.106,122.376a.816.816,0,0,0-.15.29.188.188,0,0,1-.006.034c-.012.106.036.235.165.188a.365.365,0,0,0,.107-.068,1.373,1.373,0,0,0,.119-.129,1.357,1.357,0,0,0,.221-.361,3.191,3.191,0,0,0,.09-.317.817.817,0,0,0,.036-.152c0-.011,0-.077,0-.077s-.172.157-.278.263A3.852,3.852,0,0,0,252.106,122.376Z" transform="translate(-250.976 -120.506)" fill="#ec9b30"/>
                  <path id="패스_414" data-name="패스 414" d="M251.95,122.947a.188.188,0,0,0,.006-.034C251.954,122.924,251.952,122.936,251.95,122.947Z" transform="translate(-250.977 -120.753)" fill="#ec9b30"/>
                  <path id="패스_415" data-name="패스 415" d="M251.821,123.939c.023.08.084.142.18.1a.608.608,0,0,0,.208-.215,1.3,1.3,0,0,0,.185-.378,3.216,3.216,0,0,0,.056-.324.769.769,0,0,0,.02-.154c0-.011,0-.077,0-.077s-.159.168-.254.284l-.015.017a1.37,1.37,0,0,0-.384.639c0,.011,0,.023,0,.034A.283.283,0,0,0,251.821,123.939Z" transform="translate(-250.946 -120.747)" fill="#ec9b30"/>
                  <path id="패스_416" data-name="패스 416" d="M251.813,124.09a.249.249,0,0,0,0,.034C251.812,124.113,251.813,124.1,251.813,124.09Z" transform="translate(-250.946 -121.009)" fill="#ec9b30"/>
                  <path id="패스_417" data-name="패스 417" d="M253.376,129.958l-.006-.009.006.009Z" transform="translate(-251.286 -122.288)" fill="#ec9b30"/>
                  <path id="패스_418" data-name="패스 418" d="M253.376,129.958l-.006-.009.006.009Z" transform="translate(-251.286 -122.288)" fill="#ec9b30"/>
                  <path id="패스_419" data-name="패스 419" d="M253.376,129.958l-.006-.009.006.009Z" transform="translate(-251.286 -122.288)" fill="#ec9b30"/>
                  <path id="패스_420" data-name="패스 420" d="M253.378,129.96h0Z" transform="translate(-251.288 -122.29)" fill="#ec9b30"/>
                  <path id="패스_421" data-name="패스 421" d="M253.377,129.96Z" transform="translate(-251.288 -122.29)" fill="#ec9b30"/>
                  <path id="패스_422" data-name="패스 422" d="M253.378,129.96h0a.168.168,0,0,0,.016.024.253.253,0,0,0-.016-.024Z" transform="translate(-251.288 -122.29)" fill="#ec9b30"/>
                  <path id="패스_423" data-name="패스 423" d="M253.059,129.714l-.005-.009a3.22,3.22,0,0,0-.723-.569l-.023-.016-.387-.288s.016.074.02.086a.777.777,0,0,0,.076.169,2.282,2.282,0,0,0,.2.347,1.615,1.615,0,0,0,.406.364.96.96,0,0,0,.355.16.2.2,0,0,0,.053,0c.081-.01.1-.074.077-.142a.282.282,0,0,0-.033-.078.166.166,0,0,1-.016-.024Z" transform="translate(-250.97 -122.044)" fill="#ec9b30"/>
                  <path id="패스_424" data-name="패스 424" d="M253.393,129.984l-.016-.024Z" transform="translate(-251.288 -122.29)" fill="#ec9b30"/>
                  <path id="패스_425" data-name="패스 425" d="M253.4,128.56c-.007-.01-.053-.068-.053-.068s-.046.221-.063.368l0,.021a1.156,1.156,0,0,0,.061.75l.006.009h0a.257.257,0,0,1,.016.024.39.39,0,0,0,.066.068.182.182,0,0,0,.188.043.127.127,0,0,0,.045-.038.515.515,0,0,0,.05-.289,1.29,1.29,0,0,0-.077-.424c-.041-.111-.106-.21-.157-.317A.85.85,0,0,0,253.4,128.56Z" transform="translate(-251.26 -121.97)" fill="#ec9b30"/>
                  <path id="패스_426" data-name="패스 426" d="M253.394,129.984l-.016-.024Z" transform="translate(-251.288 -122.29)" fill="#ec9b30"/>
                  <path id="패스_427" data-name="패스 427" d="M253.211,121.08l-.013-.006c-.1.2-.145.3-.244.5l.014.006C253.067,121.379,253.115,121.28,253.211,121.08Z" transform="translate(-251.196 -120.352)" fill="#ec9b30"/>
                  <path id="패스_428" data-name="패스 428" d="M251.692,121.155c.02-.22.03-.33.051-.55l-.015,0c-.021.22-.031.33-.052.55Z" transform="translate(-250.917 -120.249)" fill="#ec9b30"/>
                  <path id="패스_429" data-name="패스 429" d="M252.532,120.693c.046-.216.07-.324.116-.54l-.015,0-.115.539Z" transform="translate(-251.1 -120.15)" fill="#ec9b30"/>
                  <path id="패스_430" data-name="패스 430" d="M251.34,122.422c-.025-.222-.037-.333-.059-.554h-.016c.022.221.034.332.059.554Z" transform="translate(-250.827 -120.525)" fill="#ec9b30"/>
                  <path id="패스_431" data-name="패스 431" d="M251.1,123.643c-.072-.217-.106-.325-.174-.543l-.016,0c.067.217.1.325.174.543Z" transform="translate(-250.749 -120.794)" fill="#ec9b30"/>
                  <path id="패스_432" data-name="패스 432" d="M250.728,124.371c.112.207.169.31.285.516l.015-.005c-.117-.206-.174-.309-.285-.516Z" transform="translate(-250.71 -121.07)" fill="#ec9b30"/>
                  <path id="패스_433" data-name="패스 433" d="M251.105,126.134c-.157-.19-.235-.286-.386-.478l-.014.008c.152.192.229.288.387.478Z" transform="translate(-250.705 -121.351)" fill="#ec9b30"/>
                  <path id="패스_434" data-name="패스 434" d="M251.339,127.414c-.21-.157-.314-.237-.521-.4l-.012.01c.206.161.31.241.521.4Z" transform="translate(-250.727 -121.648)" fill="#ec9b30"/>
                  <path id="패스_435" data-name="패스 435" d="M251.756,128.663l.012-.011c-.22-.155-.328-.234-.543-.392l-.012.01C251.428,128.43,251.537,128.508,251.756,128.663Z" transform="translate(-250.816 -121.919)" fill="#ec9b30"/>
                  <path id="패스_436" data-name="패스 436" d="M252.964,122.23l-.014-.006c-.1.2-.148.3-.249.5l.015.006C252.816,122.528,252.866,122.429,252.964,122.23Z" transform="translate(-251.14 -120.602)" fill="#ec9b30"/>
                  <path id="패스_437" data-name="패스 437" d="M252.584,123.846c.1-.2.152-.3.252-.5l-.014-.006c-.1.2-.15.3-.253.5Z" transform="translate(-251.112 -120.847)" fill="#ec9b30"/>
                  <path id="패스_438" data-name="패스 438" d="M252.573,124.858c.1-.2.153-.3.253-.5l-.015-.006c-.1.2-.151.3-.253.5Z" transform="translate(-251.109 -121.067)" fill="#ec9b30"/>
                  <path id="패스_439" data-name="패스 439" d="M252.95,125.553l-.016-.007c-.1.2-.151.3-.253.5l.016.006C252.8,125.852,252.85,125.752,252.95,125.553Z" transform="translate(-251.136 -121.327)" fill="#ec9b30"/>
                  <path id="패스_440" data-name="패스 440" d="M253.223,126.639l-.016-.006c-.1.2-.15.3-.253.5l.016.006C253.074,126.939,253.124,126.839,253.223,126.639Z" transform="translate(-251.196 -121.564)" fill="#ec9b30"/>
                  <path id="패스_441" data-name="패스 441" d="M253.644,127.707l-.016-.006c-.1.2-.148.3-.249.5l.017.006C253.5,128.009,253.546,127.909,253.644,127.707Z" transform="translate(-251.288 -121.797)" fill="#ec9b30"/>
                  <path id="패스_442" data-name="패스 442" d="M254.788,131.756a11.553,11.553,0,0,1-1.106-1.566.183.183,0,0,1-.188-.043.394.394,0,0,1-.067-.068.311.311,0,0,1,.034.078c.018.068,0,.132-.077.142a11.8,11.8,0,0,0,1.081,1.551l.023.027C254.671,132.1,254.96,131.961,254.788,131.756Z" transform="translate(-251.289 -122.316)" fill="#ec9b30"/>
                </g>
                <g id="그룹_35" data-name="그룹 35" transform="translate(1.21 5.866)">
                  <path id="패스_443" data-name="패스 443" d="M252.263,127.687a.21.21,0,0,0-.011-.034A.336.336,0,0,0,252.263,127.687Z" transform="translate(-252.252 -127.653)" fill="#ec9b30"/>
                  <path id="패스_444" data-name="패스 444" d="M252.739,128.851a.278.278,0,0,0-.016-.034A.34.34,0,0,0,252.739,128.851Z" transform="translate(-252.355 -127.907)" fill="#ec9b30"/>
                </g>
              </g>
              <g id="그룹_39" data-name="그룹 39" transform="translate(10.55)">
                <g id="그룹_37" data-name="그룹 37">
                  <path id="패스_445" data-name="패스 445" d="M268.209,124.1a2.026,2.026,0,0,1,0,.364,1.208,1.208,0,0,1-.161.442.685.685,0,0,1-.218.25c-.134.071-.193-.052-.193-.159a.259.259,0,0,0,0-.034,2.4,2.4,0,0,1,.34-.743c.074-.143.187-.371.187-.371s.023.069.025.081A.744.744,0,0,1,268.209,124.1Z" transform="translate(-264.949 -120.958)" fill="#ec9b30"/>
                  <path id="패스_446" data-name="패스 446" d="M267.935,125.454c.094-.137.237-.357.237-.357s.014.071.016.084a.743.743,0,0,1,0,.172,2.065,2.065,0,0,1-.046.365,1.254,1.254,0,0,1-.221.429.732.732,0,0,1-.254.232c-.145.06-.189-.068-.175-.175a.3.3,0,0,0,.006-.034A2.579,2.579,0,0,1,267.935,125.454Z" transform="translate(-264.916 -121.229)" fill="#ec9b30"/>
                  <path id="패스_447" data-name="패스 447" d="M267.731,126.687c.113-.129.288-.338.288-.338s0,.073,0,.085a.764.764,0,0,1-.026.173,2.121,2.121,0,0,1-.095.363,1.363,1.363,0,0,1-.282.413.8.8,0,0,1-.289.212c-.156.048-.182-.086-.154-.192a.349.349,0,0,0,.012-.034A2.786,2.786,0,0,1,267.731,126.687Z" transform="translate(-264.846 -121.502)" fill="#ec9b30"/>
                  <path id="패스_448" data-name="패스 448" d="M267.263,125.193a.6.6,0,0,1-.186-.232,1.284,1.284,0,0,1-.142-.393,3.047,3.047,0,0,1-.019-.328.73.73,0,0,1,0-.155c0-.011.013-.077.013-.077s.142.182.227.3a1.349,1.349,0,0,1,.328.689.247.247,0,0,0,0,.034C267.465,125.141,267.385,125.262,267.263,125.193Z" transform="translate(-264.79 -120.992)" fill="#ec9b30"/>
                  <path id="패스_449" data-name="패스 449" d="M267.639,125.278a.259.259,0,0,1,0,.034A.247.247,0,0,1,267.639,125.278Z" transform="translate(-264.949 -121.269)" fill="#ec9b30"/>
                  <path id="패스_450" data-name="패스 450" d="M267.111,125.461a1.282,1.282,0,0,1,.246.718.244.244,0,0,0-.006.034c-.027.1-.124.22-.239.14a.557.557,0,0,1-.159-.249,1.215,1.215,0,0,1-.1-.406,3.1,3.1,0,0,1,.02-.329.76.76,0,0,1,.016-.156c0-.011.023-.071.023-.076S267.041,125.332,267.111,125.461Z" transform="translate(-264.779 -121.238)" fill="#ec9b30"/>
                  <path id="패스_451" data-name="패스 451" d="M267.489,126.5a.24.24,0,0,1,.006-.034A.3.3,0,0,1,267.489,126.5Z" transform="translate(-264.916 -121.528)" fill="#ec9b30"/>
                  <path id="패스_452" data-name="패스 452" d="M266.916,126.608a1.232,1.232,0,0,1,.155.743.21.21,0,0,0-.012.034c-.041.1-.156.21-.261.12a.535.535,0,0,1-.127-.264,1.2,1.2,0,0,1-.044-.416,3.172,3.172,0,0,1,.064-.328.749.749,0,0,1,.036-.155l.033-.074S266.86,126.473,266.916,126.608Z" transform="translate(-264.728 -121.484)" fill="#ec9b30"/>
                  <path id="패스_453" data-name="패스 453" d="M267.413,121.821a3.2,3.2,0,0,0-.109.442,1.807,1.807,0,0,0-.289-.342l-.095-.1-.076-.075a.819.819,0,0,1-.012-.256c0-.127.032-.241.045-.365a1,1,0,0,1,.026-.173c0-.005.009-.024.016-.042l.04.023a.906.906,0,0,1,.129.122,2.4,2.4,0,0,1,.256.283.724.724,0,0,1,.131.238l-.027.108Q267.432,121.752,267.413,121.821Z" transform="translate(-264.772 -120.317)" fill="#ec9b30"/>
                  <path id="패스_454" data-name="패스 454" d="M266.355,129.065a.211.211,0,0,0,.169-.031.127.127,0,0,0,.1.1h0a.238.238,0,0,0,.11,0,.453.453,0,0,0,.059-.016l-.007.022-.1.068a5.1,5.1,0,0,0-.445.319,1.36,1.36,0,0,0,0-.443l-.012-.095.014-.019a.309.309,0,0,0,.03.039A.175.175,0,0,0,266.355,129.065Z" transform="translate(-264.641 -122.075)" fill="#ec9b30"/>
                  <path id="패스_455" data-name="패스 455" d="M266.951,128.267c.131-.121.275-.235.407-.354s.338-.315.338-.315-.005.074-.007.086a.747.747,0,0,1-.05.172,2.162,2.162,0,0,1-.146.357,1.5,1.5,0,0,1-.344.391,1.744,1.744,0,0,1-.178.128.492.492,0,0,1-.145.059c-.163.034-.171-.1-.127-.206a.345.345,0,0,0,.016-.034A1.25,1.25,0,0,1,266.951,128.267Z" transform="translate(-264.739 -121.775)" fill="#ec9b30"/>
                  <path id="패스_456" data-name="패스 456" d="M266.612,128.505a.283.283,0,0,0-.016.034c-.058.1-.188.2-.281.1a.284.284,0,0,1-.059-.108,1.194,1.194,0,0,1-.032-.17,1.219,1.219,0,0,1,.014-.422c.024-.112.074-.214.109-.324a.831.831,0,0,1,.057-.152l.043-.072s.074.216.112.357a2.646,2.646,0,0,1,.094.434A.7.7,0,0,1,266.612,128.505Z" transform="translate(-264.638 -121.729)" fill="#ec9b30"/>
                  <path id="패스_457" data-name="패스 457" d="M267.267,123.294l-.063-.073V123.2a.346.346,0,0,0,.045.022.189.189,0,0,0,.094.011.151.151,0,0,0,.114-.09.147.147,0,0,0,.135.049h0a.183.183,0,0,0,.086-.041.446.446,0,0,0,.038-.038l.006.02c-.012.032-.025.064-.038.1a3.415,3.415,0,0,0-.163.432A1.725,1.725,0,0,0,267.267,123.294Z" transform="translate(-264.854 -120.796)" fill="#ec9b30"/>
                  <path id="패스_458" data-name="패스 458" d="M267.35,124.4a.191.191,0,0,0,.095.02.161.161,0,0,0,.127-.081.148.148,0,0,0,.132.06h0a.2.2,0,0,0,.093-.034.36.36,0,0,0,.044-.035l0,.02c-.016.03-.033.062-.051.093a3.424,3.424,0,0,0-.219.418,1.621,1.621,0,0,0-.217-.386l-.055-.078,0-.021A.346.346,0,0,0,267.35,124.4Z" transform="translate(-264.876 -121.062)" fill="#ec9b30"/>
                  <path id="패스_459" data-name="패스 459" d="M267.481,126.063a1.542,1.542,0,0,0-.173-.4l-.045-.084.005-.021a.233.233,0,0,0,.041.029.187.187,0,0,0,.094.027.174.174,0,0,0,.14-.07.145.145,0,0,0,.127.072h0a.208.208,0,0,0,.1-.027.345.345,0,0,0,.049-.031l0,.021-.064.089A3.624,3.624,0,0,0,267.481,126.063Z" transform="translate(-264.867 -121.326)" fill="#ec9b30"/>
                  <path id="패스_460" data-name="패스 460" d="M267.072,126.747l.009-.02a.251.251,0,0,0,.038.033.193.193,0,0,0,.091.035.183.183,0,0,0,.151-.058.142.142,0,0,0,.12.084h0a.237.237,0,0,0,.1-.019.351.351,0,0,0,.054-.027l0,.021c-.024.027-.05.056-.077.084a4,4,0,0,0-.333.378,1.467,1.467,0,0,0-.12-.422C267.1,126.806,267.084,126.776,267.072,126.747Z" transform="translate(-264.826 -121.585)" fill="#ec9b30"/>
                  <path id="패스_461" data-name="패스 461" d="M266.856,127.966a.2.2,0,0,0,.161-.045.133.133,0,0,0,.109.095h0a.229.229,0,0,0,.108-.009.362.362,0,0,0,.059-.023l0,.021-.089.077a4.533,4.533,0,0,0-.391.35,1.4,1.4,0,0,0-.063-.435c-.009-.03-.016-.062-.024-.091l.011-.02a.38.38,0,0,0,.034.036A.2.2,0,0,0,266.856,127.966Z" transform="translate(-264.749 -121.838)" fill="#ec9b30"/>
                  <path id="패스_462" data-name="패스 462" d="M267.516,122.255c.034-.149.084-.3.12-.446s.092-.392.092-.392.036.064.041.075a.856.856,0,0,1,.053.164,2.256,2.256,0,0,1,.082.356,1.184,1.184,0,0,1-.05.454,1.105,1.105,0,0,1-.065.171.335.335,0,0,1-.081.106c-.108.09-.192-.02-.216-.123,0-.012,0-.023-.006-.034A.981.981,0,0,1,267.516,122.255Z" transform="translate(-264.915 -120.426)" fill="#ec9b30"/>
                  <path id="패스_463" data-name="패스 463" d="M267.876,123.007c.055-.149.138-.383.138-.383s.03.066.034.078a.743.743,0,0,1,.037.168,2.144,2.144,0,0,1,.043.36,1.2,1.2,0,0,1-.1.45.637.637,0,0,1-.182.265c-.091.061-.156.009-.186-.065a.287.287,0,0,1-.02-.076.243.243,0,0,0,0-.034,2.224,2.224,0,0,1,.236-.744Z" transform="translate(-264.948 -120.69)" fill="#ec9b30"/>
                  <path id="패스_464" data-name="패스 464" d="M267.133,122.377a.8.8,0,0,1,.151.289.188.188,0,0,0,.006.034c.012.106-.036.235-.165.188a.355.355,0,0,1-.107-.068,1.505,1.505,0,0,1-.34-.49,3.2,3.2,0,0,1-.09-.317.816.816,0,0,1-.036-.152c0-.011,0-.077,0-.077s.172.157.278.263A3.744,3.744,0,0,1,267.133,122.377Z" transform="translate(-264.711 -120.506)" fill="#ec9b30"/>
                  <path id="패스_465" data-name="패스 465" d="M267.5,122.947a.185.185,0,0,1-.006-.034C267.491,122.924,267.494,122.936,267.5,122.947Z" transform="translate(-264.916 -120.753)" fill="#ec9b30"/>
                  <path id="패스_466" data-name="패스 466" d="M267.442,123.939c-.023.08-.084.142-.18.1a.61.61,0,0,1-.209-.215,1.322,1.322,0,0,1-.184-.378,3.225,3.225,0,0,1-.056-.324.769.769,0,0,1-.02-.154c0-.011,0-.077,0-.077s.16.168.255.284l.014.017a1.358,1.358,0,0,1,.384.639.264.264,0,0,0,0,.034A.282.282,0,0,1,267.442,123.939Z" transform="translate(-264.765 -120.747)" fill="#ec9b30"/>
                  <path id="패스_467" data-name="패스 467" d="M267.633,124.09a.243.243,0,0,1,0,.034A.265.265,0,0,1,267.633,124.09Z" transform="translate(-264.948 -121.009)" fill="#ec9b30"/>
                  <path id="패스_468" data-name="패스 468" d="M266.07,129.958l.006-.009-.006.009Z" transform="translate(-264.607 -122.288)" fill="#ec9b30"/>
                  <path id="패스_469" data-name="패스 469" d="M266.069,129.958l.006-.009-.006.009Z" transform="translate(-264.607 -122.288)" fill="#ec9b30"/>
                  <path id="패스_470" data-name="패스 470" d="M266.069,129.958l.006-.009-.006.009Z" transform="translate(-264.607 -122.288)" fill="#ec9b30"/>
                  <path id="패스_471" data-name="패스 471" d="M266.069,129.96Z" transform="translate(-264.607 -122.29)" fill="#ec9b30"/>
                  <path id="패스_472" data-name="패스 472" d="M266.07,129.96Z" transform="translate(-264.607 -122.29)" fill="#ec9b30"/>
                  <path id="패스_473" data-name="패스 473" d="M266.065,129.96h0a.268.268,0,0,1-.016.024.253.253,0,0,1,.016-.024Z" transform="translate(-264.602 -122.29)" fill="#ec9b30"/>
                  <path id="패스_474" data-name="패스 474" d="M266.054,129.714l.005-.009a3.221,3.221,0,0,1,.723-.569l.023-.016.387-.288s-.016.074-.02.086a.775.775,0,0,1-.076.169,2.282,2.282,0,0,1-.2.347,1.614,1.614,0,0,1-.406.364.96.96,0,0,1-.355.16.208.208,0,0,1-.054,0c-.081-.01-.095-.074-.077-.142a.31.31,0,0,1,.034-.078.268.268,0,0,0,.016-.024Z" transform="translate(-264.591 -122.044)" fill="#ec9b30"/>
                  <path id="패스_475" data-name="패스 475" d="M266.049,129.984l.016-.024Z" transform="translate(-264.602 -122.29)" fill="#ec9b30"/>
                  <path id="패스_476" data-name="패스 476" d="M265.916,128.56l.054-.068s.046.221.063.368l0,.021a1.157,1.157,0,0,1-.061.75l-.006.009h0a.257.257,0,0,0-.016.024.4.4,0,0,1-.067.068.181.181,0,0,1-.188.043.132.132,0,0,1-.044-.038.515.515,0,0,1-.05-.289,1.29,1.29,0,0,1,.077-.424c.041-.111.106-.21.157-.317A.847.847,0,0,1,265.916,128.56Z" transform="translate(-264.505 -121.97)" fill="#ec9b30"/>
                  <path id="패스_477" data-name="패스 477" d="M266.049,129.984l.016-.024Z" transform="translate(-264.602 -122.29)" fill="#ec9b30"/>
                  <path id="패스_478" data-name="패스 478" d="M266.164,121.08l.013-.006c.1.2.145.3.244.5l-.014.006C266.309,121.379,266.26,121.28,266.164,121.08Z" transform="translate(-264.627 -120.352)" fill="#ec9b30"/>
                  <path id="패스_479" data-name="패스 479" d="M267.737,121.155c-.02-.22-.03-.33-.051-.55l.015,0c.021.22.031.33.051.55Z" transform="translate(-264.959 -120.249)" fill="#ec9b30"/>
                  <path id="패스_480" data-name="패스 480" d="M266.878,120.693c-.045-.216-.069-.324-.115-.54l.015,0,.115.539Z" transform="translate(-264.758 -120.15)" fill="#ec9b30"/>
                  <path id="패스_481" data-name="패스 481" d="M268.086,122.422c.025-.222.037-.333.059-.554h.016c-.022.221-.034.332-.059.554Z" transform="translate(-265.047 -120.525)" fill="#ec9b30"/>
                  <path id="패스_482" data-name="패스 482" d="M268.3,123.643c.071-.217.106-.325.174-.543l.016,0c-.067.217-.1.325-.174.543Z" transform="translate(-265.093 -120.794)" fill="#ec9b30"/>
                  <path id="패스_483" data-name="패스 483" d="M268.634,124.371c-.111.207-.168.31-.285.516l-.015-.005c.117-.206.174-.309.285-.516Z" transform="translate(-265.101 -121.07)" fill="#ec9b30"/>
                  <path id="패스_484" data-name="패스 484" d="M268.229,126.134c.158-.19.235-.286.387-.478l.014.008c-.152.192-.229.288-.387.478Z" transform="translate(-265.078 -121.351)" fill="#ec9b30"/>
                  <path id="패스_485" data-name="패스 485" d="M267.958,127.414c.211-.157.315-.237.521-.4l.011.01c-.206.161-.31.241-.521.4Z" transform="translate(-265.019 -121.648)" fill="#ec9b30"/>
                  <path id="패스_486" data-name="패스 486" d="M267.535,128.663l-.011-.011c.22-.155.328-.234.543-.392l.012.01C267.864,128.43,267.755,128.508,267.535,128.663Z" transform="translate(-264.924 -121.919)" fill="#ec9b30"/>
                  <path id="패스_487" data-name="패스 487" d="M266.409,122.23l.014-.006c.1.2.149.3.249.5l-.015.006C266.558,122.528,266.508,122.429,266.409,122.23Z" transform="translate(-264.681 -120.602)" fill="#ec9b30"/>
                  <path id="패스_488" data-name="패스 488" d="M266.789,123.846c-.1-.2-.152-.3-.253-.5l.015-.006c.1.2.15.3.253.5Z" transform="translate(-264.709 -120.847)" fill="#ec9b30"/>
                  <path id="패스_489" data-name="패스 489" d="M266.8,124.858c-.1-.2-.152-.3-.253-.5l.016-.006c.1.2.151.3.253.5Z" transform="translate(-264.711 -121.067)" fill="#ec9b30"/>
                  <path id="패스_490" data-name="패스 490" d="M266.422,125.553l.015-.007c.1.2.152.3.254.5l-.016.006C266.573,125.852,266.522,125.752,266.422,125.553Z" transform="translate(-264.684 -121.327)" fill="#ec9b30"/>
                  <path id="패스_491" data-name="패스 491" d="M266.149,126.639l.016-.006c.1.2.15.3.252.5l-.016.006C266.3,126.939,266.248,126.839,266.149,126.639Z" transform="translate(-264.624 -121.564)" fill="#ec9b30"/>
                  <path id="패스_492" data-name="패스 492" d="M265.729,127.707l.016-.006c.1.2.148.3.249.5l-.017.006C265.877,128.009,265.827,127.909,265.729,127.707Z" transform="translate(-264.533 -121.797)" fill="#ec9b30"/>
                  <path id="패스_493" data-name="패스 493" d="M264.251,131.756a11.507,11.507,0,0,0,1.107-1.566.183.183,0,0,0,.188-.043.426.426,0,0,0,.067-.068.31.31,0,0,0-.034.078c-.018.068,0,.132.077.142a11.8,11.8,0,0,1-1.081,1.551l-.023.027C264.369,132.1,264.079,131.961,264.251,131.756Z" transform="translate(-264.199 -122.316)" fill="#ec9b30"/>
                </g>
                <g id="그룹_38" data-name="그룹 38" transform="translate(1.958 5.866)">
                  <path id="패스_494" data-name="패스 494" d="M267.18,127.687a.213.213,0,0,1,.012-.034A.349.349,0,0,1,267.18,127.687Z" transform="translate(-266.807 -127.653)" fill="#ec9b30"/>
                  <path id="패스_495" data-name="패스 495" d="M266.7,128.851a.278.278,0,0,1,.016-.034A.347.347,0,0,1,266.7,128.851Z" transform="translate(-266.703 -127.907)" fill="#ec9b30"/>
                </g>
              </g>
            </g>
          </g>
          <path id="패스_496" data-name="패스 496" d="M257.951,121.825h-1.181v-1.876h3.343v6.81h1.38v1.889h-4.91v-1.889h1.368Z" transform="translate(-247.311 -112.522)" fill="#dd8f31"/>
          <path id="패스_497" data-name="패스 497" d="M256.734,128.564V126.91H258.1v-5.169h-1.181V120.1h3.108v6.81h1.38v1.654Z" transform="translate(-247.343 -112.555)" fill="#b24b06"/>
          <g id="그룹_42" data-name="그룹 42" transform="translate(0.216 0.216)" style="mix-blend-mode: multiply;isolation: isolate">
            <path id="패스_498" data-name="패스 498" d="M258.751,110.726l-13.8,13.8a11.664,11.664,0,0,0,1,2.959l15.762-15.762A11.7,11.7,0,0,0,258.751,110.726Z" transform="translate(-244.95 -110.726)" fill="#fff"/>
          </g>
        </g>
      </g>
    </g>
  </g>
</svg>
