<svg xmlns="http://www.w3.org/2000/svg" xmlns:xlink="http://www.w3.org/1999/xlink" width="23.357" height="33.25" viewBox="0 0 23.357 33.25">
  <defs>
    <linearGradient id="linear-gradient" x1="-11.43" y1="0.5" x2="-11.364" y2="0.5" gradientUnits="objectBoundingBox">
      <stop offset="0" stop-color="#5c5c5c"/>
      <stop offset="0.757" stop-color="#514c4f"/>
    </linearGradient>
  </defs>
  <g id="그룹_267" data-name="그룹 267" transform="translate(-283.291 -97)">
    <path id="패스_499" data-name="패스 499" d="M303,97h0l-2.265,6Z" transform="translate(-3.907)" fill="none"/>
    <path id="패스_500" data-name="패스 500" d="M301.292,107.208a1.561,1.561,0,0,1,.354.041A1.561,1.561,0,0,0,301.292,107.208Z" transform="translate(-4.032 -2.287)" fill="none"/>
    <path id="패스_501" data-name="패스 501" d="M292.364,109.379a1.61,1.61,0,0,1,.1-.24A1.576,1.576,0,0,0,292.364,109.379Z" transform="translate(-2.032 -2.719)" fill="none"/>
    <path id="패스_502" data-name="패스 502" d="M301.352,108.363c.028.016.057.029.084.046C301.409,108.392,301.38,108.379,301.352,108.363Z" transform="translate(-4.046 -2.545)" fill="none"/>
    <path id="패스_503" data-name="패스 503" d="M293.085,108.442c-.039.026-.068.062-.1.091a1.579,1.579,0,0,1,.241-.175A1.447,1.447,0,0,0,293.085,108.442Z" transform="translate(-2.171 -2.544)" fill="none"/>
    <path id="패스_504" data-name="패스 504" d="M298.654,97h-3.411l1.725,4.674Z" transform="translate(-2.677)" fill="none"/>
    <path id="패스_505" data-name="패스 505" d="M292.624,108.912a1.491,1.491,0,0,1,.142-.177A1.579,1.579,0,0,0,292.624,108.912Z" transform="translate(-2.091 -2.629)" fill="none"/>
    <path id="패스_506" data-name="패스 506" d="M302.15,109.128c-.006-.011-.016-.019-.022-.029.016.026.029.053.043.08C302.163,109.163,302.159,109.144,302.15,109.128Z" transform="translate(-4.22 -2.71)" fill="none"/>
    <path id="패스_507" data-name="패스 507" d="M292.224,110.03a1.581,1.581,0,0,1,.057-.414A1.586,1.586,0,0,0,292.224,110.03Z" transform="translate(-2.001 -2.826)" fill="none"/>
    <path id="패스_508" data-name="패스 508" d="M302.324,109.54c.01.032.022.062.029.095C302.346,109.6,302.334,109.572,302.324,109.54Z" transform="translate(-4.263 -2.809)" fill="none"/>
    <path id="패스_509" data-name="패스 509" d="M300.883,108.178c.034.009.068.021.1.032C300.951,108.2,300.918,108.187,300.883,108.178Z" transform="translate(-3.941 -2.504)" fill="none"/>
    <path id="패스_510" data-name="패스 510" d="M300.608,103l-.427,1.13h1.9L304.833,97h-1.959Z" transform="translate(-3.784)" fill="#364e9f"/>
    <path id="패스_511" data-name="패스 511" d="M298.326,104.006,301.26,97h-2.108l-1.686,4.674Z" transform="translate(-3.175)" fill="#d92634"/>
    <path id="패스_512" data-name="패스 512" d="M298.574,104.006l.044.119h1.2l.427-1.13,2.265-6h-1Z" transform="translate(-3.424)" fill="#fff"/>
    <path id="패스_513" data-name="패스 513" d="M300.182,105.856l.427-1.13-.427,1.13Z" transform="translate(-3.784 -1.731)" fill="#fff"/>
    <path id="패스_514" data-name="패스 514" d="M299.794,106.978h1.162a1.263,1.263,0,0,1,.542.107c.044.017.092.027.133.047l.366-.95h-1.9Z" transform="translate(-3.697 -2.057)" fill="#364e9f"/>
    <path id="패스_515" data-name="패스 515" d="M299.794,106.978h1.162a1.263,1.263,0,0,1,.542.107c.044.017.092.027.133.047l.366-.95h-1.9Z" transform="translate(-3.697 -2.057)" fill="#c6c6c6" style="mix-blend-mode: multiply;isolation: isolate"/>
    <path id="패스_516" data-name="패스 516" d="M299.534,106.978l.3-.8h-1.2l.294.8Z" transform="translate(-3.436 -2.057)" fill="#fff"/>
    <path id="패스_517" data-name="패스 517" d="M299.534,106.978l.3-.8h-1.2l.294.8Z" transform="translate(-3.436 -2.057)" fill="#c6c6c6" style="mix-blend-mode: multiply;isolation: isolate"/>
    <path id="패스_518" data-name="패스 518" d="M299.794,106.978h0l.3-.8h0Z" transform="translate(-3.697 -2.057)" fill="#fff"/>
    <path id="패스_519" data-name="패스 519" d="M299.794,106.978h0l.3-.8h0Z" transform="translate(-3.697 -2.057)" fill="#c6c6c6" style="mix-blend-mode: multiply;isolation: isolate"/>
    <path id="패스_520" data-name="패스 520" d="M300.787,107.208h-1.162l-.022.057h-.566l.237.643h.812a1.6,1.6,0,0,1,.383.052c.035.009.068.021.1.032a1.54,1.54,0,0,1,.262.112c.028.016.057.029.084.046a1.583,1.583,0,0,1,.518.525c.006.011.016.019.022.029s.013.034.021.05a1.557,1.557,0,0,1,.109.262c.01.032.022.062.03.095a1.558,1.558,0,0,1,.05.378v1.187c.184.066.368.133.547.208.052.023.1.047.154.07v-2.166a1.566,1.566,0,0,0-.227-.813,1.592,1.592,0,0,0-.667-.609,23.455,23.455,0,0,0-.334-.118A1.56,1.56,0,0,0,300.787,107.208Z" transform="translate(-3.527 -2.287)" fill="#dedcdd"/>
    <path id="패스_521" data-name="패스 521" d="M292.022,109.516a1.585,1.585,0,0,1,.057-.414c.012-.046.035-.086.051-.13a1.575,1.575,0,0,1,.1-.24,1.407,1.407,0,0,1,.1-.137,1.578,1.578,0,0,1,.142-.177,1.5,1.5,0,0,1,.135-.118c.036-.029.065-.064.1-.091l-.32-.889-.036.012a1.58,1.58,0,0,0-1.035,1.482v2.166c.229-.1.465-.185.7-.269Z" transform="translate(-1.799 -2.312)" fill="#dedcdd"/>
    <path id="패스_522" data-name="패스 522" d="M299.01,107.208l.021.057h.566l.021-.057h-.609Z" transform="translate(-3.521 -2.287)" fill="#dedcdd"/>
    <path id="패스_523" data-name="패스 523" d="M301.937,107.327a1.546,1.546,0,0,0-.189-.066A1.546,1.546,0,0,1,301.937,107.327Z" transform="translate(-4.134 -2.298)" fill="#dedcdd"/>
    <path id="패스_524" data-name="패스 524" d="M296.434,104.126l-.362-1.63.3-.822L294.644,97h-2.076l2.761,7.126Z" transform="translate(0.723)" fill="#364e9f"/>
    <path id="패스_525" data-name="패스 525" d="M297.084,103.845l.362,1.63h.745l.05-.119-.86-2.332Z" transform="translate(-3.09 -1.349)" fill="#364e9f"/>
    <path id="패스_526" data-name="패스 526" d="M298.6,106.148l-.044-.119-.05.119Z" transform="translate(-3.409 -2.022)" fill="#364e9f"/>
    <path id="패스_527" data-name="패스 527" d="M296.126,106.183l.308.8h.973l-.177-.8Z" transform="translate(-2.875 -2.057)" fill="#364e9f"/>
    <path id="패스_528" data-name="패스 528" d="M297.55,106.183l.177.8h.235l.333-.8Z" transform="translate(-3.194 -2.057)" fill="#364e9f"/>
    <path id="패스_529" data-name="패스 529" d="M298.08,106.978h.721l-.294-.8h-.094Z" transform="translate(-3.313 -2.057)" fill="#364e9f"/>
    <path id="패스_530" data-name="패스 530" d="M293.138,104.921v-.8h.175L290.706,97h-1.719l2.883,8.009a1.567,1.567,0,0,1,.51-.088Z" transform="translate(-1.276)" fill="#d92634"/>
    <path id="패스_531" data-name="패스 531" d="M294.336,106.183v.8h.466l-.291-.8Z" transform="translate(-2.474 -2.057)" fill="#d92634"/>
    <path id="패스_532" data-name="패스 532" d="M292.262,97H291.2l2.607,7.126h1.214Z" transform="translate(-1.772)" fill="#fff"/>
    <path id="패스_533" data-name="패스 533" d="M296.084,106.978l-.308-.8h-1.214l.291.8h1.231Z" transform="translate(-2.525 -2.057)" fill="#fff"/>
    <path id="패스_534" data-name="패스 534" d="M297.509,107.265l-.013-.057h-.973l.271.7h1.917l-.238-.644h-.965Z" transform="translate(-2.964 -2.287)" fill="#364e9f"/>
    <path id="패스_535" data-name="패스 535" d="M297.79,107.265h.2l.024-.057h-.235Z" transform="translate(-3.245 -2.287)" fill="#364e9f"/>
    <path id="패스_536" data-name="패스 536" d="M298.757,107.208h-.684l-.024.057h.766l-.021-.057Z" transform="translate(-3.306 -2.287)" fill="#364e9f"/>
    <path id="패스_537" data-name="패스 537" d="M293.159,108.1a1.57,1.57,0,0,1,.754-.191h.78l-.257-.7h-1.224a1.567,1.567,0,0,0-.51.088l.32.889A1.443,1.443,0,0,1,293.159,108.1Z" transform="translate(-2.108 -2.287)" fill="#d92634"/>
    <path id="패스_538" data-name="패스 538" d="M296.439,107.909l-.271-.7h-1.231l.256.7h1.246Z" transform="translate(-2.609 -2.287)" fill="#fff"/>
    <path id="패스_539" data-name="패스 539" d="M295.832,108.111h-2.026a1.422,1.422,0,0,0-.994.366,1.627,1.627,0,0,0-.135.118,1.494,1.494,0,0,0-.142.177,1.4,1.4,0,0,0-.1.137,1.614,1.614,0,0,0-.1.24c-.016.043-.039.085-.051.13a1.582,1.582,0,0,0-.057.414v1.2a11.625,11.625,0,0,1,3.959-.7c.391,0,.778.02,1.159.058.156.016.307.046.462.067.2.029.411.05.613.089l.061.014c.073.015.144.034.217.05.269.06.534.127.8.2.093.027.185.054.277.083.126.041.25.084.373.129v-1.187a1.56,1.56,0,0,0-.05-.378c-.008-.033-.019-.063-.029-.095a1.562,1.562,0,0,0-.109-.262c-.014-.027-.027-.054-.043-.08a1.6,1.6,0,0,0-.518-.525c-.027-.017-.056-.03-.084-.046a1.541,1.541,0,0,0-.262-.112c-.034-.011-.067-.023-.1-.032a1.564,1.564,0,0,0-.383-.052h-2.728Z" transform="translate(-2.001 -2.489)" fill="none"/>
    <path id="패스_540" data-name="패스 540" d="M292.807,108.7a1.627,1.627,0,0,1,.135-.118A1.494,1.494,0,0,0,292.807,108.7Z" transform="translate(-2.132 -2.595)" fill="#dedcdd"/>
    <path id="패스_541" data-name="패스 541" d="M292.5,109.1a1.392,1.392,0,0,1,.1-.137A1.392,1.392,0,0,0,292.5,109.1Z" transform="translate(-2.063 -2.68)" fill="#dedcdd"/>
    <path id="패스_542" data-name="패스 542" d="M300.389,108.111a1.564,1.564,0,0,1,.383.052A1.6,1.6,0,0,0,300.389,108.111Z" transform="translate(-3.83 -2.489)" fill="#dedcdd"/>
    <path id="패스_543" data-name="패스 543" d="M301.978,108.947a1.582,1.582,0,0,0-.518-.525A1.6,1.6,0,0,1,301.978,108.947Z" transform="translate(-4.07 -2.559)" fill="#dedcdd"/>
    <path id="패스_544" data-name="패스 544" d="M302.362,109.662a1.558,1.558,0,0,1,.05.378A1.558,1.558,0,0,0,302.362,109.662Z" transform="translate(-4.272 -2.836)" fill="#dedcdd"/>
    <path id="패스_545" data-name="패스 545" d="M302.183,109.2a1.559,1.559,0,0,1,.109.262A1.559,1.559,0,0,0,302.183,109.2Z" transform="translate(-4.232 -2.733)" fill="#dedcdd"/>
    <path id="패스_546" data-name="패스 546" d="M292.3,109.578c.012-.046.035-.087.051-.13C292.333,109.492,292.31,109.533,292.3,109.578Z" transform="translate(-2.018 -2.788)" fill="#dedcdd"/>
    <path id="패스_547" data-name="패스 547" d="M301.014,108.219a1.542,1.542,0,0,1,.262.112A1.542,1.542,0,0,0,301.014,108.219Z" transform="translate(-3.97 -2.513)" fill="#dedcdd"/>
    <path id="패스_548" data-name="패스 548" d="M303.346,112.044l-.016-.007h0Z" transform="translate(-4.489 -3.368)" fill="#f1f0f1"/>
    <path id="패스_549" data-name="패스 549" d="M303.286,112.017h0c-.052-.022-.1-.047-.154-.07C303.184,111.969,303.234,111.994,303.286,112.017Z" transform="translate(-4.444 -3.348)" fill="#f1f0f1"/>
    <path id="패스_550" data-name="패스 550" d="M298.82,110.859c.156.016.307.046.462.067C299.127,110.9,298.976,110.875,298.82,110.859Z" transform="translate(-3.479 -3.104)" fill="#f1f0f1"/>
    <path id="패스_551" data-name="패스 551" d="M300.284,111.078c.073.015.144.034.217.05C300.428,111.112,300.357,111.093,300.284,111.078Z" transform="translate(-3.806 -3.153)" fill="#f1f0f1"/>
    <path id="패스_552" data-name="패스 552" d="M301.589,111.406c.092.027.185.054.277.083C301.774,111.46,301.682,111.433,301.589,111.406Z" transform="translate(-4.099 -3.227)" fill="#f1f0f1"/>
    <path id="패스_553" data-name="패스 553" d="M297.326,110.784c.391,0,.778.021,1.159.058C298.1,110.8,297.717,110.784,297.326,110.784Z" transform="translate(-3.144 -3.088)" fill="#f6f6f6"/>
    <path id="패스_554" data-name="패스 554" d="M300.028,111.034c-.2-.039-.408-.061-.613-.089.2.029.408.054.608.093Z" transform="translate(-3.612 -3.124)" fill="#f6f6f6"/>
    <path id="패스_555" data-name="패스 555" d="M292.022,112.621v-.931c-.236.085-.472.17-.7.269v.972C291.551,112.821,291.783,112.716,292.022,112.621Z" transform="translate(-1.799 -3.291)" fill="#f6f6f6"/>
    <path id="패스_556" data-name="패스 556" d="M303.847,112.272c-.163-.081-.33-.153-.5-.226.165.073.325.155.487.235Z" transform="translate(-4.493 -3.37)" fill="#fff"/>
    <path id="패스_557" data-name="패스 557" d="M302.974,111.887c-.179-.074-.363-.142-.547-.208v.009C302.61,111.753,302.8,111.812,302.974,111.887Z" transform="translate(-4.286 -3.288)" fill="#fff"/>
    <path id="패스_558" data-name="패스 558" d="M300.265,111.074l-.061-.014,0,0C300.221,111.069,300.243,111.07,300.265,111.074Z" transform="translate(-3.787 -3.149)" fill="#fff"/>
    <path id="패스_559" data-name="패스 559" d="M302.319,111.65v-.009c-.123-.045-.248-.088-.373-.129C302.072,111.554,302.194,111.605,302.319,111.65Z" transform="translate(-4.179 -3.251)" fill="#fff"/>
    <path id="패스_560" data-name="패스 560" d="M300.564,111.142c.269.06.534.127.8.2C301.1,111.269,300.833,111.2,300.564,111.142Z" transform="translate(-3.869 -3.168)" fill="#fff"/>
    <path id="패스_561" data-name="패스 561" d="M303.33,112.782l.5-.5c-.162-.08-.322-.162-.487-.235l-.016-.007Z" transform="translate(-4.489 -3.368)" fill="#fff"/>
    <path id="패스_562" data-name="패스 562" d="M302.427,112.621c.185.074.368.153.548.236l.153-.153v-.745c-.052-.023-.1-.047-.154-.07-.178-.074-.364-.134-.547-.2Z" transform="translate(-4.286 -3.291)" fill="#fff"/>
    <path id="패스_563" data-name="패스 563" d="M299.21,111.833a10.724,10.724,0,0,1,2.5.648v-.931c-.125-.045-.247-.1-.373-.137-.092-.029-.185-.056-.277-.083-.261-.078-.526-.145-.8-.2-.073-.016-.144-.035-.217-.05-.022,0-.044-.005-.066-.01Z" transform="translate(-3.566 -3.151)" fill="#fff"/>
    <path id="패스_564" data-name="패스 564" d="M302.975,113.126c-.18-.083-.362-.162-.548-.236v.784Z" transform="translate(-4.286 -3.559)" fill="#fff"/>
    <path id="패스_565" data-name="패스 565" d="M303.286,113.224V113l-.153.153C303.184,113.173,303.235,113.2,303.286,113.224Z" transform="translate(-4.445 -3.583)" fill="#f6f6f6"/>
    <g id="그룹_54" data-name="그룹 54" transform="translate(283.291 106.892)">
      <g id="그룹_45" data-name="그룹 45">
        <path id="패스_566" data-name="패스 566" d="M284.166,121.427a10.8,10.8,0,0,1,18.442-7.639l.619-.619a11.679,11.679,0,0,0-16.516,16.516l.619-.619A10.772,10.772,0,0,1,284.166,121.427Z" transform="translate(-283.291 -109.748)" fill="#f1f0f1"/>
        <path id="패스_567" data-name="패스 567" d="M304.215,114.156l-.619.619a10.8,10.8,0,0,1-15.277,15.278l-.619.619a11.679,11.679,0,0,0,16.516-16.516Z" transform="translate(-284.278 -110.735)" fill="#bcb9bb"/>
        <path id="패스_568" data-name="패스 568" d="M302.861,114.041a10.8,10.8,0,1,0,3.164,7.639A10.768,10.768,0,0,0,302.861,114.041Zm-7.639,16.4a8.759,8.759,0,1,1,8.759-8.759A8.732,8.732,0,0,1,295.222,130.438Z" transform="translate(-283.544 -110.001)" fill="#dedcdd"/>
        <path id="패스_569" data-name="패스 569" d="M296.552,131.769a8.759,8.759,0,0,0,6.194-14.952l-.619.619a7.883,7.883,0,0,1-11.149,11.148l-.619.619A8.732,8.732,0,0,0,296.552,131.769Z" transform="translate(-284.874 -111.331)" fill="#f1f0f1"/>
        <path id="패스_570" data-name="패스 570" d="M287.929,122.27a7.883,7.883,0,0,1,13.457-5.574l.619-.619a8.759,8.759,0,1,0-12.387,12.386l.619-.619A7.859,7.859,0,0,1,287.929,122.27Z" transform="translate(-284.134 -110.591)" fill="#bcb9bb"/>
        <path id="패스_571" data-name="패스 571" d="M301.639,116.948a7.883,7.883,0,1,0,2.309,5.574A7.858,7.858,0,0,0,301.639,116.948Z" transform="translate(-284.387 -110.844)" fill="#dedcdd"/>
      </g>
      <g id="그룹_53" data-name="그룹 53" transform="translate(4.68 7.526)">
        <g id="그룹_52" data-name="그룹 52">
          <g id="그룹_48" data-name="그룹 48">
            <g id="그룹_46" data-name="그룹 46">
              <path id="패스_572" data-name="패스 572" d="M289.692,123.4a2,2,0,0,0,0,.362,1.2,1.2,0,0,0,.16.438.672.672,0,0,0,.217.248c.133.071.192-.051.192-.157a.266.266,0,0,1,0-.034,2.4,2.4,0,0,0-.338-.738c-.074-.141-.185-.369-.185-.369s-.023.069-.026.081A.78.78,0,0,0,289.692,123.4Z" transform="translate(-289.403 -120.276)" fill="#bcb9bb"/>
              <path id="패스_573" data-name="패스 573" d="M289.93,124.749c-.093-.136-.235-.354-.235-.354s-.014.071-.016.083a.7.7,0,0,0,0,.171,2.047,2.047,0,0,0,.045.362,1.261,1.261,0,0,0,.22.426.726.726,0,0,0,.252.23c.143.06.188-.068.174-.175a.171.171,0,0,1-.006-.033A2.56,2.56,0,0,0,289.93,124.749Z" transform="translate(-289.401 -120.555)" fill="#bcb9bb"/>
              <path id="패스_574" data-name="패스 574" d="M290.092,125.982c-.113-.128-.286-.335-.286-.335s0,.072,0,.085a.717.717,0,0,0,.026.172,2.051,2.051,0,0,0,.094.36,1.34,1.34,0,0,0,.28.41.8.8,0,0,0,.287.21c.154.047.181-.085.152-.191a.342.342,0,0,1-.011-.033A2.783,2.783,0,0,0,290.092,125.982Z" transform="translate(-289.429 -120.836)" fill="#bcb9bb"/>
              <path id="패스_575" data-name="패스 575" d="M290.64,124.482a.581.581,0,0,0,.184-.23,1.257,1.257,0,0,0,.142-.39c.019-.109.011-.216.019-.325a.73.73,0,0,0,0-.154c0-.011-.012-.076-.012-.076s-.142.181-.225.3a1.339,1.339,0,0,0-.325.684.243.243,0,0,1,0,.034C290.44,124.43,290.519,124.551,290.64,124.482Z" transform="translate(-289.569 -120.311)" fill="#bcb9bb"/>
              <path id="패스_576" data-name="패스 576" d="M290.424,124.576a.26.26,0,0,0,0,.034A.243.243,0,0,0,290.424,124.576Z" transform="translate(-289.569 -120.596)" fill="#bcb9bb"/>
              <path id="패스_577" data-name="패스 577" d="M290.81,124.756a1.272,1.272,0,0,0-.244.712c0,.011,0,.022.006.033.027.1.123.219.237.14a.558.558,0,0,0,.158-.248,1.208,1.208,0,0,0,.095-.4,2.88,2.88,0,0,0-.021-.327.747.747,0,0,0-.016-.154l-.022-.075S290.88,124.628,290.81,124.756Z" transform="translate(-289.6 -120.564)" fill="#bcb9bb"/>
              <path id="패스_578" data-name="패스 578" d="M290.573,125.8c0-.012,0-.023-.006-.033A.171.171,0,0,0,290.573,125.8Z" transform="translate(-289.601 -120.863)" fill="#bcb9bb"/>
              <path id="패스_579" data-name="패스 579" d="M291.018,125.9a1.223,1.223,0,0,0-.154.737.213.213,0,0,1,.011.033c.042.1.155.209.259.12a.528.528,0,0,0,.126-.263,1.191,1.191,0,0,0,.043-.413,2.986,2.986,0,0,0-.063-.325.792.792,0,0,0-.036-.154l-.033-.074S291.072,125.769,291.018,125.9Z" transform="translate(-289.663 -120.817)" fill="#bcb9bb"/>
              <path id="패스_580" data-name="패스 580" d="M290.47,121.112a3.256,3.256,0,0,1,.109.438,1.819,1.819,0,0,1,.286-.34l.095-.095c.022-.023.048-.049.075-.074a.814.814,0,0,0,.012-.254c0-.126-.032-.239-.045-.362a.982.982,0,0,0-.026-.171c0-.006-.009-.024-.016-.042l-.04.022a.9.9,0,0,0-.128.121,2.378,2.378,0,0,0-.255.281.737.737,0,0,0-.129.236l.026.106C290.445,121.022,290.457,121.066,290.47,121.112Z" transform="translate(-289.565 -119.618)" fill="#bcb9bb"/>
              <path id="패스_581" data-name="패스 581" d="M291.548,128.363a.206.206,0,0,1-.168-.032.126.126,0,0,1-.1.1h0a.236.236,0,0,1-.109,0,.443.443,0,0,1-.059-.016l.007.022.1.068a5.041,5.041,0,0,1,.441.317,1.4,1.4,0,0,1,0-.441c0-.031.008-.063.012-.093l-.014-.019a.242.242,0,0,1-.029.039A.173.173,0,0,1,291.548,128.363Z" transform="translate(-289.724 -121.424)" fill="#bcb9bb"/>
              <path id="패스_582" data-name="패스 582" d="M290.822,127.56c-.129-.12-.272-.233-.4-.352s-.335-.313-.335-.313,0,.074.006.085a.739.739,0,0,0,.05.171,2.1,2.1,0,0,0,.145.355,1.471,1.471,0,0,0,.341.388,1.728,1.728,0,0,0,.177.127.534.534,0,0,0,.144.059c.161.033.17-.1.126-.2-.006-.012-.012-.023-.016-.034A1.226,1.226,0,0,0,290.822,127.56Z" transform="translate(-289.493 -121.116)" fill="#bcb9bb"/>
              <path id="패스_583" data-name="패스 583" d="M291.327,127.8a.275.275,0,0,1,.016.034c.057.1.186.195.279.1a.28.28,0,0,0,.059-.108,1.145,1.145,0,0,0,.032-.168,1.229,1.229,0,0,0-.014-.419c-.024-.112-.074-.213-.109-.322a.777.777,0,0,0-.057-.151l-.042-.071s-.074.214-.111.354a2.459,2.459,0,0,0-.093.431A.68.68,0,0,0,291.327,127.8Z" transform="translate(-289.761 -121.069)" fill="#bcb9bb"/>
              <path id="패스_584" data-name="패스 584" d="M290.649,122.591l.062-.072V122.5a.343.343,0,0,1-.045.022.189.189,0,0,1-.093.011.149.149,0,0,1-.113-.089.146.146,0,0,1-.134.049h0a.173.173,0,0,1-.085-.042.285.285,0,0,1-.038-.037l-.007.019c.012.032.026.064.039.1a3.31,3.31,0,0,1,.161.428A1.759,1.759,0,0,1,290.649,122.591Z" transform="translate(-289.517 -120.111)" fill="#bcb9bb"/>
              <path id="패스_585" data-name="패스 585" d="M290.559,123.7a.2.2,0,0,1-.094.019.161.161,0,0,1-.126-.081.146.146,0,0,1-.131.061h0a.192.192,0,0,1-.092-.035.288.288,0,0,1-.043-.034l0,.02c.016.03.033.061.05.092a3.443,3.443,0,0,1,.217.414,1.621,1.621,0,0,1,.216-.383c.019-.026.036-.052.054-.078l0-.021A.34.34,0,0,1,290.559,123.7Z" transform="translate(-289.489 -120.383)" fill="#bcb9bb"/>
              <path id="패스_586" data-name="패스 586" d="M290.425,125.356a1.517,1.517,0,0,1,.172-.4c.016-.027.03-.055.045-.082l-.005-.021a.283.283,0,0,1-.041.029.186.186,0,0,1-.093.027.173.173,0,0,1-.139-.069.145.145,0,0,1-.126.071h0a.212.212,0,0,1-.1-.027.339.339,0,0,1-.049-.031l0,.021c.02.029.041.059.064.088A3.75,3.75,0,0,1,290.425,125.356Z" transform="translate(-289.494 -120.655)" fill="#bcb9bb"/>
              <path id="패스_587" data-name="패스 587" d="M290.829,126.045l-.009-.02a.289.289,0,0,1-.038.033.191.191,0,0,1-.091.035.184.184,0,0,1-.151-.057.141.141,0,0,1-.119.083h0a.235.235,0,0,1-.1-.019.436.436,0,0,1-.054-.027v.021c.025.027.05.056.077.083a3.958,3.958,0,0,1,.331.375,1.434,1.434,0,0,1,.12-.419C290.806,126.1,290.818,126.074,290.829,126.045Z" transform="translate(-289.533 -120.92)" fill="#bcb9bb"/>
              <path id="패스_588" data-name="패스 588" d="M291.046,127.263a.2.2,0,0,1-.16-.045.133.133,0,0,1-.109.094h0a.241.241,0,0,1-.108-.009.378.378,0,0,1-.057-.023l0,.021.088.077a4.488,4.488,0,0,1,.388.348,1.4,1.4,0,0,1,.062-.432c.009-.03.016-.061.024-.09l-.012-.02a.217.217,0,0,1-.034.036A.192.192,0,0,1,291.046,127.263Z" transform="translate(-289.611 -121.18)" fill="#bcb9bb"/>
              <path id="패스_589" data-name="패스 589" d="M290.426,121.547c-.034-.148-.084-.3-.12-.443s-.091-.389-.091-.389-.036.064-.041.074a.846.846,0,0,0-.053.163,2.239,2.239,0,0,0-.082.353,1.189,1.189,0,0,0,.049.451,1.106,1.106,0,0,0,.065.17.343.343,0,0,0,.08.106c.107.089.19-.019.214-.122,0-.012,0-.023.006-.034A.993.993,0,0,0,290.426,121.547Z" transform="translate(-289.482 -119.731)" fill="#bcb9bb"/>
              <path id="패스_590" data-name="패스 590" d="M290.048,122.3c-.054-.148-.137-.381-.137-.381s-.03.067-.033.078a.743.743,0,0,0-.036.166,2.076,2.076,0,0,0-.043.359,1.176,1.176,0,0,0,.1.446.632.632,0,0,0,.181.263c.091.061.154.009.185-.065a.274.274,0,0,0,.02-.074.25.25,0,0,1,0-.034,2.187,2.187,0,0,0-.234-.739Z" transform="translate(-289.429 -120.001)" fill="#bcb9bb"/>
              <path id="패스_591" data-name="패스 591" d="M290.722,121.67a.81.81,0,0,0-.149.288.182.182,0,0,1-.006.034c-.012.1.036.233.164.186a.362.362,0,0,0,.106-.068,1.487,1.487,0,0,0,.119-.128,1.364,1.364,0,0,0,.219-.359,3.164,3.164,0,0,0,.089-.315.807.807,0,0,0,.036-.151c0-.011,0-.077,0-.077s-.171.156-.275.261A3.83,3.83,0,0,0,290.722,121.67Z" transform="translate(-289.6 -119.813)" fill="#bcb9bb"/>
              <path id="패스_592" data-name="패스 592" d="M290.567,122.245a.183.183,0,0,0,.006-.034C290.571,122.222,290.569,122.233,290.567,122.245Z" transform="translate(-289.601 -120.066)" fill="#bcb9bb"/>
              <path id="패스_593" data-name="패스 593" d="M290.438,123.229c.023.079.083.14.178.1a.6.6,0,0,0,.206-.213,1.287,1.287,0,0,0,.183-.376,3.179,3.179,0,0,0,.056-.32.762.762,0,0,0,.019-.153c0-.011,0-.077,0-.077s-.158.167-.252.282l-.015.017a1.36,1.36,0,0,0-.381.634.261.261,0,0,1,0,.034A.281.281,0,0,0,290.438,123.229Z" transform="translate(-289.57 -120.061)" fill="#bcb9bb"/>
              <path id="패스_594" data-name="패스 594" d="M290.43,123.388a.25.25,0,0,0,0,.034A.262.262,0,0,0,290.43,123.388Z" transform="translate(-289.57 -120.33)" fill="#bcb9bb"/>
              <path id="패스_595" data-name="패스 595" d="M291.992,129.256l-.006-.009.006.009Z" transform="translate(-289.919 -121.642)" fill="#bcb9bb"/>
              <path id="패스_596" data-name="패스 596" d="M291.993,129.256l-.006-.009.006.009Z" transform="translate(-289.919 -121.642)" fill="#bcb9bb"/>
              <path id="패스_597" data-name="패스 597" d="M291.993,129.256l-.006-.009.006.009Z" transform="translate(-289.919 -121.642)" fill="#bcb9bb"/>
              <path id="패스_598" data-name="패스 598" d="M291.995,129.258Z" transform="translate(-289.921 -121.645)" fill="#bcb9bb"/>
              <path id="패스_599" data-name="패스 599" d="M291.994,129.258h0Z" transform="translate(-289.921 -121.645)" fill="#bcb9bb"/>
              <path id="패스_600" data-name="패스 600" d="M291.995,129.258h0a.21.21,0,0,0,.016.024.244.244,0,0,0-.016-.024Z" transform="translate(-289.921 -121.645)" fill="#bcb9bb"/>
              <path id="패스_601" data-name="패스 601" d="M291.668,129.005l-.005-.009a3.2,3.2,0,0,0-.718-.565l-.023-.016-.384-.286s.016.074.019.085a.771.771,0,0,0,.075.168,2.26,2.26,0,0,0,.2.345,1.618,1.618,0,0,0,.4.361.951.951,0,0,0,.352.159.238.238,0,0,0,.053,0c.081-.01.095-.073.077-.14a.27.27,0,0,0-.033-.078.218.218,0,0,1-.016-.024Z" transform="translate(-289.594 -121.392)" fill="#bcb9bb"/>
              <path id="패스_602" data-name="패스 602" d="M292.01,129.282l-.016-.024Z" transform="translate(-289.921 -121.645)" fill="#bcb9bb"/>
              <path id="패스_603" data-name="패스 603" d="M292.017,127.857c-.007-.01-.053-.068-.053-.068s-.046.22-.062.366l0,.021a1.149,1.149,0,0,0,.061.744l.006.009h0a.248.248,0,0,1,.016.024.358.358,0,0,0,.066.067.181.181,0,0,0,.186.043.129.129,0,0,0,.044-.039.507.507,0,0,0,.05-.286,1.281,1.281,0,0,0-.076-.421c-.04-.11-.1-.208-.156-.314A.814.814,0,0,0,292.017,127.857Z" transform="translate(-289.892 -121.316)" fill="#bcb9bb"/>
              <path id="패스_604" data-name="패스 604" d="M292.011,129.282l-.016-.024Z" transform="translate(-289.921 -121.645)" fill="#bcb9bb"/>
              <path id="패스_605" data-name="패스 605" d="M291.826,120.378l-.013-.006c-.1.2-.144.3-.242.494l.014.006C291.683,120.675,291.731,120.576,291.826,120.378Z" transform="translate(-289.826 -119.654)" fill="#bcb9bb"/>
              <path id="패스_606" data-name="패스 606" d="M290.309,120.449c.019-.219.03-.327.05-.546l-.015,0c-.021.219-.031.327-.051.546Z" transform="translate(-289.539 -119.549)" fill="#bcb9bb"/>
              <path id="패스_607" data-name="패스 607" d="M291.149,119.986c.046-.214.069-.321.115-.536l-.015,0c-.046.215-.068.322-.114.536Z" transform="translate(-289.728 -119.447)" fill="#bcb9bb"/>
              <path id="패스_608" data-name="패스 608" d="M289.957,121.716c-.025-.22-.036-.331-.058-.55h-.016c.022.22.033.33.058.55Z" transform="translate(-289.448 -119.832)" fill="#bcb9bb"/>
              <path id="패스_609" data-name="패스 609" d="M289.713,122.936c-.071-.215-.106-.323-.172-.538l-.016,0c.067.216.1.323.172.539Z" transform="translate(-289.367 -120.108)" fill="#bcb9bb"/>
              <path id="패스_610" data-name="패스 610" d="M289.345,123.669c.111.206.168.308.283.512l.015-.005c-.116-.2-.172-.307-.282-.512Z" transform="translate(-289.327 -120.392)" fill="#bcb9bb"/>
              <path id="패스_611" data-name="패스 611" d="M289.719,125.429c-.156-.189-.233-.284-.383-.475l-.014.008c.151.191.227.286.384.475Z" transform="translate(-289.322 -120.681)" fill="#bcb9bb"/>
              <path id="패스_612" data-name="패스 612" d="M289.953,126.709c-.209-.156-.312-.235-.517-.395l-.011.01c.2.16.307.239.517.4Z" transform="translate(-289.345 -120.985)" fill="#bcb9bb"/>
              <path id="패스_613" data-name="패스 613" d="M290.369,127.958l.012-.011c-.218-.154-.326-.232-.539-.39l-.012.01C290.043,127.726,290.151,127.8,290.369,127.958Z" transform="translate(-289.436 -121.264)" fill="#bcb9bb"/>
              <path id="패스_614" data-name="패스 614" d="M291.579,121.528l-.014-.007c-.1.2-.147.3-.247.493l.015.006C291.432,121.824,291.482,121.725,291.579,121.528Z" transform="translate(-289.769 -119.912)" fill="#bcb9bb"/>
              <path id="패스_615" data-name="패스 615" d="M291.2,123.14c.1-.2.151-.295.25-.492l-.014-.006c-.1.2-.149.3-.251.492Z" transform="translate(-289.74 -120.163)" fill="#bcb9bb"/>
              <path id="패스_616" data-name="패스 616" d="M291.19,124.152c.1-.2.152-.295.251-.493l-.015-.006c-.1.2-.15.3-.251.493Z" transform="translate(-289.737 -120.389)" fill="#bcb9bb"/>
              <path id="패스_617" data-name="패스 617" d="M291.565,124.85l-.015-.006c-.1.2-.15.3-.251.494l.016.006C291.415,125.147,291.466,125.049,291.565,124.85Z" transform="translate(-289.765 -120.656)" fill="#bcb9bb"/>
              <path id="패스_618" data-name="패스 618" d="M291.838,125.937l-.016-.006c-.1.2-.149.3-.251.5l.016.006C291.69,126.235,291.74,126.136,291.838,125.937Z" transform="translate(-289.826 -120.899)" fill="#bcb9bb"/>
              <path id="패스_619" data-name="패스 619" d="M292.259,127.005l-.016-.006c-.1.2-.147.3-.247.5l.017.006C292.112,127.3,292.162,127.2,292.259,127.005Z" transform="translate(-289.921 -121.139)" fill="#bcb9bb"/>
              <path id="패스_620" data-name="패스 620" d="M293.394,131.042a11.47,11.47,0,0,1-1.1-1.554.181.181,0,0,1-.187-.043.393.393,0,0,1-.067-.068.309.309,0,0,1,.033.078c.018.068,0,.131-.077.14a11.654,11.654,0,0,0,1.072,1.54l.023.027C293.279,131.385,293.566,131.245,293.394,131.042Z" transform="translate(-289.922 -121.671)" fill="#bcb9bb"/>
            </g>
            <g id="그룹_47" data-name="그룹 47" transform="translate(1.2 5.823)">
              <path id="패스_621" data-name="패스 621" d="M290.88,126.984a.2.2,0,0,0-.011-.033A.348.348,0,0,0,290.88,126.984Z" transform="translate(-290.869 -126.951)" fill="#bcb9bb"/>
              <path id="패스_622" data-name="패스 622" d="M291.356,128.149a.275.275,0,0,0-.016-.034C291.345,128.126,291.35,128.138,291.356,128.149Z" transform="translate(-290.974 -127.212)" fill="#bcb9bb"/>
            </g>
          </g>
          <g id="그룹_51" data-name="그룹 51" transform="translate(10.471)">
            <g id="그룹_49" data-name="그룹 49">
              <path id="패스_623" data-name="패스 623" d="M306.822,123.4a2,2,0,0,1,0,.362,1.2,1.2,0,0,1-.16.438.672.672,0,0,1-.216.248c-.133.071-.192-.051-.192-.157a.255.255,0,0,0,0-.034,2.4,2.4,0,0,1,.338-.738c.074-.141.186-.369.186-.369s.022.069.025.081A.735.735,0,0,1,306.822,123.4Z" transform="translate(-303.586 -120.276)" fill="#bcb9bb"/>
              <path id="패스_624" data-name="패스 624" d="M306.548,124.749c.093-.136.235-.354.235-.354s.014.071.016.083a.74.74,0,0,1,0,.171,2.048,2.048,0,0,1-.046.362,1.245,1.245,0,0,1-.219.426.727.727,0,0,1-.252.23c-.144.06-.188-.068-.174-.175a.251.251,0,0,0,.006-.033A2.559,2.559,0,0,1,306.548,124.749Z" transform="translate(-303.552 -120.555)" fill="#bcb9bb"/>
              <path id="패스_625" data-name="패스 625" d="M306.344,125.982c.113-.128.286-.335.286-.335s0,.072,0,.085a.754.754,0,0,1-.026.172,2.123,2.123,0,0,1-.094.36,1.354,1.354,0,0,1-.28.41.8.8,0,0,1-.287.21c-.154.047-.181-.085-.153-.191,0-.012.008-.023.012-.033A2.766,2.766,0,0,1,306.344,125.982Z" transform="translate(-303.481 -120.836)" fill="#bcb9bb"/>
              <path id="패스_626" data-name="패스 626" d="M305.878,124.482a.59.59,0,0,1-.185-.23,1.275,1.275,0,0,1-.141-.39,3.072,3.072,0,0,1-.019-.325.731.731,0,0,1,0-.154c0-.011.013-.076.013-.076s.141.181.225.3a1.339,1.339,0,0,1,.325.684.258.258,0,0,0,0,.034C306.078,124.43,306,124.551,305.878,124.482Z" transform="translate(-303.423 -120.311)" fill="#bcb9bb"/>
              <path id="패스_627" data-name="패스 627" d="M306.256,124.576a.255.255,0,0,1,0,.034A.243.243,0,0,1,306.256,124.576Z" transform="translate(-303.586 -120.596)" fill="#bcb9bb"/>
              <path id="패스_628" data-name="패스 628" d="M305.726,124.756a1.272,1.272,0,0,1,.244.712.225.225,0,0,0-.006.033c-.027.1-.123.219-.237.14a.558.558,0,0,1-.158-.248,1.209,1.209,0,0,1-.095-.4,3.051,3.051,0,0,1,.02-.327.815.815,0,0,1,.016-.154c0-.011.022-.071.022-.075S305.656,124.628,305.726,124.756Z" transform="translate(-303.411 -120.564)" fill="#bcb9bb"/>
              <path id="패스_629" data-name="패스 629" d="M306.106,125.8a.234.234,0,0,1,.006-.033A.247.247,0,0,1,306.106,125.8Z" transform="translate(-303.553 -120.863)" fill="#bcb9bb"/>
              <path id="패스_630" data-name="패스 630" d="M305.53,125.9a1.223,1.223,0,0,1,.154.737.207.207,0,0,0-.012.033c-.041.1-.154.209-.259.12a.533.533,0,0,1-.126-.263,1.193,1.193,0,0,1-.043-.413,3.159,3.159,0,0,1,.064-.325.734.734,0,0,1,.036-.154l.033-.074S305.475,125.769,305.53,125.9Z" transform="translate(-303.359 -120.817)" fill="#bcb9bb"/>
              <path id="패스_631" data-name="패스 631" d="M306.025,121.112a3.132,3.132,0,0,0-.109.438,1.794,1.794,0,0,0-.287-.34l-.094-.095-.075-.074a.816.816,0,0,1-.012-.254c0-.126.032-.239.045-.362a.985.985,0,0,1,.026-.171c0-.006.009-.024.016-.042l.04.022a.9.9,0,0,1,.128.121,2.31,2.31,0,0,1,.254.281.719.719,0,0,1,.13.236l-.026.106C306.05,121.022,306.038,121.066,306.025,121.112Z" transform="translate(-303.404 -119.618)" fill="#bcb9bb"/>
              <path id="패스_632" data-name="패스 632" d="M304.971,128.363a.206.206,0,0,0,.168-.032.126.126,0,0,0,.1.1h0a.236.236,0,0,0,.109,0,.442.442,0,0,0,.059-.016l-.007.022-.1.068a5.048,5.048,0,0,0-.442.317,1.355,1.355,0,0,0,0-.441l-.012-.093.014-.019a.307.307,0,0,0,.03.039A.173.173,0,0,0,304.971,128.363Z" transform="translate(-303.27 -121.424)" fill="#bcb9bb"/>
              <path id="패스_633" data-name="패스 633" d="M305.566,127.56c.13-.12.273-.233.4-.352s.335-.313.335-.313-.005.073-.007.085a.743.743,0,0,1-.05.171,2.169,2.169,0,0,1-.145.355,1.5,1.5,0,0,1-.341.388,1.728,1.728,0,0,1-.177.127.534.534,0,0,1-.144.059c-.161.033-.17-.1-.126-.2.006-.012.012-.023.016-.034A1.242,1.242,0,0,1,305.566,127.56Z" transform="translate(-303.37 -121.116)" fill="#bcb9bb"/>
              <path id="패스_634" data-name="패스 634" d="M305.226,127.8a.275.275,0,0,0-.016.034c-.057.1-.186.195-.279.1a.28.28,0,0,1-.058-.108,1.157,1.157,0,0,1-.032-.168,1.209,1.209,0,0,1,.014-.419,3.388,3.388,0,0,1,.109-.322.823.823,0,0,1,.057-.151l.043-.071s.074.214.111.354a2.613,2.613,0,0,1,.093.431A.69.69,0,0,1,305.226,127.8Z" transform="translate(-303.267 -121.069)" fill="#bcb9bb"/>
              <path id="패스_635" data-name="패스 635" d="M305.883,122.591l-.062-.072V122.5a.343.343,0,0,0,.045.022.188.188,0,0,0,.093.011.15.15,0,0,0,.113-.089.146.146,0,0,0,.134.049h0a.176.176,0,0,0,.085-.042.284.284,0,0,0,.038-.037l.006.019c-.012.032-.025.064-.038.1a3.425,3.425,0,0,0-.162.428A1.729,1.729,0,0,0,305.883,122.591Z" transform="translate(-303.489 -120.111)" fill="#bcb9bb"/>
              <path id="패스_636" data-name="패스 636" d="M305.967,123.7a.2.2,0,0,0,.094.019.161.161,0,0,0,.126-.081.146.146,0,0,0,.131.061h0a.192.192,0,0,0,.092-.035.284.284,0,0,0,.043-.034l0,.02c-.016.03-.033.061-.05.092a3.439,3.439,0,0,0-.217.414,1.622,1.622,0,0,0-.216-.383c-.019-.026-.036-.052-.054-.078l0-.021A.343.343,0,0,0,305.967,123.7Z" transform="translate(-303.511 -120.383)" fill="#bcb9bb"/>
              <path id="패스_637" data-name="패스 637" d="M306.1,125.356a1.542,1.542,0,0,0-.171-.4c-.016-.027-.03-.055-.045-.082l.005-.021a.283.283,0,0,0,.041.029.186.186,0,0,0,.093.027.173.173,0,0,0,.139-.069.144.144,0,0,0,.126.071h0a.213.213,0,0,0,.1-.027.342.342,0,0,0,.049-.031l0,.021c-.02.029-.042.059-.064.088A3.75,3.75,0,0,0,306.1,125.356Z" transform="translate(-303.502 -120.655)" fill="#bcb9bb"/>
              <path id="패스_638" data-name="패스 638" d="M305.689,126.045l.009-.02a.247.247,0,0,0,.038.033.191.191,0,0,0,.091.035.184.184,0,0,0,.151-.057.141.141,0,0,0,.119.083h0a.235.235,0,0,0,.1-.019.435.435,0,0,0,.054-.027l0,.021c-.024.027-.05.056-.076.083a3.962,3.962,0,0,0-.331.375,1.456,1.456,0,0,0-.12-.419C305.712,126.1,305.7,126.074,305.689,126.045Z" transform="translate(-303.459 -120.92)" fill="#bcb9bb"/>
              <path id="패스_639" data-name="패스 639" d="M305.472,127.263a.2.2,0,0,0,.16-.045.132.132,0,0,0,.109.094h0a.241.241,0,0,0,.108-.009.381.381,0,0,0,.057-.023l0,.021-.088.077a4.5,4.5,0,0,0-.388.348,1.4,1.4,0,0,0-.062-.432c-.009-.03-.016-.061-.024-.09l.011-.02a.308.308,0,0,0,.034.036A.194.194,0,0,0,305.472,127.263Z" transform="translate(-303.381 -121.18)" fill="#bcb9bb"/>
              <path id="패스_640" data-name="패스 640" d="M306.133,121.547c.034-.148.084-.3.12-.443s.091-.389.091-.389.036.064.041.074a.852.852,0,0,1,.053.163,2.242,2.242,0,0,1,.081.353,1.237,1.237,0,0,1-.114.621.342.342,0,0,1-.08.106c-.107.089-.19-.019-.214-.122,0-.012,0-.023-.006-.034A.973.973,0,0,1,306.133,121.547Z" transform="translate(-303.551 -119.731)" fill="#bcb9bb"/>
              <path id="패스_641" data-name="패스 641" d="M306.491,122.3c.054-.148.137-.381.137-.381s.029.067.033.078a.741.741,0,0,1,.036.166,2.15,2.15,0,0,1,.043.359,1.193,1.193,0,0,1-.1.446.631.631,0,0,1-.181.263c-.091.061-.154.009-.185-.065a.273.273,0,0,1-.02-.074.248.248,0,0,0,0-.034,2.208,2.208,0,0,1,.234-.739Z" transform="translate(-303.585 -120.001)" fill="#bcb9bb"/>
              <path id="패스_642" data-name="패스 642" d="M305.745,121.67a.8.8,0,0,1,.15.288.187.187,0,0,0,.006.034c.012.1-.036.233-.164.186a.353.353,0,0,1-.106-.068,1.472,1.472,0,0,1-.119-.128,1.36,1.36,0,0,1-.219-.359,3.148,3.148,0,0,1-.089-.315.8.8,0,0,1-.036-.151c0-.011,0-.077,0-.077s.171.156.276.261A3.81,3.81,0,0,1,305.745,121.67Z" transform="translate(-303.342 -119.813)" fill="#bcb9bb"/>
              <path id="패스_643" data-name="패스 643" d="M306.112,122.245a.19.19,0,0,1-.006-.034C306.108,122.222,306.111,122.233,306.112,122.245Z" transform="translate(-303.553 -120.066)" fill="#bcb9bb"/>
              <path id="패스_644" data-name="패스 644" d="M306.054,123.229c-.023.079-.083.14-.178.1a.6.6,0,0,1-.206-.213,1.29,1.29,0,0,1-.183-.376,3.179,3.179,0,0,1-.056-.32.769.769,0,0,1-.019-.153c0-.011,0-.077,0-.077s.158.167.253.282l.014.017a1.347,1.347,0,0,1,.381.634.265.265,0,0,0,0,.034A.281.281,0,0,1,306.054,123.229Z" transform="translate(-303.397 -120.061)" fill="#bcb9bb"/>
              <path id="패스_645" data-name="패스 645" d="M306.25,123.388a.248.248,0,0,1,0,.034A.277.277,0,0,1,306.25,123.388Z" transform="translate(-303.585 -120.33)" fill="#bcb9bb"/>
              <path id="패스_646" data-name="패스 646" d="M304.687,129.256l.006-.009-.006.009Z" transform="translate(-303.235 -121.642)" fill="#bcb9bb"/>
              <path id="패스_647" data-name="패스 647" d="M304.686,129.256l.006-.009-.006.009Z" transform="translate(-303.235 -121.642)" fill="#bcb9bb"/>
              <path id="패스_648" data-name="패스 648" d="M304.686,129.256l.006-.009-.006.009Z" transform="translate(-303.235 -121.642)" fill="#bcb9bb"/>
              <path id="패스_649" data-name="패스 649" d="M304.686,129.258Z" transform="translate(-303.235 -121.645)" fill="#bcb9bb"/>
              <path id="패스_650" data-name="패스 650" d="M304.687,129.258Z" transform="translate(-303.235 -121.645)" fill="#bcb9bb"/>
              <path id="패스_651" data-name="패스 651" d="M304.682,129.258h0l-.016.024a.238.238,0,0,1,.016-.024Z" transform="translate(-303.23 -121.645)" fill="#bcb9bb"/>
              <path id="패스_652" data-name="패스 652" d="M304.671,129.005l.005-.009a3.194,3.194,0,0,1,.718-.565l.022-.016.384-.286s-.016.074-.019.085a.77.77,0,0,1-.075.168,2.264,2.264,0,0,1-.2.345,1.618,1.618,0,0,1-.4.361.952.952,0,0,1-.352.159.237.237,0,0,1-.053,0c-.081-.01-.095-.073-.078-.14a.3.3,0,0,1,.033-.078l.016-.024Z" transform="translate(-303.219 -121.392)" fill="#bcb9bb"/>
              <path id="패스_653" data-name="패스 653" d="M304.666,129.282l.016-.024Z" transform="translate(-303.23 -121.645)" fill="#bcb9bb"/>
              <path id="패스_654" data-name="패스 654" d="M304.531,127.857c.007-.01.053-.068.053-.068s.046.22.062.366l0,.021a1.148,1.148,0,0,1-.061.744l-.006.009h0a.247.247,0,0,0-.016.024.362.362,0,0,1-.067.067.18.18,0,0,1-.186.043.134.134,0,0,1-.043-.039.507.507,0,0,1-.05-.286,1.281,1.281,0,0,1,.076-.421c.04-.11.1-.208.156-.314A.771.771,0,0,1,304.531,127.857Z" transform="translate(-303.13 -121.316)" fill="#bcb9bb"/>
              <path id="패스_655" data-name="패스 655" d="M304.666,129.282l.016-.024Z" transform="translate(-303.23 -121.645)" fill="#bcb9bb"/>
              <path id="패스_656" data-name="패스 656" d="M304.781,120.378l.013-.006c.1.2.144.3.242.494l-.014.006C304.925,120.675,304.876,120.576,304.781,120.378Z" transform="translate(-303.256 -119.654)" fill="#bcb9bb"/>
              <path id="패스_657" data-name="패스 657" d="M306.353,120.449c-.019-.219-.029-.327-.05-.546l.015,0c.021.219.031.327.05.546Z" transform="translate(-303.597 -119.549)" fill="#bcb9bb"/>
              <path id="패스_658" data-name="패스 658" d="M305.494,119.986c-.045-.214-.068-.321-.114-.536l.015,0c.046.215.068.322.114.536Z" transform="translate(-303.39 -119.447)" fill="#bcb9bb"/>
              <path id="패스_659" data-name="패스 659" d="M306.7,121.716c.025-.22.036-.331.058-.55h.016c-.022.22-.033.33-.058.55Z" transform="translate(-303.686 -119.832)" fill="#bcb9bb"/>
              <path id="패스_660" data-name="패스 660" d="M306.914,122.936c.071-.215.105-.323.172-.538l.016,0c-.067.216-.1.323-.172.539Z" transform="translate(-303.734 -120.108)" fill="#bcb9bb"/>
              <path id="패스_661" data-name="패스 661" d="M307.249,123.669c-.11.206-.167.308-.282.512l-.015-.005c.116-.2.172-.307.283-.512Z" transform="translate(-303.742 -120.392)" fill="#bcb9bb"/>
              <path id="패스_662" data-name="패스 662" d="M306.846,125.429c.157-.189.234-.284.384-.475l.014.008c-.151.191-.227.286-.384.475Z" transform="translate(-303.719 -120.681)" fill="#bcb9bb"/>
              <path id="패스_663" data-name="패스 663" d="M306.575,126.709c.209-.156.313-.235.518-.395l.011.01c-.2.16-.307.239-.517.4Z" transform="translate(-303.658 -120.985)" fill="#bcb9bb"/>
              <path id="패스_664" data-name="패스 664" d="M306.152,127.958l-.011-.011c.218-.154.326-.232.539-.39l.012.01C306.479,127.726,306.371,127.8,306.152,127.958Z" transform="translate(-303.561 -121.264)" fill="#bcb9bb"/>
              <path id="패스_665" data-name="패스 665" d="M305.026,121.528l.014-.007c.1.2.147.3.248.493l-.015.006C305.173,121.824,305.124,121.725,305.026,121.528Z" transform="translate(-303.311 -119.912)" fill="#bcb9bb"/>
              <path id="패스_666" data-name="패스 666" d="M305.4,123.14c-.1-.2-.151-.295-.251-.492l.015-.006c.1.2.149.3.251.492Z" transform="translate(-303.339 -120.163)" fill="#bcb9bb"/>
              <path id="패스_667" data-name="패스 667" d="M305.413,124.152c-.1-.2-.151-.295-.251-.493l.016-.006c.1.2.15.3.251.493Z" transform="translate(-303.341 -120.389)" fill="#bcb9bb"/>
              <path id="패스_668" data-name="패스 668" d="M305.039,124.85l.015-.006c.1.2.151.3.252.494l-.016.006C305.189,125.147,305.138,125.049,305.039,124.85Z" transform="translate(-303.314 -120.656)" fill="#bcb9bb"/>
              <path id="패스_669" data-name="패스 669" d="M304.766,125.937l.016-.006c.1.2.149.3.25.5l-.016.006C304.914,126.235,304.865,126.136,304.766,125.937Z" transform="translate(-303.253 -120.899)" fill="#bcb9bb"/>
              <path id="패스_670" data-name="패스 670" d="M304.346,127.005l.016-.006c.1.2.147.3.247.5l-.017.006C304.493,127.3,304.443,127.2,304.346,127.005Z" transform="translate(-303.158 -121.139)" fill="#bcb9bb"/>
              <path id="패스_671" data-name="패스 671" d="M302.868,131.042a11.415,11.415,0,0,0,1.1-1.554.181.181,0,0,0,.187-.043.427.427,0,0,0,.067-.068.308.308,0,0,0-.033.078c-.018.068,0,.131.077.14a11.653,11.653,0,0,1-1.072,1.54l-.023.027C302.984,131.385,302.7,131.245,302.868,131.042Z" transform="translate(-302.816 -121.671)" fill="#bcb9bb"/>
            </g>
            <g id="그룹_50" data-name="그룹 50" transform="translate(1.943 5.823)">
              <path id="패스_672" data-name="패스 672" d="M305.8,126.984a.207.207,0,0,1,.012-.033C305.805,126.962,305.8,126.973,305.8,126.984Z" transform="translate(-305.427 -126.951)" fill="#bcb9bb"/>
              <path id="패스_673" data-name="패스 673" d="M305.32,128.149a.275.275,0,0,1,.016-.034C305.332,128.126,305.326,128.138,305.32,128.149Z" transform="translate(-305.32 -127.212)" fill="#bcb9bb"/>
            </g>
          </g>
        </g>
      </g>
      <path id="패스_674" data-name="패스 674" d="M300.5,125.906v1.973H294.43v-.333l3.244-4.749c.431-.58.764-1.715-.32-1.715a.759.759,0,0,0-.852.839h-1.875a2.615,2.615,0,0,1,2.763-2.812c2.479-.061,3.565,2.393,2.282,4.379l-1.74,2.418Z" transform="translate(-285.786 -111.845)" fill="#adadad"/>
      <path id="패스_675" data-name="패스 675" d="M294.581,127.8v-.181L297.8,122.9a1.69,1.69,0,0,0,.348-1.517.769.769,0,0,0-.765-.38.864.864,0,0,0-.965.839h-1.645a2.5,2.5,0,0,1,2.649-2.579l.088,0a2.522,2.522,0,0,1,2.311,1.27,2.884,2.884,0,0,1-.218,2.93l-1.869,2.6h2.676V127.8Z" transform="translate(-285.581 -111.878)" fill="url(#linear-gradient)"/>
    </g>
  </g>
</svg>
