<svg xmlns="http://www.w3.org/2000/svg" width="23.48" height="33.855" viewBox="0 0 23.48 33.855">
  <g id="그룹_268" data-name="그룹 268" transform="translate(-319.631 -97)">
    <path id="패스_676" data-name="패스 676" d="M330.248,108.912a1.666,1.666,0,0,1,.144-.178A1.645,1.645,0,0,0,330.248,108.912Z" transform="translate(-2.335 -2.581)" fill="none"/>
    <path id="패스_677" data-name="패스 677" d="M329.849,110.032a1.59,1.59,0,0,1,.058-.416A1.562,1.562,0,0,0,329.849,110.032Z" transform="translate(-2.247 -2.775)" fill="none"/>
    <path id="패스_678" data-name="패스 678" d="M330.71,108.442c-.038.027-.069.062-.1.091a1.624,1.624,0,0,1,.242-.176A1.547,1.547,0,0,0,330.71,108.442Z" transform="translate(-2.414 -2.498)" fill="none"/>
    <path id="패스_679" data-name="패스 679" d="M329.989,109.379a1.612,1.612,0,0,1,.1-.24A1.612,1.612,0,0,0,329.989,109.379Z" transform="translate(-2.278 -2.67)" fill="none"/>
    <path id="패스_680" data-name="패스 680" d="M338.917,107.208a1.561,1.561,0,0,1,.355.041A1.561,1.561,0,0,0,338.917,107.208Z" transform="translate(-4.242 -2.245)" fill="none"/>
    <path id="패스_681" data-name="패스 681" d="M336.3,97h-3.429l1.734,4.7Z" transform="translate(-2.911 0)" fill="none"/>
    <path id="패스_682" data-name="패스 682" d="M338.976,108.363c.028.016.058.029.084.046C339.033,108.392,339,108.379,338.976,108.363Z" transform="translate(-4.255 -2.499)" fill="none"/>
    <path id="패스_683" data-name="패스 683" d="M339.949,109.54c.009.032.021.062.03.1C339.97,109.6,339.959,109.572,339.949,109.54Z" transform="translate(-4.469 -2.758)" fill="none"/>
    <path id="패스_684" data-name="패스 684" d="M339.775,109.129c-.006-.011-.016-.019-.023-.03.016.026.03.053.044.08C339.787,109.163,339.783,109.144,339.775,109.129Z" transform="translate(-4.425 -2.661)" fill="none"/>
    <path id="패스_685" data-name="패스 685" d="M338.507,108.178c.035.009.069.021.1.032C338.576,108.2,338.542,108.187,338.507,108.178Z" transform="translate(-4.152 -2.458)" fill="none"/>
    <path id="패스_686" data-name="패스 686" d="M337.806,104.163h1.914L342.481,97h-1.97Z" transform="translate(-3.997 0)" fill="#364e9f"/>
    <path id="패스_687" data-name="패스 687" d="M335.955,104.043,338.9,97h-2.119l-1.7,4.7Z" transform="translate(-3.4 0)" fill="#d92634"/>
    <path id="패스_688" data-name="패스 688" d="M336.243,104.163h1.209L340.159,97h-1.01l-2.95,7.043Z" transform="translate(-3.644 0)" fill="#fff"/>
    <path id="패스_689" data-name="패스 689" d="M337.806,104.163h0L340.512,97h0Z" transform="translate(-3.997 0)" fill="#fff"/>
    <path id="패스_690" data-name="패스 690" d="M337.419,106.983h1.168a1.562,1.562,0,0,1,.355.041,1.544,1.544,0,0,1,.189.066,1.319,1.319,0,0,1,.135.048l.368-.955h-1.913Z" transform="translate(-3.912 -2.02)" fill="#364e9f"/>
    <path id="패스_691" data-name="패스 691" d="M337.419,106.983h1.168a1.562,1.562,0,0,1,.355.041,1.544,1.544,0,0,1,.189.066,1.319,1.319,0,0,1,.135.048l.368-.955h-1.913Z" transform="translate(-3.912 -2.02)" fill="#c6c6c6" style="mix-blend-mode: multiply;isolation: isolate"/>
    <path id="패스_692" data-name="패스 692" d="M336.551,106.983h.612l.3-.8h-1.209Z" transform="translate(-3.656 -2.02)" fill="#fff"/>
    <path id="패스_693" data-name="패스 693" d="M336.551,106.983h.612l.3-.8h-1.209Z" transform="translate(-3.656 -2.02)" fill="#c6c6c6" style="mix-blend-mode: multiply;isolation: isolate"/>
    <path id="패스_694" data-name="패스 694" d="M337.419,106.983h0l.3-.8h0Z" transform="translate(-3.912 -2.02)" fill="#fff"/>
    <path id="패스_695" data-name="패스 695" d="M337.419,106.983h0l.3-.8h0Z" transform="translate(-3.912 -2.02)" fill="#c6c6c6" style="mix-blend-mode: multiply;isolation: isolate"/>
    <path id="패스_696" data-name="패스 696" d="M338.421,107.208h-1.168l-.022.058h-.569l.239.647h.817a1.6,1.6,0,0,1,.385.052c.035.009.069.021.1.032a1.545,1.545,0,0,1,.263.112c.029.016.057.029.084.046a1.585,1.585,0,0,1,.521.528c.006.011.016.019.023.03s.013.034.021.051a1.627,1.627,0,0,1,.11.264c.01.032.021.062.03.1a1.6,1.6,0,0,1,.051.38V110.7c.185.066.369.134.549.209.052.023.1.048.155.07V108.8a1.574,1.574,0,0,0-.229-.818,1.6,1.6,0,0,0-.671-.612,1.489,1.489,0,0,0-.147-.052,1.261,1.261,0,0,0-.544-.108Z" transform="translate(-3.746 -2.245)" fill="#f39c6b"/>
    <path id="패스_697" data-name="패스 697" d="M329.65,109.527a1.561,1.561,0,0,1,.058-.416c.013-.046.035-.087.051-.132a1.618,1.618,0,0,1,.1-.24c.029-.049.065-.092.1-.138a1.647,1.647,0,0,1,.144-.178,1.626,1.626,0,0,1,.135-.118c.036-.029.066-.065.1-.091l-.321-.893-.037.012a1.588,1.588,0,0,0-1.041,1.49V111c.23-.1.467-.186.7-.271Z" transform="translate(-2.049 -2.27)" fill="#f39c6b"/>
    <path id="패스_698" data-name="패스 698" d="M336.634,107.208l.021.057h.569l.022-.057h-.612Z" transform="translate(-3.74 -2.245)" fill="#f39c6b"/>
    <path id="패스_699" data-name="패스 699" d="M339.561,107.327a1.547,1.547,0,0,0-.189-.066A1.547,1.547,0,0,1,339.561,107.327Z" transform="translate(-4.342 -2.257)" fill="#f39c6b"/>
    <path id="패스_700" data-name="패스 700" d="M333.715,102.525l.3-.826L332.279,97h-2.087l2.775,7.163h1.111Z" transform="translate(-2.323 0)" fill="#364e9f"/>
    <path id="패스_701" data-name="패스 701" d="M335.871,105.368l-.865-2.344-.3.826.363,1.638h.749Z" transform="translate(-3.316 -1.325)" fill="#364e9f"/>
    <path id="패스_702" data-name="패스 702" d="M336.229,106.149l-.044-.12-.05.12Z" transform="translate(-3.63 -1.986)" fill="#364e9f"/>
    <path id="패스_703" data-name="패스 703" d="M335.039,106.983l-.178-.8H333.75l.31.8h.978Z" transform="translate(-3.105 -2.02)" fill="#364e9f"/>
    <path id="패스_704" data-name="패스 704" d="M335.174,106.183l.178.8h.237l.335-.8Z" transform="translate(-3.419 -2.02)" fill="#364e9f"/>
    <path id="패스_705" data-name="패스 705" d="M336.04,106.183l-.335.8h.725l-.3-.8Z" transform="translate(-3.535 -2.02)" fill="#364e9f"/>
    <path id="패스_706" data-name="패스 706" d="M330.784,104.963v-.8h.176L328.339,97h-1.728l2.9,8.051a1.568,1.568,0,0,1,.513-.088Z" transform="translate(-1.535 0)" fill="#d92634"/>
    <path id="패스_707" data-name="패스 707" d="M331.961,106.183v.8h.468l-.293-.8Z" transform="translate(-2.712 -2.02)" fill="#d92634"/>
    <path id="패스_708" data-name="패스 708" d="M329.892,97h-1.066l2.621,7.163h1.221Z" transform="translate(-2.022 0)" fill="#fff"/>
    <path id="패스_709" data-name="패스 709" d="M333.716,106.983l-.31-.8h-1.221l.293.8h1.238Z" transform="translate(-2.761 -2.02)" fill="#fff"/>
    <path id="패스_710" data-name="패스 710" d="M335.139,107.265l-.013-.057h-.978l.273.7h1.927l-.239-.647h-.97Z" transform="translate(-3.193 -2.245)" fill="#364e9f"/>
    <path id="패스_711" data-name="패스 711" d="M335.414,107.265h.2l.024-.057H335.4Z" transform="translate(-3.469 -2.245)" fill="#364e9f"/>
    <path id="패스_712" data-name="패스 712" d="M336.385,107.208H335.7l-.024.057h.77l-.021-.057Z" transform="translate(-3.529 -2.245)" fill="#364e9f"/>
    <path id="패스_713" data-name="패스 713" d="M330.786,108.1a1.583,1.583,0,0,1,.758-.192h.783l-.257-.7h-1.23a1.568,1.568,0,0,0-.513.088l.321.893A1.541,1.541,0,0,1,330.786,108.1Z" transform="translate(-2.352 -2.245)" fill="#d92634"/>
    <path id="패스_714" data-name="패스 714" d="M334.072,107.913l-.273-.7h-1.238l.258.7h1.253Z" transform="translate(-2.844 -2.245)" fill="#fff"/>
    <path id="패스_715" data-name="패스 715" d="M338.639,108.219a1.569,1.569,0,0,1,.263.112A1.543,1.543,0,0,0,338.639,108.219Z" transform="translate(-4.181 -2.467)" fill="#f39c6b"/>
    <path id="패스_716" data-name="패스 716" d="M330.432,108.7a1.634,1.634,0,0,1,.135-.118A1.618,1.618,0,0,0,330.432,108.7Z" transform="translate(-2.376 -2.548)" fill="#f39c6b"/>
    <path id="패스_717" data-name="패스 717" d="M338.014,108.111a1.561,1.561,0,0,1,.385.052A1.6,1.6,0,0,0,338.014,108.111Z" transform="translate(-4.043 -2.444)" fill="#f39c6b"/>
    <path id="패스_718" data-name="패스 718" d="M339.605,108.95a1.584,1.584,0,0,0-.521-.528A1.6,1.6,0,0,1,339.605,108.95Z" transform="translate(-4.278 -2.512)" fill="#f39c6b"/>
    <path id="패스_719" data-name="패스 719" d="M339.987,109.662a1.567,1.567,0,0,1,.051.38A1.607,1.607,0,0,0,339.987,109.662Z" transform="translate(-4.477 -2.785)" fill="#f39c6b"/>
    <path id="패스_720" data-name="패스 720" d="M330.123,109.1c.028-.049.065-.092.1-.138C330.188,109.008,330.152,109.051,330.123,109.1Z" transform="translate(-2.308 -2.631)" fill="#f39c6b"/>
    <path id="패스_721" data-name="패스 721" d="M339.808,109.2a1.632,1.632,0,0,1,.11.264A1.633,1.633,0,0,0,339.808,109.2Z" transform="translate(-4.438 -2.684)" fill="#f39c6b"/>
    <path id="패스_722" data-name="패스 722" d="M329.923,109.579c.012-.046.035-.087.052-.132C329.958,109.491,329.935,109.533,329.923,109.579Z" transform="translate(-2.264 -2.738)" fill="#f39c6b"/>
    <path id="패스_723" data-name="패스 723" d="M340.971,112.045l-.016-.008h0Z" transform="translate(-4.69 -3.307)" fill="#fba66b"/>
    <path id="패스_724" data-name="패스 724" d="M340.911,112.017h0c-.052-.023-.1-.048-.155-.07C340.808,111.969,340.859,111.995,340.911,112.017Z" transform="translate(-4.646 -3.287)" fill="#fba66b"/>
    <path id="패스_725" data-name="패스 725" d="M339.214,111.406c.093.027.186.054.279.083C339.4,111.46,339.307,111.433,339.214,111.406Z" transform="translate(-4.307 -3.168)" fill="#fba66b"/>
    <path id="패스_726" data-name="패스 726" d="M336.115,110.843c-.383-.038-.771-.059-1.165-.059C335.344,110.784,335.732,110.805,336.115,110.843Z" transform="translate(-3.369 -3.032)" fill="#f6f6f6"/>
    <path id="패스_727" data-name="패스 727" d="M340.6,111.888c-.18-.075-.364-.143-.549-.209v.009C340.235,111.753,340.422,111.813,340.6,111.888Z" transform="translate(-4.491 -3.228)" fill="#fff"/>
    <path id="패스_728" data-name="패스 728" d="M339.946,111.651v-.009c-.125-.045-.25-.088-.375-.129C339.7,111.554,339.821,111.606,339.946,111.651Z" transform="translate(-4.386 -3.192)" fill="#fff"/>
    <path id="패스_729" data-name="패스 729" d="M340.052,112.626c.186.074.369.154.551.237l.154-.154v-.749c-.052-.023-.1-.048-.155-.07-.179-.075-.366-.135-.549-.2Z" transform="translate(-4.491 -3.231)" fill="#fff"/>
    <path id="패스_730" data-name="패스 730" d="M340.6,113.127c-.182-.083-.364-.163-.551-.237v.788Z" transform="translate(-4.491 -3.495)" fill="#fff"/>
    <path id="패스_731" data-name="패스 731" d="M340.912,113.225V113l-.154.154C340.81,113.174,340.86,113.2,340.912,113.225Z" transform="translate(-4.647 -3.518)" fill="#f6f6f6"/>
    <g id="그룹_66" data-name="그룹 66" transform="translate(319.631 107.376)">
      <g id="그룹_56" data-name="그룹 56">
        <path id="패스_732" data-name="패스 732" d="M320.512,122.041a10.86,10.86,0,0,1,18.538-7.679l.622-.622a11.74,11.74,0,0,0-16.6,16.6l.622-.622A10.827,10.827,0,0,1,320.512,122.041Z" transform="translate(-319.631 -110.301)" fill="#fba66b"/>
        <path id="패스_733" data-name="패스 733" d="M340.642,114.709l-.623.622a10.86,10.86,0,0,1-15.358,15.358l-.623.622a11.74,11.74,0,0,0,16.6-16.6Z" transform="translate(-320.6 -111.27)" fill="#c5774d"/>
        <path id="패스_734" data-name="패스 734" d="M339.3,114.61a10.86,10.86,0,1,0,3.18,7.679A10.828,10.828,0,0,0,339.3,114.61Zm-7.679,16.483a8.8,8.8,0,1,1,8.8-8.8A8.778,8.778,0,0,1,331.619,131.094Z" transform="translate(-319.879 -110.549)" fill="#f39c6b"/>
        <path id="패스_735" data-name="패스 735" d="M332.925,132.4a8.8,8.8,0,0,0,6.226-15.03l-.623.622A7.924,7.924,0,1,1,327.322,129.2l-.623.622A8.778,8.778,0,0,0,332.925,132.4Z" transform="translate(-321.185 -111.856)" fill="#fba66b"/>
        <path id="패스_736" data-name="패스 736" d="M324.274,122.869a7.924,7.924,0,0,1,13.528-5.6l.622-.622a8.8,8.8,0,0,0-12.452,12.451l.623-.622A7.9,7.9,0,0,1,324.274,122.869Z" transform="translate(-320.459 -111.129)" fill="#c5774d"/>
        <path id="패스_737" data-name="패스 737" d="M338.05,117.513a7.925,7.925,0,1,0,2.321,5.6A7.9,7.9,0,0,0,338.05,117.513Z" transform="translate(-320.707 -111.377)" fill="#f39c6b"/>
      </g>
      <g id="그룹_64" data-name="그룹 64" transform="translate(4.705 7.567)">
        <g id="그룹_63" data-name="그룹 63">
          <g id="그룹_59" data-name="그룹 59">
            <g id="그룹_57" data-name="그룹 57">
              <path id="패스_738" data-name="패스 738" d="M326.033,123.954a2.02,2.02,0,0,0,0,.364,1.218,1.218,0,0,0,.161.441.69.69,0,0,0,.218.25c.133.071.193-.051.193-.158a.263.263,0,0,1,0-.034,2.415,2.415,0,0,0-.339-.741c-.075-.143-.187-.371-.187-.371s-.022.069-.025.08A.7.7,0,0,0,326.033,123.954Z" transform="translate(-325.742 -120.815)" fill="#c5774d"/>
              <path id="패스_739" data-name="패스 739" d="M326.272,125.3c-.094-.137-.236-.356-.236-.356s-.014.071-.016.083a.745.745,0,0,0,0,.172,1.989,1.989,0,0,0,.045.364,1.264,1.264,0,0,0,.22.428.738.738,0,0,0,.254.232c.145.06.189-.068.175-.175a.313.313,0,0,1-.007-.034A2.572,2.572,0,0,0,326.272,125.3Z" transform="translate(-325.74 -121.089)" fill="#c5774d"/>
              <path id="패스_740" data-name="패스 740" d="M326.434,126.537c-.113-.129-.286-.337-.286-.337s-.005.073-.005.085a.763.763,0,0,0,.026.172,1.973,1.973,0,0,0,.094.362,1.358,1.358,0,0,0,.281.412.809.809,0,0,0,.289.211c.155.048.182-.086.154-.192a.33.33,0,0,1-.012-.034A2.779,2.779,0,0,0,326.434,126.537Z" transform="translate(-325.768 -121.364)" fill="#c5774d"/>
              <path id="패스_741" data-name="패스 741" d="M326.981,125.042a.587.587,0,0,0,.186-.232,1.255,1.255,0,0,0,.142-.392,3.041,3.041,0,0,0,.02-.327.788.788,0,0,0,0-.154c0-.011-.013-.077-.013-.077s-.142.182-.226.3a1.346,1.346,0,0,0-.327.687.246.246,0,0,1,0,.034C326.78,124.99,326.859,125.11,326.981,125.042Z" transform="translate(-325.904 -120.85)" fill="#c5774d"/>
              <path id="패스_742" data-name="패스 742" d="M326.764,125.129a.263.263,0,0,0,0,.034A.246.246,0,0,0,326.764,125.129Z" transform="translate(-325.904 -121.129)" fill="#c5774d"/>
              <path id="패스_743" data-name="패스 743" d="M327.152,125.311a1.28,1.28,0,0,0-.246.716.244.244,0,0,1,.007.034c.027.1.123.219.238.14a.557.557,0,0,0,.158-.249,1.208,1.208,0,0,0,.1-.4,3.08,3.08,0,0,0-.02-.328.754.754,0,0,0-.016-.155c0-.011-.023-.076-.023-.076S327.223,125.182,327.152,125.311Z" transform="translate(-325.935 -121.098)" fill="#c5774d"/>
              <path id="패스_744" data-name="패스 744" d="M326.914,126.354a.235.235,0,0,0-.007-.034A.306.306,0,0,0,326.914,126.354Z" transform="translate(-325.936 -121.391)" fill="#c5774d"/>
              <path id="패스_745" data-name="패스 745" d="M327.358,126.459a1.231,1.231,0,0,0-.154.74.249.249,0,0,1,.012.034c.042.1.155.21.261.12a.542.542,0,0,0,.127-.264,1.221,1.221,0,0,0,.043-.415,3.14,3.14,0,0,0-.064-.328.75.75,0,0,0-.036-.154c0-.01-.032-.074-.032-.074S327.414,126.323,327.358,126.459Z" transform="translate(-325.997 -121.346)" fill="#c5774d"/>
              <path id="패스_746" data-name="패스 746" d="M326.811,121.67a3.191,3.191,0,0,1,.109.441,1.8,1.8,0,0,1,.289-.342l.094-.1.076-.075a.826.826,0,0,0,.012-.255c0-.126-.032-.24-.046-.364a1.093,1.093,0,0,0-.025-.172c0-.005-.01-.024-.016-.042-.017.01-.035.019-.04.023a.871.871,0,0,0-.129.122,2.389,2.389,0,0,0-.255.282.719.719,0,0,0-.129.237l.026.108Q326.791,121.6,326.811,121.67Z" transform="translate(-325.901 -120.169)" fill="#c5774d"/>
              <path id="패스_747" data-name="패스 747" d="M327.891,128.916a.212.212,0,0,1-.169-.031.129.129,0,0,1-.1.1h0a.252.252,0,0,1-.111,0,.45.45,0,0,1-.059-.016l.008.022c.031.023.064.046.1.068a4.962,4.962,0,0,1,.444.318,1.378,1.378,0,0,1,0-.442c0-.032.008-.064.012-.094l-.014-.019a.256.256,0,0,1-.03.04A.18.18,0,0,1,327.891,128.916Z" transform="translate(-326.056 -121.942)" fill="#c5774d"/>
              <path id="패스_748" data-name="패스 748" d="M327.167,128.117c-.13-.121-.275-.234-.406-.353s-.337-.314-.337-.314.005.074.007.086a.783.783,0,0,0,.05.172,2.15,2.15,0,0,0,.147.357,1.476,1.476,0,0,0,.342.39,1.668,1.668,0,0,0,.179.128.487.487,0,0,0,.144.059c.163.034.171-.1.127-.206a.337.337,0,0,1-.016-.034A1.248,1.248,0,0,0,327.167,128.117Z" transform="translate(-325.83 -121.639)" fill="#c5774d"/>
              <path id="패스_749" data-name="패스 749" d="M327.667,128.354a.269.269,0,0,1,.016.034c.058.1.188.2.281.1a.274.274,0,0,0,.058-.108,1.089,1.089,0,0,0,.032-.169,1.217,1.217,0,0,0-.014-.421,3.38,3.38,0,0,0-.109-.324.779.779,0,0,0-.057-.151c-.005-.01-.043-.072-.043-.072s-.074.215-.112.356a2.644,2.644,0,0,0-.094.433A.7.7,0,0,0,327.667,128.354Z" transform="translate(-326.093 -121.593)" fill="#c5774d"/>
              <path id="패스_750" data-name="패스 750" d="M326.992,123.146l.062-.073v-.021a.468.468,0,0,1-.045.021.2.2,0,0,1-.094.012.152.152,0,0,1-.114-.09.146.146,0,0,1-.135.049h0a.186.186,0,0,1-.086-.041.437.437,0,0,1-.038-.038l-.006.02c.012.032.025.064.039.1a3.287,3.287,0,0,1,.162.431A1.729,1.729,0,0,1,326.992,123.146Z" transform="translate(-325.854 -120.652)" fill="#c5774d"/>
              <path id="패스_751" data-name="패스 751" d="M326.9,124.25a.191.191,0,0,1-.094.019.16.16,0,0,1-.126-.08.15.15,0,0,1-.133.06h0a.2.2,0,0,1-.093-.034.362.362,0,0,1-.044-.035l0,.02c.016.03.034.062.051.093a3.407,3.407,0,0,1,.218.417,1.618,1.618,0,0,1,.217-.385c.019-.026.037-.052.055-.078l0-.021A.32.32,0,0,1,326.9,124.25Z" transform="translate(-325.826 -120.92)" fill="#c5774d"/>
              <path id="패스_752" data-name="패스 752" d="M326.767,125.913a1.512,1.512,0,0,1,.172-.4l.046-.083-.005-.021a.237.237,0,0,1-.042.029.185.185,0,0,1-.094.027.172.172,0,0,1-.139-.069.146.146,0,0,1-.127.072h0a.207.207,0,0,1-.1-.027.3.3,0,0,1-.048-.031l0,.021c.02.03.042.059.064.089A3.625,3.625,0,0,1,326.767,125.913Z" transform="translate(-325.831 -121.186)" fill="#c5774d"/>
              <path id="패스_753" data-name="패스 753" d="M327.173,126.6l-.009-.021a.215.215,0,0,1-.038.033.19.19,0,0,1-.091.036.186.186,0,0,1-.151-.059.141.141,0,0,1-.119.083h0a.227.227,0,0,1-.1-.019.312.312,0,0,1-.053-.027v.021c.024.028.05.056.076.083a4.089,4.089,0,0,1,.332.377,1.45,1.45,0,0,1,.121-.421Z" transform="translate(-325.87 -121.448)" fill="#c5774d"/>
              <path id="패스_754" data-name="패스 754" d="M327.388,127.817a.2.2,0,0,1-.161-.045.132.132,0,0,1-.109.094h0a.219.219,0,0,1-.108-.009.363.363,0,0,1-.059-.023l0,.021c.029.026.059.052.09.077a4.622,4.622,0,0,1,.389.349,1.4,1.4,0,0,1,.063-.434l.023-.091-.011-.019a.3.3,0,0,1-.034.036A.178.178,0,0,1,327.388,127.817Z" transform="translate(-325.946 -121.702)" fill="#c5774d"/>
              <path id="패스_755" data-name="패스 755" d="M326.768,122.1c-.034-.149-.083-.3-.12-.445s-.092-.391-.092-.391-.035.064-.041.076a.775.775,0,0,0-.054.164,2.236,2.236,0,0,0-.082.354,1.27,1.27,0,0,0,.115.624.334.334,0,0,0,.08.106c.108.09.191-.019.216-.122a.168.168,0,0,1,.006-.034A1,1,0,0,0,326.768,122.1Z" transform="translate(-325.819 -120.28)" fill="#c5774d"/>
              <path id="패스_756" data-name="패스 756" d="M326.39,122.857c-.055-.149-.139-.382-.139-.382l-.034.078a.838.838,0,0,0-.037.168,2.15,2.15,0,0,0-.043.36,1.2,1.2,0,0,0,.1.449.637.637,0,0,0,.182.264c.091.061.155.009.186-.065a.319.319,0,0,0,.019-.075.254.254,0,0,1,0-.035,2.217,2.217,0,0,0-.235-.743Z" transform="translate(-325.767 -120.545)" fill="#c5774d"/>
              <path id="패스_757" data-name="패스 757" d="M327.064,122.227a.781.781,0,0,0-.15.289c0,.011,0,.023-.006.034-.012.105.035.234.164.187a.34.34,0,0,0,.107-.068,1.385,1.385,0,0,0,.119-.129,1.331,1.331,0,0,0,.22-.36,3.189,3.189,0,0,0,.09-.317.817.817,0,0,0,.036-.152c0-.011,0-.077,0-.077s-.172.157-.276.262A3.63,3.63,0,0,0,327.064,122.227Z" transform="translate(-325.936 -120.36)" fill="#c5774d"/>
              <path id="패스_758" data-name="패스 758" d="M326.908,122.8c0-.012,0-.023.006-.034A.17.17,0,0,0,326.908,122.8Z" transform="translate(-325.936 -120.609)" fill="#c5774d"/>
              <path id="패스_759" data-name="패스 759" d="M326.779,123.787c.023.08.083.141.179.1a.609.609,0,0,0,.208-.215,1.3,1.3,0,0,0,.183-.377,2.993,2.993,0,0,0,.056-.323.766.766,0,0,0,.02-.154c0-.011,0-.077,0-.077s-.159.168-.254.283l-.014.017a1.354,1.354,0,0,0-.383.637.29.29,0,0,1,0,.035A.275.275,0,0,0,326.779,123.787Z" transform="translate(-325.905 -120.603)" fill="#c5774d"/>
              <path id="패스_760" data-name="패스 760" d="M326.77,123.941a.249.249,0,0,0,0,.035A.291.291,0,0,0,326.77,123.941Z" transform="translate(-325.905 -120.868)" fill="#c5774d"/>
              <path id="패스_761" data-name="패스 761" d="M328.333,129.809l-.006-.009.006.009Z" transform="translate(-326.248 -122.156)" fill="#c5774d"/>
              <path id="패스_762" data-name="패스 762" d="M328.334,129.809l-.006-.009.006.009Z" transform="translate(-326.248 -122.156)" fill="#c5774d"/>
              <path id="패스_763" data-name="패스 763" d="M328.334,129.809l-.006-.009.006.009Z" transform="translate(-326.248 -122.156)" fill="#c5774d"/>
              <path id="패스_764" data-name="패스 764" d="M328.335,129.811h0Z" transform="translate(-326.25 -122.159)" fill="#c5774d"/>
              <path id="패스_765" data-name="패스 765" d="M328.335,129.811h0Z" transform="translate(-326.25 -122.159)" fill="#c5774d"/>
              <path id="패스_766" data-name="패스 766" d="M328.335,129.811h0a.241.241,0,0,0,.016.024.262.262,0,0,0-.016-.024Z" transform="translate(-326.25 -122.159)" fill="#c5774d"/>
              <path id="패스_767" data-name="패스 767" d="M328.015,129.563l-.006-.009a3.209,3.209,0,0,0-.721-.568l-.023-.016-.386-.287s.016.074.019.086a.812.812,0,0,0,.076.168,2.278,2.278,0,0,0,.2.346,1.6,1.6,0,0,0,.406.363.952.952,0,0,0,.354.16.2.2,0,0,0,.053,0c.081-.009.1-.073.077-.141a.31.31,0,0,0-.034-.078.262.262,0,0,1-.016-.024Z" transform="translate(-325.93 -121.911)" fill="#c5774d"/>
              <path id="패스_768" data-name="패스 768" d="M328.351,129.835l-.016-.024Z" transform="translate(-326.25 -122.159)" fill="#c5774d"/>
              <path id="패스_769" data-name="패스 769" d="M328.358,128.411c-.007-.01-.053-.068-.053-.068s-.047.221-.063.367l0,.021a1.154,1.154,0,0,0,.061.748l.006.009h0a.255.255,0,0,1,.016.024.4.4,0,0,0,.067.068.181.181,0,0,0,.187.043.124.124,0,0,0,.044-.038.5.5,0,0,0,.05-.288,1.266,1.266,0,0,0-.076-.423c-.041-.111-.105-.209-.157-.316A.844.844,0,0,0,328.358,128.411Z" transform="translate(-326.222 -121.836)" fill="#c5774d"/>
              <path id="패스_770" data-name="패스 770" d="M328.351,129.835l-.016-.024Z" transform="translate(-326.25 -122.159)" fill="#c5774d"/>
              <path id="패스_771" data-name="패스 771" d="M328.169,120.931l-.014-.006c-.1.2-.144.3-.243.5l.013.006C328.024,121.229,328.073,121.13,328.169,120.931Z" transform="translate(-326.157 -120.204)" fill="#c5774d"/>
              <path id="패스_772" data-name="패스 772" d="M326.649,121c.02-.219.03-.329.051-.549l-.015,0c-.021.22-.031.329-.051.549Z" transform="translate(-325.876 -120.101)" fill="#c5774d"/>
              <path id="패스_773" data-name="패스 773" d="M327.49,120.542,327.6,120l-.014,0-.115.538Z" transform="translate(-326.061 -120.001)" fill="#c5774d"/>
              <path id="패스_774" data-name="패스 774" d="M326.3,122.272c-.025-.222-.037-.332-.058-.553h-.016c.022.222.034.332.058.553Z" transform="translate(-325.785 -120.379)" fill="#c5774d"/>
              <path id="패스_775" data-name="패스 775" d="M326.054,123.492c-.071-.217-.106-.325-.173-.541l-.015,0c.067.217.1.325.172.541Z" transform="translate(-325.707 -120.65)" fill="#c5774d"/>
              <path id="패스_776" data-name="패스 776" d="M325.686,124.222c.111.207.168.31.284.515l.015-.005c-.116-.205-.172-.308-.284-.515Z" transform="translate(-325.667 -120.928)" fill="#c5774d"/>
              <path id="패스_777" data-name="패스 777" d="M326.062,125.984c-.157-.19-.234-.285-.386-.477l-.014.008c.152.192.229.287.386.477Z" transform="translate(-325.662 -121.212)" fill="#c5774d"/>
              <path id="패스_778" data-name="패스 778" d="M326.3,127.264c-.211-.157-.314-.236-.52-.4l-.012.01c.205.161.31.24.52.4Z" transform="translate(-325.685 -121.511)" fill="#c5774d"/>
              <path id="패스_779" data-name="패스 779" d="M326.713,128.514l.012-.011c-.22-.154-.328-.232-.542-.392l-.012.01C326.385,128.28,326.494,128.358,326.713,128.514Z" transform="translate(-325.774 -121.785)" fill="#c5774d"/>
              <path id="패스_780" data-name="패스 780" d="M327.921,122.081l-.014-.006c-.1.2-.148.3-.248.495l.014.006C327.774,122.378,327.823,122.279,327.921,122.081Z" transform="translate(-326.101 -120.457)" fill="#c5774d"/>
              <path id="패스_781" data-name="패스 781" d="M327.542,123.7c.1-.2.151-.3.251-.495l-.015-.006c-.1.2-.15.3-.251.495Z" transform="translate(-326.072 -120.703)" fill="#c5774d"/>
              <path id="패스_782" data-name="패스 782" d="M327.531,124.708c.1-.2.153-.3.253-.5l-.015-.006c-.1.2-.151.3-.254.5Z" transform="translate(-326.069 -120.926)" fill="#c5774d"/>
              <path id="패스_783" data-name="패스 783" d="M327.907,125.4l-.016-.007c-.1.2-.151.3-.253.5l.016.006C327.757,125.7,327.806,125.6,327.907,125.4Z" transform="translate(-326.097 -121.188)" fill="#c5774d"/>
              <path id="패스_784" data-name="패스 784" d="M328.181,126.49l-.016-.006c-.1.2-.15.3-.251.5l.016.006C328.031,126.79,328.081,126.69,328.181,126.49Z" transform="translate(-326.157 -121.427)" fill="#c5774d"/>
              <path id="패스_785" data-name="패스 785" d="M328.6,127.558l-.017-.006c-.1.2-.147.3-.247.5l.016.006C328.454,127.859,328.5,127.759,328.6,127.558Z" transform="translate(-326.25 -121.662)" fill="#c5774d"/>
              <path id="패스_786" data-name="패스 786" d="M329.742,131.6a11.486,11.486,0,0,1-1.1-1.562.182.182,0,0,1-.188-.043.391.391,0,0,1-.066-.068.312.312,0,0,1,.033.078c.017.068,0,.132-.078.142a11.777,11.777,0,0,0,1.078,1.548l.023.028C329.625,131.949,329.914,131.808,329.742,131.6Z" transform="translate(-326.251 -122.185)" fill="#c5774d"/>
            </g>
            <g id="그룹_58" data-name="그룹 58" transform="translate(1.207 5.853)">
              <path id="패스_787" data-name="패스 787" d="M327.221,127.538a.245.245,0,0,0-.012-.034A.33.33,0,0,0,327.221,127.538Z" transform="translate(-327.209 -127.504)" fill="#c5774d"/>
              <path id="패스_788" data-name="패스 788" d="M327.7,128.7a.276.276,0,0,0-.016-.034A.352.352,0,0,0,327.7,128.7Z" transform="translate(-327.313 -127.76)" fill="#c5774d"/>
            </g>
          </g>
          <g id="그룹_62" data-name="그룹 62" transform="translate(10.527)">
            <g id="그룹_60" data-name="그룹 60">
              <path id="패스_789" data-name="패스 789" d="M343.165,123.954a2.1,2.1,0,0,1,0,.364,1.219,1.219,0,0,1-.161.441.685.685,0,0,1-.218.25c-.133.071-.192-.051-.192-.158a.249.249,0,0,0,0-.034,2.4,2.4,0,0,1,.339-.741c.074-.143.187-.371.187-.371s.022.069.025.08A.788.788,0,0,1,343.165,123.954Z" transform="translate(-339.913 -120.815)" fill="#c5774d"/>
              <path id="패스_790" data-name="패스 790" d="M342.891,125.3c.094-.137.237-.356.237-.356l.016.083a.743.743,0,0,1,0,.172,1.989,1.989,0,0,1-.045.364,1.264,1.264,0,0,1-.22.428.733.733,0,0,1-.254.232c-.144.06-.189-.068-.175-.175a.293.293,0,0,0,.007-.034A2.551,2.551,0,0,1,342.891,125.3Z" transform="translate(-339.879 -121.089)" fill="#c5774d"/>
              <path id="패스_791" data-name="패스 791" d="M342.687,126.537c.113-.129.287-.337.287-.337s0,.073,0,.085a.722.722,0,0,1-.026.172,2.047,2.047,0,0,1-.094.362,1.357,1.357,0,0,1-.281.412.812.812,0,0,1-.289.211c-.155.048-.182-.086-.153-.192a.211.211,0,0,0,.011-.034A2.8,2.8,0,0,1,342.687,126.537Z" transform="translate(-339.809 -121.364)" fill="#c5774d"/>
              <path id="패스_792" data-name="패스 792" d="M342.22,125.042a.586.586,0,0,1-.186-.232,1.234,1.234,0,0,1-.142-.392,3.033,3.033,0,0,1-.02-.327.729.729,0,0,1,0-.154c0-.011.012-.077.012-.077s.143.182.227.3a1.353,1.353,0,0,1,.326.687c0,.011,0,.023,0,.034C342.421,124.99,342.341,125.11,342.22,125.042Z" transform="translate(-339.753 -120.85)" fill="#c5774d"/>
              <path id="패스_793" data-name="패스 793" d="M342.6,125.129a.249.249,0,0,1,0,.034C342.595,125.152,342.6,125.14,342.6,125.129Z" transform="translate(-339.913 -121.129)" fill="#c5774d"/>
              <path id="패스_794" data-name="패스 794" d="M342.068,125.311a1.28,1.28,0,0,1,.246.716.253.253,0,0,0-.007.034c-.027.1-.124.219-.238.14a.558.558,0,0,1-.159-.249,1.226,1.226,0,0,1-.1-.4c-.005-.111.016-.218.021-.328a.709.709,0,0,1,.016-.155c0-.011.022-.071.022-.076S342,125.182,342.068,125.311Z" transform="translate(-339.741 -121.098)" fill="#c5774d"/>
              <path id="패스_795" data-name="패스 795" d="M342.446,126.354a.257.257,0,0,1,.007-.034A.281.281,0,0,1,342.446,126.354Z" transform="translate(-339.88 -121.391)" fill="#c5774d"/>
              <path id="패스_796" data-name="패스 796" d="M341.872,126.459a1.226,1.226,0,0,1,.154.74c0,.011-.008.022-.011.034-.042.1-.156.21-.261.12a.528.528,0,0,1-.127-.264,1.22,1.22,0,0,1-.043-.415c.009-.112.044-.217.063-.328a.806.806,0,0,1,.037-.154c0-.01.032-.074.032-.074S341.818,126.323,341.872,126.459Z" transform="translate(-339.69 -121.346)" fill="#c5774d"/>
              <path id="패스_797" data-name="패스 797" d="M342.368,121.67a3.3,3.3,0,0,0-.109.441,1.827,1.827,0,0,0-.288-.342l-.1-.1-.075-.075a.827.827,0,0,1-.013-.255c0-.126.032-.24.045-.364a1.009,1.009,0,0,1,.026-.172c0-.005.01-.024.016-.042.016.01.035.019.04.023a.864.864,0,0,1,.129.122,2.394,2.394,0,0,1,.256.282.734.734,0,0,1,.129.237l-.026.108C342.393,121.579,342.382,121.624,342.368,121.67Z" transform="translate(-339.734 -120.169)" fill="#c5774d"/>
              <path id="패스_798" data-name="패스 798" d="M341.312,128.916a.209.209,0,0,0,.168-.031.13.13,0,0,0,.1.1h0a.249.249,0,0,0,.11,0,.463.463,0,0,0,.06-.016l-.008.022c-.032.023-.065.046-.1.068a5.07,5.07,0,0,0-.443.318,1.4,1.4,0,0,0,0-.442c0-.032-.008-.064-.012-.094l.014-.019a.3.3,0,0,0,.03.04A.183.183,0,0,0,341.312,128.916Z" transform="translate(-339.603 -121.942)" fill="#c5774d"/>
              <path id="패스_799" data-name="패스 799" d="M341.908,128.117c.129-.121.275-.234.4-.353s.337-.314.337-.314,0,.074-.006.086a.782.782,0,0,1-.05.172,2.15,2.15,0,0,1-.147.357,1.465,1.465,0,0,1-.343.39,1.742,1.742,0,0,1-.178.128.5.5,0,0,1-.144.059c-.163.034-.171-.1-.128-.206a.234.234,0,0,0,.016-.034A1.252,1.252,0,0,1,341.908,128.117Z" transform="translate(-339.701 -121.639)" fill="#c5774d"/>
              <path id="패스_800" data-name="패스 800" d="M341.568,128.354c-.005.011-.012.023-.016.034-.057.1-.187.2-.28.1a.273.273,0,0,1-.059-.108,1.1,1.1,0,0,1-.033-.169,1.236,1.236,0,0,1,.015-.421,3.365,3.365,0,0,1,.108-.324.783.783,0,0,1,.058-.151l.042-.072s.074.215.112.356a2.65,2.65,0,0,1,.094.433A.7.7,0,0,1,341.568,128.354Z" transform="translate(-339.599 -121.593)" fill="#c5774d"/>
              <path id="패스_801" data-name="패스 801" d="M342.224,123.146l-.062-.073v-.021a.394.394,0,0,0,.045.021.2.2,0,0,0,.094.012.151.151,0,0,0,.114-.09.148.148,0,0,0,.135.049h0a.185.185,0,0,0,.087-.041.351.351,0,0,0,.037-.038l.007.02c-.013.032-.025.064-.039.1a3.292,3.292,0,0,0-.162.431A1.725,1.725,0,0,0,342.224,123.146Z" transform="translate(-339.818 -120.652)" fill="#c5774d"/>
              <path id="패스_802" data-name="패스 802" d="M342.307,124.25a.192.192,0,0,0,.094.019.161.161,0,0,0,.127-.08.149.149,0,0,0,.132.06h0a.2.2,0,0,0,.093-.034.311.311,0,0,0,.044-.035l0,.02c-.016.03-.034.062-.051.093a3.411,3.411,0,0,0-.218.417,1.621,1.621,0,0,0-.218-.385l-.055-.078,0-.021A.314.314,0,0,0,342.307,124.25Z" transform="translate(-339.839 -120.92)" fill="#c5774d"/>
              <path id="패스_803" data-name="패스 803" d="M342.438,125.913a1.536,1.536,0,0,0-.172-.4l-.046-.083.005-.021a.232.232,0,0,0,.041.029.187.187,0,0,0,.094.027.174.174,0,0,0,.14-.069.146.146,0,0,0,.127.072h0a.207.207,0,0,0,.1-.027.292.292,0,0,0,.048-.031l0,.021q-.03.044-.063.089A3.634,3.634,0,0,0,342.438,125.913Z" transform="translate(-339.83 -121.186)" fill="#c5774d"/>
              <path id="패스_804" data-name="패스 804" d="M342.029,126.6l.009-.021a.288.288,0,0,0,.038.033.186.186,0,0,0,.092.035.184.184,0,0,0,.151-.058.141.141,0,0,0,.119.083h0a.223.223,0,0,0,.1-.019.348.348,0,0,0,.054-.027v.021c-.025.028-.05.056-.076.083a3.97,3.97,0,0,0-.332.377,1.475,1.475,0,0,0-.121-.421C342.052,126.657,342.041,126.627,342.029,126.6Z" transform="translate(-339.788 -121.448)" fill="#c5774d"/>
              <path id="패스_805" data-name="패스 805" d="M341.812,127.817a.2.2,0,0,0,.161-.045.135.135,0,0,0,.11.094h0a.22.22,0,0,0,.108-.009.353.353,0,0,0,.058-.023l0,.021c-.028.026-.059.052-.089.077a4.5,4.5,0,0,0-.389.349,1.4,1.4,0,0,0-.063-.434c-.009-.03-.016-.062-.024-.091l.012-.019a.3.3,0,0,0,.034.036A.186.186,0,0,0,341.812,127.817Z" transform="translate(-339.711 -121.702)" fill="#c5774d"/>
              <path id="패스_806" data-name="패스 806" d="M342.473,122.1c.035-.149.084-.3.121-.445s.092-.392.092-.392.035.064.041.076a.776.776,0,0,1,.054.164,2.156,2.156,0,0,1,.081.354,1.179,1.179,0,0,1-.049.453,1.193,1.193,0,0,1-.065.171.338.338,0,0,1-.081.106c-.107.09-.19-.019-.215-.122a.247.247,0,0,0-.006-.034A1.024,1.024,0,0,1,342.473,122.1Z" transform="translate(-339.879 -120.28)" fill="#c5774d"/>
              <path id="패스_807" data-name="패스 807" d="M342.833,122.857c.055-.149.139-.382.139-.382l.034.078a.783.783,0,0,1,.036.168,2.073,2.073,0,0,1,.043.36,1.17,1.17,0,0,1-.1.449.628.628,0,0,1-.181.264c-.091.061-.155.009-.186-.065a.287.287,0,0,1-.02-.075.254.254,0,0,0,0-.035,2.2,2.2,0,0,1,.235-.743Z" transform="translate(-339.912 -120.545)" fill="#c5774d"/>
              <path id="패스_808" data-name="패스 808" d="M342.089,122.227a.793.793,0,0,1,.15.289.285.285,0,0,0,.006.034c.012.105-.035.234-.164.187a.331.331,0,0,1-.107-.068,1.285,1.285,0,0,1-.119-.129,1.355,1.355,0,0,1-.221-.36,2.977,2.977,0,0,1-.089-.317.756.756,0,0,1-.037-.152c0-.011,0-.077,0-.077s.172.157.277.262A3.627,3.627,0,0,1,342.089,122.227Z" transform="translate(-339.673 -120.36)" fill="#c5774d"/>
              <path id="패스_809" data-name="패스 809" d="M342.452,122.8a.306.306,0,0,1-.006-.034A.23.23,0,0,1,342.452,122.8Z" transform="translate(-339.88 -120.609)" fill="#c5774d"/>
              <path id="패스_810" data-name="패스 810" d="M342.4,123.787c-.023.08-.083.141-.179.1a.613.613,0,0,1-.207-.215,1.3,1.3,0,0,1-.184-.377,3,3,0,0,1-.055-.323.715.715,0,0,1-.02-.154c0-.011,0-.077,0-.077s.158.168.254.283l.014.017a1.354,1.354,0,0,1,.383.637.285.285,0,0,0,0,.035A.277.277,0,0,1,342.4,123.787Z" transform="translate(-339.727 -120.603)" fill="#c5774d"/>
              <path id="패스_811" data-name="패스 811" d="M342.591,123.941a.254.254,0,0,1,0,.035A.279.279,0,0,1,342.591,123.941Z" transform="translate(-339.912 -120.868)" fill="#c5774d"/>
              <path id="패스_812" data-name="패스 812" d="M341.027,129.809l.006-.009-.006.009Z" transform="translate(-339.568 -122.156)" fill="#c5774d"/>
              <path id="패스_813" data-name="패스 813" d="M341.026,129.809l.006-.009-.006.009Z" transform="translate(-339.568 -122.156)" fill="#c5774d"/>
              <path id="패스_814" data-name="패스 814" d="M341.026,129.809l.006-.009-.006.009Z" transform="translate(-339.568 -122.156)" fill="#c5774d"/>
              <path id="패스_815" data-name="패스 815" d="M341.026,129.811h0Z" transform="translate(-339.568 -122.159)" fill="#c5774d"/>
              <path id="패스_816" data-name="패스 816" d="M341.027,129.811Z" transform="translate(-339.568 -122.159)" fill="#c5774d"/>
              <path id="패스_817" data-name="패스 817" d="M341.022,129.811h0a.162.162,0,0,1-.016.024l.016-.024Z" transform="translate(-339.563 -122.159)" fill="#c5774d"/>
              <path id="패스_818" data-name="패스 818" d="M341.011,129.563l.005-.009a3.212,3.212,0,0,1,.722-.568l.023-.016.386-.287s-.016.074-.019.086a.86.86,0,0,1-.076.168,2.344,2.344,0,0,1-.2.346,1.627,1.627,0,0,1-.406.363.958.958,0,0,1-.354.16.2.2,0,0,1-.053,0c-.081-.009-.1-.073-.077-.141a.34.34,0,0,1,.033-.078.163.163,0,0,0,.016-.024Z" transform="translate(-339.552 -121.911)" fill="#c5774d"/>
              <path id="패스_819" data-name="패스 819" d="M341.006,129.835l.016-.024Z" transform="translate(-339.563 -122.159)" fill="#c5774d"/>
              <path id="패스_820" data-name="패스 820" d="M340.873,128.411c.007-.01.053-.068.053-.068s.047.221.062.367l0,.021a1.154,1.154,0,0,1-.061.748l-.006.009h0l-.016.024a.39.39,0,0,1-.066.068.181.181,0,0,1-.187.043.112.112,0,0,1-.044-.038.5.5,0,0,1-.05-.288,1.248,1.248,0,0,1,.076-.423c.04-.111.105-.209.156-.316A.9.9,0,0,1,340.873,128.411Z" transform="translate(-339.465 -121.836)" fill="#c5774d"/>
              <path id="패스_821" data-name="패스 821" d="M341.006,129.835l.016-.024Z" transform="translate(-339.563 -122.159)" fill="#c5774d"/>
              <path id="패스_822" data-name="패스 822" d="M341.121,120.931l.013-.006c.1.2.145.3.243.5l-.014.006C341.265,121.229,341.217,121.13,341.121,120.931Z" transform="translate(-339.589 -120.204)" fill="#c5774d"/>
              <path id="패스_823" data-name="패스 823" d="M342.694,121c-.02-.219-.03-.329-.051-.549l.015,0c.021.22.031.329.051.549Z" transform="translate(-339.923 -120.101)" fill="#c5774d"/>
              <path id="패스_824" data-name="패스 824" d="M341.836,120.542l-.115-.538.014,0,.115.538Z" transform="translate(-339.721 -120.001)" fill="#c5774d"/>
              <path id="패스_825" data-name="패스 825" d="M343.044,122.272c.024-.222.036-.332.058-.553h.016c-.022.222-.034.332-.058.553Z" transform="translate(-340.012 -120.379)" fill="#c5774d"/>
              <path id="패스_826" data-name="패스 826" d="M343.255,123.492c.071-.217.105-.325.172-.541l.016,0c-.067.217-.1.325-.172.541Z" transform="translate(-340.058 -120.65)" fill="#c5774d"/>
              <path id="패스_827" data-name="패스 827" d="M343.592,124.222c-.112.207-.168.31-.284.515l-.016-.005c.116-.205.173-.308.285-.515Z" transform="translate(-340.066 -120.928)" fill="#c5774d"/>
              <path id="패스_828" data-name="패스 828" d="M343.187,125.984c.157-.19.234-.285.386-.477l.013.008c-.151.192-.229.287-.385.477Z" transform="translate(-340.043 -121.212)" fill="#c5774d"/>
              <path id="패스_829" data-name="패스 829" d="M342.916,127.264c.21-.157.314-.236.52-.4l.012.01c-.206.161-.31.24-.52.4Z" transform="translate(-339.983 -121.511)" fill="#c5774d"/>
              <path id="패스_830" data-name="패스 830" d="M342.493,128.514l-.012-.011c.219-.154.328-.232.542-.392l.012.01C342.82,128.28,342.712,128.358,342.493,128.514Z" transform="translate(-339.888 -121.785)" fill="#c5774d"/>
              <path id="패스_831" data-name="패스 831" d="M341.367,122.081l.014-.006c.1.2.147.3.248.495l-.014.006C341.514,122.378,341.465,122.279,341.367,122.081Z" transform="translate(-339.643 -120.457)" fill="#c5774d"/>
              <path id="패스_832" data-name="패스 832" d="M341.745,123.7c-.1-.2-.152-.3-.251-.495l.015-.006c.1.2.15.3.251.495Z" transform="translate(-339.671 -120.703)" fill="#c5774d"/>
              <path id="패스_833" data-name="패스 833" d="M341.756,124.708c-.1-.2-.153-.3-.253-.5l.015-.006c.1.2.151.3.253.5Z" transform="translate(-339.673 -120.926)" fill="#c5774d"/>
              <path id="패스_834" data-name="패스 834" d="M341.379,125.4l.016-.007c.1.2.151.3.253.5l-.016.006C341.53,125.7,341.479,125.6,341.379,125.4Z" transform="translate(-339.645 -121.188)" fill="#c5774d"/>
              <path id="패스_835" data-name="패스 835" d="M341.106,126.49l.016-.006c.1.2.15.3.251.5l-.016.006C341.256,126.79,341.205,126.69,341.106,126.49Z" transform="translate(-339.585 -121.427)" fill="#c5774d"/>
              <path id="패스_836" data-name="패스 836" d="M340.686,127.558l.016-.006c.1.2.148.3.248.5l-.017.006C340.833,127.859,340.784,127.759,340.686,127.558Z" transform="translate(-339.493 -121.662)" fill="#c5774d"/>
              <path id="패스_837" data-name="패스 837" d="M339.209,131.6a11.558,11.558,0,0,0,1.1-1.562A.181.181,0,0,0,340.5,130a.394.394,0,0,0,.067-.068.309.309,0,0,0-.034.078c-.018.068,0,.132.077.142a11.666,11.666,0,0,1-1.077,1.548l-.023.028C339.325,131.949,339.038,131.808,339.209,131.6Z" transform="translate(-339.157 -122.185)" fill="#c5774d"/>
            </g>
            <g id="그룹_61" data-name="그룹 61" transform="translate(1.953 5.853)">
              <path id="패스_838" data-name="패스 838" d="M342.138,127.538c0-.012.007-.023.011-.034A.208.208,0,0,1,342.138,127.538Z" transform="translate(-341.765 -127.504)" fill="#c5774d"/>
              <path id="패스_839" data-name="패스 839" d="M341.66,128.7c0-.012.011-.023.016-.034A.231.231,0,0,1,341.66,128.7Z" transform="translate(-341.66 -127.76)" fill="#c5774d"/>
            </g>
          </g>
        </g>
      </g>
      <path id="패스_840" data-name="패스 840" d="M336.845,125.661a2.945,2.945,0,0,1-3.051,3.025,3.014,3.014,0,0,1-1.55-.372,2.779,2.779,0,0,1-1.426-2.455h1.947c.012.57.384.856.98.856a.956.956,0,0,0,.955-1.041c-.013-1.253-1.253-1.2-2.2-1.166v-.3l1.153-2.406h-2.5v-1.971h5.518v.322l-1.6,2.926A2.373,2.373,0,0,1,336.845,125.661Z" transform="translate(-322.091 -112.397)" fill="#b76c4b"/>
      <path id="패스_841" data-name="패스 841" d="M333.828,128.6a2.9,2.9,0,0,1-1.492-.357,2.654,2.654,0,0,1-1.364-2.235h1.717a.956.956,0,0,0,1.09.855,1.073,1.073,0,0,0,1.072-1.156c-.011-1.152-.963-1.3-1.791-1.3-.137,0-.272,0-.4.009v-.148l1.222-2.55H331.3v-1.736h5.283v.175l-1.658,3.034.147.037a2.227,2.227,0,0,1,1.684,2.466,2.935,2.935,0,0,1-.83,2.086A2.885,2.885,0,0,1,333.828,128.6Z" transform="translate(-322.125 -112.43)" fill="#aa3507"/>
      <g id="그룹_65" data-name="그룹 65" transform="translate(0.215 0.216)" style="mix-blend-mode: multiply;isolation: isolate">
        <path id="패스_842" data-name="패스 842" d="M333.677,110.578l-13.77,13.77a11.7,11.7,0,0,0,1,2.953l15.727-15.726A11.637,11.637,0,0,0,333.677,110.578Z" transform="translate(-319.907 -110.578)" fill="#fff"/>
        <path id="패스_843" data-name="패스 843" d="M342.276,116.56,325.89,132.946a11.686,11.686,0,0,0,3.057,1.582l14.911-14.911A11.687,11.687,0,0,0,342.276,116.56Z" transform="translate(-321.223 -111.894)" fill="#fff"/>
      </g>
    </g>
  </g>
</svg>
